<svg id="Component_37_1" data-name="Component 37 – 1" xmlns="http://www.w3.org/2000/svg" xmlns:xlink="http://www.w3.org/1999/xlink" width="160.049" height="40" viewBox="0 0 160.049 40">
  <defs>
    <clipPath id="clip-path">
      <rect id="Rectangle_2" data-name="Rectangle 2" width="160.049" height="40" fill="#fff"/>
    </clipPath>
  </defs>
  <g id="Group_1" data-name="Group 1" clip-path="url(#clip-path)">
    <g id="Group_28241" data-name="Group 28241">
      <path id="Path_2" data-name="Path 2" d="M151.713,70.087a4.567,4.567,0,0,1,1.527-2.222,4.781,4.781,0,0,1,2.578-1.16,7.166,7.166,0,0,1,1.8.059,6.185,6.185,0,0,0,1.4.088,1.582,1.582,0,0,0,1.4-.909,1.844,1.844,0,0,1,.214-.391c.087.024.06.082.052.13a1.741,1.741,0,0,1-1.723,1.579,6.339,6.339,0,0,1-1.642-.071,5.121,5.121,0,0,0-4.766,1.891,5.779,5.779,0,0,0-.73,1.006Z" transform="translate(-106.205 -45.889)" fill="#ffcf1e"/>
      <path id="Path_3" data-name="Path 3" d="M159.739,26.534l.613-.492.661-.536a.9.9,0,0,1,.246-.155.643.643,0,0,1,.713.144.563.563,0,0,1,.112.685c-.252.576-.493,1.157-.716,1.745a20.35,20.35,0,0,0-1.019,3.488,8.7,8.7,0,0,0,.141,4.232,9.38,9.38,0,0,0,.887,1.956.513.513,0,0,1-.428.842c-.343.02-.691-.01-1.036-.024a.391.391,0,0,1-.276-.143,1.645,1.645,0,0,1-.325-.481c-.066-.164-.135-.328-.211-.487a.275.275,0,0,0-.4-.145.533.533,0,0,0-.226.18,1.927,1.927,0,0,1-1.889.719c-.521-.046-1.039-.111-1.557-.18a4.165,4.165,0,0,0-2.429.393l-.834.409a4.32,4.32,0,0,1-1.44.442.781.781,0,0,1-.968-.576,4.073,4.073,0,0,1-.246-1.38,10.507,10.507,0,0,1,.733-4.474,12.079,12.079,0,0,1,2.235-3.406,12.961,12.961,0,0,1,4.946-3.311,3.28,3.28,0,0,1,1.424-.261,1.444,1.444,0,0,1,1.122.621c.046.063.07.144.162.2m-1.283,3.526c.016-.316-.05-.5-.247-.616a.509.509,0,0,0-.6.06,1.142,1.142,0,0,0-.47.831.518.518,0,0,0,.243.526.492.492,0,0,0,.574-.031,1.143,1.143,0,0,0,.5-.77" transform="translate(-104.383 -17.711)" fill="#ffcf1e"/>
      <path id="Path_4" data-name="Path 4" d="M141.62,29.048a9,9,0,0,1,1.507-7.714,8.742,8.742,0,0,1,6.459-3.473c.093,0,.38-.019.475-.014l.316,0c.143.01.33.015.473.03.085.012.382.036.469.056.144.023.323.048.465.081.071.018.232.045.307.067s.376.094.454.124.228.071.3.094.224.082.293.109c.145.049.363.152.5.21.1.05.246.122.349.172.131.066.287.16.409.224-.171-.077-.395-.188-.567-.252-.09-.034-.2-.084-.288-.112l-.292-.1c-.08-.027-.212-.064-.3-.088l-.148-.043-.15-.035a8.237,8.237,0,0,0-6.773,1.325l-.239.178-.23.189c-.08.062-.254.227-.332.3-.1.1-.214.213-.315.314-.048.055-.149.165-.2.22-.073.076-.214.259-.283.341-.086.107-.181.245-.264.355l-.2.307a8.093,8.093,0,0,0-.691,1.372c-.038.085-.071.187-.1.274-.021.069-.073.2-.092.276s-.1.339-.116.42-.05.214-.066.282a8.466,8.466,0,0,0-.127.857c-.01.126-.027.3-.028.431a7.869,7.869,0,0,0,.123,1.712,8.669,8.669,0,0,0,.288,1.1Z" transform="translate(-98.932 -12.492)" fill="#ffcf1e"/>
    </g>
    <path id="Path_5" data-name="Path 5" d="M59.8,22.317a5.275,5.275,0,0,1,.664-.914,4.817,4.817,0,0,1,2.762-1.488,6.338,6.338,0,0,1,3.718.4,4.754,4.754,0,0,1,2.608,2.694c.027.068.03.152.124.216l.085-.189a5.31,5.31,0,0,1,4.221-3.154,6.139,6.139,0,0,1,3.753.534A5.45,5.45,0,0,1,80.73,24.2a6.388,6.388,0,0,1,.178,1.555q-.007,4.1,0,8.2a1.472,1.472,0,0,0,0,.2c.022.157-.054.193-.2.19q-.528-.011-1.056,0c-.136,0-.194-.04-.178-.178a1.7,1.7,0,0,0,0-.2c0-2.77.012-5.541-.005-8.311a4.441,4.441,0,0,0-1.449-3.387,4.309,4.309,0,0,0-2.493-1.086,4.776,4.776,0,0,0-2.273.253A4.325,4.325,0,0,0,70.51,24.6a5.738,5.738,0,0,0-.16,1.443v8c0,.349.043.305-.3.307H69.08c-.123,0-.175-.042-.163-.169.006-.066,0-.133,0-.2,0-2.761.013-5.522-.005-8.282a4.474,4.474,0,0,0-1.466-3.38,4.166,4.166,0,0,0-2.093-1.038,4.81,4.81,0,0,0-3.01.328,4.278,4.278,0,0,0-2.4,3.05,6.034,6.034,0,0,0-.142,1.416v7.995c0,.3.014.28-.277.28-.324,0-.647,0-.971,0-.133,0-.2-.037-.183-.177a1.924,1.924,0,0,0,0-.2V20.459c0-.359,0-.359.367-.359.266,0,.533.007.8,0,.139-.005.185.045.181.179-.005.181.007.362.007.542V22.3Z" transform="translate(-40.858 -13.857)" fill="#fff"/>
    <path id="Path_6" data-name="Path 6" d="M15.623,3.46l-1.23.728c-.074-.023-.1-.079-.127-.125a5.451,5.451,0,0,0-3.675-2.385,11.636,11.636,0,0,0-2.638-.209,8.806,8.806,0,0,0-3.537.782,4.131,4.131,0,0,0-1.639,1.3,3.28,3.28,0,0,0-.551,2.682A2.5,2.5,0,0,0,3.286,7.767a6.419,6.419,0,0,0,1.935.883,29.4,29.4,0,0,0,3.03.683,33.691,33.691,0,0,1,3.832.874A7.775,7.775,0,0,1,14.529,11.4a4.189,4.189,0,0,1,1.647,2.833,5.832,5.832,0,0,1-.152,2.486A4.707,4.707,0,0,1,14,19.391a8.251,8.251,0,0,1-2.93,1.139,13.292,13.292,0,0,1-3.26.266,10.49,10.49,0,0,1-5.216-1.537A7.186,7.186,0,0,1,.143,16.75c-.033-.058-.058-.12-.1-.175-.091-.131-.043-.194.089-.253.361-.169.717-.352,1.072-.532.1-.049.157-.072.225.052a6.382,6.382,0,0,0,3.049,2.689,8.914,8.914,0,0,0,3.866.849,10.278,10.278,0,0,0,3.474-.561,4.574,4.574,0,0,0,2.063-1.374,3.625,3.625,0,0,0,.76-2.672,3.049,3.049,0,0,0-1.551-2.426,8.207,8.207,0,0,0-2.149-.9c-1.023-.295-2.071-.482-3.115-.686A27.827,27.827,0,0,1,4.261,9.9,7.559,7.559,0,0,1,2.172,8.874,3.746,3.746,0,0,1,.577,6,5.175,5.175,0,0,1,.927,3.566,4.818,4.818,0,0,1,2.9,1.338,8.425,8.425,0,0,1,5.762.254a14.084,14.084,0,0,1,5-.059,6.94,6.94,0,0,1,4.828,3.184.471.471,0,0,1,.037.081" transform="translate(0 0)" fill="#fff"/>
    <path id="Path_7" data-name="Path 7" d="M264.944,10.951V1.183c0-.391-.039-.346.354-.347,2.894,0,5.789-.016,8.682.006a6.233,6.233,0,0,1,4.395,1.685,6.331,6.331,0,0,1,1.859,3.434,7.131,7.131,0,0,1-.53,4.593,5.937,5.937,0,0,1-4.187,3.357,7.8,7.8,0,0,1-1.813.184H266.68c-.11-.006-.157.042-.151.151v6.569c0,.246,0,.247-.254.248H265.19c-.242,0-.242,0-.244-.253V10.951Zm1.583-3.5v4.883c0,.358-.036.322.319.322h6.825a6.565,6.565,0,0,0,.968-.057,4.554,4.554,0,0,0,3.38-2.179,5.6,5.6,0,0,0,.713-4.008,5,5,0,0,0-1.222-2.567,4.6,4.6,0,0,0-3.527-1.537c-2.38-.013-4.759,0-7.139,0h-.169c-.111-.007-.155.043-.149.151,0,.067,0,.133,0,.2Z" transform="translate(-185.47 -0.581)" fill="#ffcf1e"/>
    <path id="Path_8" data-name="Path 8" d="M409.938,9.807V1.194c0-.384-.03-.338.332-.338h.885c.118,0,.182.032.169.16-.005.066,0,.133,0,.2v19.5c0,.417.055.36-.363.365h-.743c-.3,0-.283.02-.283-.273V18.07c-.123.042-.141.133-.185.2a6.525,6.525,0,0,1-4.449,2.918,7.54,7.54,0,0,1-4.284-.429,6.309,6.309,0,0,1-3.756-4.077,9.035,9.035,0,0,1-.358-3.663,7.654,7.654,0,0,1,.618-2.451A6.307,6.307,0,0,1,401.494,7a7.821,7.821,0,0,1,5.311.106,5.689,5.689,0,0,1,2.98,2.54c.033.058.068.113.1.169Zm-11.662,4.187a6.388,6.388,0,0,0,.194,1.748,5.131,5.131,0,0,0,3.429,3.812,6.352,6.352,0,0,0,3.233.265,5.35,5.35,0,0,0,4.115-3.009,6.388,6.388,0,0,0,.309-4.991,5.344,5.344,0,0,0-3.612-3.561,6.357,6.357,0,0,0-3.984.043,4.987,4.987,0,0,0-3.064,2.645,6.577,6.577,0,0,0-.623,3.047Z" transform="translate(-277.81 -0.598)" fill="#ffcf1e"/>
    <path id="Path_9" data-name="Path 9" d="M212.49,6.564c0,.371-.011.742-.011,1.113v2.8c0,.338-.007.3.288.3h4.426c.08,0,.123.025.123.112v.942c0,.1-.039.139-.136.135h-4.6a.093.093,0,0,0-.1.079.11.11,0,0,0,0,.026v8.626a5.843,5.843,0,0,0,.188,1.638,2.029,2.029,0,0,0,1.788,1.532,4.72,4.72,0,0,0,2.581-.423c.3-.127.24-.131.36.138s.221.526.338.785c.046.1.022.148-.079.2a5.724,5.724,0,0,1-3.82.539,3.164,3.164,0,0,1-2.529-2.461,7.885,7.885,0,0,1-.232-2.035V12.322a1.228,1.228,0,0,1,0-.169c.025-.162-.059-.187-.2-.187q-1.257.007-2.513,0c-.106,0-.223.048-.32-.054-.054-.058-.077.021-.094.051-.068.114-.129.232-.193.349-.055.1-.111.2-.153.273a.1.1,0,0,1-.13-.007,4.733,4.733,0,0,0-7.014,4.141v7.968a.8.8,0,0,1-.024.32h-1.384a.737.737,0,0,1-.023-.294V11.089c0-.352-.047-.31.325-.313.286,0,.571.006.857,0,.141,0,.175.049.177.182.006.628.02,1.256.034,1.884a.643.643,0,0,0,.027.3c.07.013.07-.04.085-.067a4.519,4.519,0,0,1,2.971-2.227,5.917,5.917,0,0,1,4.4.447c.032.017.067.03.139.06,0-.152.006-.281,0-.407s.033-.169.16-.169c.295.007.592,0,.885,0h1.685c.333,0,.3.035.3-.312v-3.6c0-.244,0-.248.235-.275.358-.042.718-.079,1.077-.118Z" transform="translate(-139.324 -4.531)" fill="#fff"/>
    <path id="Path_10" data-name="Path 10" d="M354.263,27.992h-6.085c-.351,0-.346,0-.292.351a5.749,5.749,0,0,0,1.231,2.873,5.353,5.353,0,0,0,3.2,1.891,7.216,7.216,0,0,0,5.4-1.065,3.778,3.778,0,0,0,.912-.815c.093-.115.163-.128.277-.031.225.191.46.369.69.555.187.153.188.155.023.352a6.139,6.139,0,0,1-1.153,1.06,8.184,8.184,0,0,1-3.608,1.395,7.857,7.857,0,0,1-3.852-.347,6.559,6.559,0,0,1-4.352-4.76,7.681,7.681,0,0,1,.582-5.683,6.814,6.814,0,0,1,5.018-3.671,7.934,7.934,0,0,1,4.826.577,5.955,5.955,0,0,1,3.459,4.368,9.805,9.805,0,0,1,.161,2.611c0,.067-.016.132-.022.2a.135.135,0,0,1-.124.145.14.14,0,0,1-.045,0c-.075-.007-.152,0-.228,0Zm-.652-1.261h5.654c.1,0,.139-.039.129-.137a10.341,10.341,0,0,0-.169-1.328,4.751,4.751,0,0,0-2.938-3.5,6.827,6.827,0,0,0-3.558-.411,5.408,5.408,0,0,0-3.171,1.551,5.993,5.993,0,0,0-1.683,3.6c-.029.221-.021.222.2.227h5.54Z" transform="translate(-242.467 -13.966)" fill="#ffcf1e"/>
    <path id="Path_11" data-name="Path 11" d="M472.965,22.4c-.284.274-.565.543-.845.814a.1.1,0,0,1-.142.027.105.105,0,0,1-.027-.027,1.529,1.529,0,0,0-.13-.112,5.955,5.955,0,0,0-3.965-1.5,6.312,6.312,0,0,0-2.878.592,5.2,5.2,0,0,0-2.888,3.453,6.867,6.867,0,0,0,.085,4.021,5.06,5.06,0,0,0,2.839,3.183,6.154,6.154,0,0,0,5.854-.281,4.916,4.916,0,0,0,1-.761c.1-.1.169-.116.278-.006.266.272.543.532.822.8a.915.915,0,0,1-.253.29,7.136,7.136,0,0,1-3.839,1.8,7.645,7.645,0,0,1-4.907-.871,6.551,6.551,0,0,1-3.3-4.379,8.031,8.031,0,0,1,.253-4.745,6.5,6.5,0,0,1,4.426-4.109,7.7,7.7,0,0,1,4.608-.016,7.394,7.394,0,0,1,2.925,1.719,1.176,1.176,0,0,1,.084.1" transform="translate(-322.314 -14.166)" fill="#ffcf1e"/>
    <path id="Path_12" data-name="Path 12" d="M504.27,16.772V12.345c0-.067-.006-.133,0-.2.014-.139-.051-.19-.183-.181h-2.571c-.273,0-.274,0-.274-.285v-.657c0-.242,0-.244.254-.244h2.4c.417,0,.37.049.371-.359V6.878c0-.315-.005-.254.259-.289.32-.045.644-.062.965-.1.108-.013.169.007.158.127v3.911c0,.245,0,.248.253.248h4.342c.247,0,.249,0,.254.253s0,.514,0,.771c0,.125-.049.169-.169.169h-4.542c-.092,0-.141.04-.14.137v.2c0,2.732-.006,5.465.005,8.2a7.223,7.223,0,0,0,.157,1.7,2.064,2.064,0,0,0,1.944,1.682,4.813,4.813,0,0,0,2.493-.451c.223-.1.225-.1.323.128.113.262.217.528.338.787.05.109.044.169-.073.221a5.808,5.808,0,0,1-3.116.635,5.451,5.451,0,0,1-1.144-.223,3.116,3.116,0,0,1-2.07-2.288,6.523,6.523,0,0,1-.234-1.748q0-2.088,0-4.174" transform="translate(-350.886 -4.541)" fill="#ffcf1e"/>
    <path id="Path_13" data-name="Path 13" d="M319.628,22.781a5.8,5.8,0,0,1,.538-.8,4.694,4.694,0,0,1,2.519-1.526,5.978,5.978,0,0,1,4.173.353c.1.05.2.1.3.16.21.119.21.12.089.344-.136.253-.276.5-.412.75-.122.226-.126.186-.293.095a4.614,4.614,0,0,0-2.273-.557,4.7,4.7,0,0,0-4.372,3.1,5.078,5.078,0,0,0-.29,1.735q0,3.927,0,7.854c0,.388.049.352-.348.354h-.914c-.121,0-.178-.038-.169-.164.005-.056,0-.114,0-.169V20.746c0-.392-.046-.338.353-.346.266,0,.533.008.8,0,.141-.007.187.051.19.178.007.294.024.592.027.883.005.435,0,.87,0,1.307Z" transform="translate(-222.736 -14.163)" fill="#ffcf1e"/>
    <path id="Path_14" data-name="Path 14" d="M451.892,27.712V20.805c0-.213,0-.216.223-.217h1.028c.121,0,.176.043.169.169-.005.066,0,.133,0,.2V34.547c0,.4.049.358-.37.361h-.885c-.124,0-.174-.045-.163-.169.006-.066,0-.133,0-.2Z" transform="translate(-316.34 -14.412)" fill="#ffcf1e"/>
    <path id="Path_15" data-name="Path 15" d="M451.665,1.554a1.134,1.134,0,1,1,.08,2.267h-.059a1.1,1.1,0,0,1-1.146-1.049c0-.021,0-.042,0-.063a1.083,1.083,0,0,1,1.008-1.154,1.1,1.1,0,0,1,.118,0" transform="translate(-315.391 -1.087)" fill="#ffcf1e"/>
    <path id="Path_16" data-name="Path 16" d="M270.706,84.877a3.839,3.839,0,0,1,3.5,2.01l.181.373,2.026-.507-.251-.558a5.722,5.722,0,0,0-5.438-3.273c-3.22,0-5.384,1.742-5.384,4.334,0,2.087,1.784,3.692,4.893,4.4,2.108.485,4,1.038,4,2.453a1.411,1.411,0,0,1-.448,1.045,4.484,4.484,0,0,1-3.1.92,3.926,3.926,0,0,1-3.571-1.994l-.183-.464-2,.729.2.49c.753,1.861,3.093,3.212,5.565,3.212,3.41,0,5.7-1.567,5.7-3.9,0-3.067-3.584-3.892-4.929-4.2-2.681-.641-3.985-1.515-3.985-2.672,0-1.458,1.261-2.4,3.213-2.4" transform="translate(-185.469 -58.049)" fill="#fff"/>
    <path id="Path_17" data-name="Path 17" d="M313.094,95.734a5.323,5.323,0,0,0-5.483,5.642c0,3.374,2.339,5.641,5.82,5.641a5.2,5.2,0,0,0,4.637-2.64l.237-.474-1.857-.847-.213.463a3.162,3.162,0,0,1-2.8,1.6,3.334,3.334,0,0,1-3.656-2.959h8.72l.041-.467a5.471,5.471,0,0,0-1.278-4.3,5.532,5.532,0,0,0-4.164-1.662m-3.262,4.536a3.192,3.192,0,0,1,3.262-2.642,3.567,3.567,0,0,1,2.64,1.018,2.591,2.591,0,0,1,.678,1.624Z" transform="translate(-215.339 -67.017)" fill="#fff"/>
    <path id="Path_18" data-name="Path 18" d="M351.347,97.369l-.02-1.516h-2.046V106.9h2.092v-5.5a3.558,3.558,0,0,1,1.106-2.673,3.613,3.613,0,0,1,2.632-.976l.541.032V95.735h-.511a5.632,5.632,0,0,0-3.794,1.634" transform="translate(-244.509 -67.018)" fill="#fff"/>
    <path id="Path_19" data-name="Path 19" d="M376.628,104.4l-3.175-8.275H371.2l4.322,11.046H376.6l.032.084.032-.084h1.069l4.322-11.046H379.8Z" transform="translate(-259.856 -67.294)" fill="#fff"/>
    <rect id="Rectangle_1" data-name="Rectangle 1" width="2.092" height="11.046" transform="translate(123.491 28.835)" fill="#fff"/>
    <path id="Path_20" data-name="Path 20" d="M412.083,84.508a1.281,1.281,0,0,0-1.323,1.264,1.325,1.325,0,0,0,2.647,0,1.281,1.281,0,0,0-1.323-1.264" transform="translate(-287.546 -59.159)" fill="#fff"/>
    <path id="Path_21" data-name="Path 21" d="M433.068,103.454a3.072,3.072,0,0,1-2.778,1.649,3.378,3.378,0,0,1-3.549-3.727c0-2.312,1.36-3.747,3.549-3.747A3.06,3.06,0,0,1,433.07,99.3l.2.451,1.923-.746-.208-.487a5.1,5.1,0,0,0-4.689-2.786,5.642,5.642,0,1,0,0,11.283,5.092,5.092,0,0,0,4.69-2.808l.209-.494-1.931-.709Z" transform="translate(-297.255 -67.017)" fill="#fff"/>
    <path id="Path_22" data-name="Path 22" d="M467.423,95.734a5.323,5.323,0,0,0-5.483,5.642c0,3.374,2.339,5.641,5.82,5.641a5.2,5.2,0,0,0,4.637-2.64l.237-.474-1.857-.848-.213.463a3.162,3.162,0,0,1-2.8,1.6,3.335,3.335,0,0,1-3.656-2.959h8.72l.041-.467a5.471,5.471,0,0,0-1.278-4.3,5.533,5.533,0,0,0-4.164-1.662m0,1.894a3.567,3.567,0,0,1,2.64,1.018,2.589,2.589,0,0,1,.678,1.624h-6.579a3.191,3.191,0,0,1,3.261-2.642" transform="translate(-323.374 -67.017)" fill="#fff"/>
    <path id="Path_23" data-name="Path 23" d="M506.186,100.545l-.148-.039c-1.452-.387-2.954-.786-2.979-1.529a.939.939,0,0,1,.295-.673,2.819,2.819,0,0,1,2.027-.676,3,3,0,0,1,2.726,1.39l.212.452,1.784-.788-.217-.472a4.806,4.806,0,0,0-4.486-2.476c-2.884,0-4.394,1.632-4.394,3.245,0,2.335,2.767,2.937,3.945,3.193,1.527.343,3.02.747,3.048,1.58a.96.96,0,0,1-.277.741,3.4,3.4,0,0,1-2.382.631c-1.1,0-2.478-.591-2.781-1.545l-.173-.544-1.845.82.157.445c.62,1.766,2.855,2.719,4.642,2.719,4.371,0,4.711-2.5,4.711-3.265,0-2.285-2.62-2.911-3.866-3.208" transform="translate(-350.398 -67.017)" fill="#fff"/>
  </g>
</svg>
