<svg xmlns="http://www.w3.org/2000/svg" width="19.98" height="17.73" viewBox="0 0 19.98 17.73">
  <path id="Path_79872" data-name="Path 79872" d="M-22.5-70.38h7.74v7.92a11.863,11.863,0,0,1-1.935,7.2,6.86,6.86,0,0,1-5.9,2.61v-2.52a4.671,4.671,0,0,0,2.34-.81,3.864,3.864,0,0,0,1.215-1.62,6.642,6.642,0,0,0,.45-2.3,26.282,26.282,0,0,0-.045-2.655h-2.52a9.558,9.558,0,0,0-1.35.09Zm12.15,0h7.74v7.92a11.863,11.863,0,0,1-1.935,7.2,6.86,6.86,0,0,1-5.895,2.61v-2.52a4.671,4.671,0,0,0,2.34-.81A3.864,3.864,0,0,0-6.885-57.6a6.642,6.642,0,0,0,.45-2.3A15.913,15.913,0,0,0-6.57-62.55H-9a9.558,9.558,0,0,0-1.35.09Z" transform="translate(22.59 70.38)" fill="#1e3967"/>
</svg>
