<svg id="Group_28221" data-name="Group 28221" xmlns="http://www.w3.org/2000/svg" width="36.765" height="36.765" viewBox="0 0 36.765 36.765">
  <rect id="Rectangle_7044" data-name="Rectangle 7044" width="36.765" height="36.765" transform="translate(0 0)" fill="none"/>
  <path id="Icon_ionic-ios-star-outline" data-name="Icon ionic-ios-star-outline" d="M27.277,11.737H18.735l-2.6-7.746a.941.941,0,0,0-1.765,0l-2.6,7.746h-8.6a.932.932,0,0,0-.929.929.683.683,0,0,0,.017.157.893.893,0,0,0,.389.656l7.02,4.947L6.983,26.26A.932.932,0,0,0,7.3,27.3a.9.9,0,0,0,.523.226,1.138,1.138,0,0,0,.581-.209l6.852-4.884,6.852,4.884a1.088,1.088,0,0,0,.581.209.834.834,0,0,0,.517-.226.92.92,0,0,0,.319-1.045l-2.694-7.833,6.962-4.994.168-.145a.974.974,0,0,0,.3-.621A.983.983,0,0,0,27.277,11.737Zm-7.386,5.371a1.631,1.631,0,0,0-.592,1.847l1.748,5.093a.233.233,0,0,1-.354.267L16.2,21.109a1.622,1.622,0,0,0-.947-.3,1.592,1.592,0,0,0-.941.3l-4.494,3.2a.232.232,0,0,1-.354-.267l1.748-5.093a1.636,1.636,0,0,0-.6-1.858l-4.7-3.316a.233.233,0,0,1,.134-.424h5.731a1.624,1.624,0,0,0,1.539-1.109L15.031,7.12a.234.234,0,0,1,.441,0l1.719,5.122a1.624,1.624,0,0,0,1.539,1.109h5.65a.23.23,0,0,1,.134.418Z" transform="translate(3.126 2.689)" fill="#30d158" stroke="rgba(0,0,0,0)" stroke-width="1"/>
</svg>
