<svg id="Group_28221" data-name="Group 28221" xmlns="http://www.w3.org/2000/svg" xmlns:xlink="http://www.w3.org/1999/xlink" width="36.765" height="36.765" viewBox="0 0 36.765 36.765">
  <defs>
    <clipPath id="clip-path">
      <rect id="Rectangle_7046" data-name="Rectangle 7046" width="27.049" height="27.04" fill="#30d158" stroke="rgba(0,0,0,0)" stroke-width="1"/>
    </clipPath>
  </defs>
  <rect id="Rectangle_7044" data-name="Rectangle 7044" width="36.765" height="36.765" transform="translate(0 0)" fill="none"/>
  <g id="Group_28224" data-name="Group 28224" transform="translate(4.858 4.861)">
    <g id="Group_28223" data-name="Group 28223" clip-path="url(#clip-path)">
      <path id="Path_68522" data-name="Path 68522" d="M2.9,0H24.117a.662.662,0,0,0,.1.043,2.359,2.359,0,0,1,1.719,2.48c-.023.738,0,1.477-.006,2.216a.5.5,0,0,0,.182.411,2.686,2.686,0,0,1,.9,2.516c-.078.583-.158,1.166-.235,1.749-.223,1.671-.454,3.342-.662,5.015a5.863,5.863,0,0,0-.135,1.7c.082.5.141,1.009.208,1.514.277,2.081.542,4.163.835,6.241A2.73,2.73,0,0,1,24.4,27.038q-10.9.007-21.792,0a2.565,2.565,0,0,1-1.583-.568A2.938,2.938,0,0,1,0,24.856V23.8c.012-.051.027-.1.034-.154.316-2.357.636-4.714.944-7.072a3.776,3.776,0,0,0,.083-1.018C.836,13.914.624,12.269.4,10.625.272,9.651.135,8.678,0,7.7v-1A2.869,2.869,0,0,1,.978,5.089a.4.4,0,0,0,.114-.36c0-.8,0-1.6,0-2.4A2.366,2.366,0,0,1,1.7.718,2.746,2.746,0,0,1,2.9,0M13.52,25.851q5.277,0,10.553,0a2.371,2.371,0,0,0,.655-.046,1.559,1.559,0,0,0,1.1-1.852c-.07-.478-.132-.957-.2-1.436-.222-1.654-.455-3.306-.659-4.963a9.257,9.257,0,0,1-.152-2.536c.367-2.476.672-4.961,1.009-7.441a1.548,1.548,0,0,0-1.54-1.911q-10.778-.006-21.555,0A1.486,1.486,0,0,0,1.179,7.282c.018.437.1.872.155,1.307.257,1.933.521,3.865.772,5.8a6.83,6.83,0,0,1,.162,1.49c-.076.821-.209,1.638-.319,2.456C1.694,20.221,1.436,22.11,1.187,24a1.8,1.8,0,0,0,.03.733A1.509,1.509,0,0,0,2.809,25.85q5.356,0,10.712,0M13.5,4.469q4.182,0,8.363,0c.888,0,1.776,0,2.664.018.174,0,.212-.064.211-.213,0-.695.009-1.39-.007-2.084a1.059,1.059,0,0,0-.995-1.014c-.14-.009-.281-.008-.422-.008H3.709c-.105,0-.211,0-.317,0A1.074,1.074,0,0,0,2.287,2.3c-.005.642.006,1.284-.006,1.926,0,.228.072.3.293.259A2.469,2.469,0,0,1,3,4.47H13.5" fill="#30d158" stroke="rgba(0,0,0,0)" stroke-width="1"/>
      <path id="Path_68523" data-name="Path 68523" d="M108.7,148.16a3.2,3.2,0,0,1-1.283,2.262c-.144.117-.172.174-.011.309a3.4,3.4,0,0,1-1.677,6.041,3.4,3.4,0,0,1-3.822-3.3.6.6,0,0,1,.541-.662.579.579,0,0,1,.62.553,2.555,2.555,0,0,0,.6,1.516,2.227,2.227,0,0,0,2.438.579,2.212,2.212,0,0,0-.655-4.267,1.676,1.676,0,0,1-.285-.05.577.577,0,0,1,.016-1.127,3.212,3.212,0,0,1,.391-.06,2.206,2.206,0,1,0-2.468-2.322,1.037,1.037,0,0,1-.1.407.584.584,0,0,1-.648.294.571.571,0,0,1-.443-.556,3.213,3.213,0,0,1,.777-2.187,3.392,3.392,0,0,1,3.772-1.026,3.55,3.55,0,0,1,2.241,3.6" transform="translate(-95.172 -134.818)" fill="#30d158" stroke="rgba(0,0,0,0)" stroke-width="1"/>
      <path id="Path_68524" data-name="Path 68524" d="M242.7,150.6q0,2.69,0,5.38a2.465,2.465,0,0,1-.009.316.57.57,0,0,1-.532.5.578.578,0,0,1-.6-.417,1.807,1.807,0,0,1-.048-.523q0-4.6,0-9.2c0-.079,0-.158,0-.237s.039-.2-.042-.247-.158.048-.227.093c-.529.348-1.054.7-1.581,1.051-.176.117-.348.239-.528.348a.594.594,0,1,1-.657-.982c1.086-.732,2.173-1.462,3.27-2.177a.584.584,0,0,1,.953.537q.006,2.782,0,5.564" transform="translate(-222.413 -134.824)" fill="#30d158" stroke="rgba(0,0,0,0)" stroke-width="1"/>
      <path id="Path_68525" data-name="Path 68525" d="M103.1,34.363a.58.58,0,1,1-.618-.545.577.577,0,0,1,.618.545" transform="translate(-95.207 -31.581)" fill="#30d158" stroke="rgba(0,0,0,0)" stroke-width="1"/>
      <path id="Path_68526" data-name="Path 68526" d="M290.45,34.381a.581.581,0,1,1-.578-.589.575.575,0,0,1,.578.589" transform="translate(-270.168 -31.559)" fill="#30d158" stroke="rgba(0,0,0,0)" stroke-width="1"/>
    </g>
  </g>
</svg>
