<svg id="Group_28221" data-name="Group 28221" xmlns="http://www.w3.org/2000/svg" xmlns:xlink="http://www.w3.org/1999/xlink" width="36.765" height="36.765" viewBox="0 0 36.765 36.765">
  <defs>
    <clipPath id="clip-path">
      <rect id="Rectangle_7043" data-name="Rectangle 7043" width="28.178" height="28.714" fill="#30d158" stroke="rgba(0,0,0,0)" stroke-width="1"/>
    </clipPath>
  </defs>
  <rect id="Rectangle_7044" data-name="Rectangle 7044" width="36.765" height="36.765" transform="translate(0 0)" fill="none"/>
  <g id="Group_28220" data-name="Group 28220" transform="translate(4.085 3.784)">
    <g id="Group_28219" data-name="Group 28219" clip-path="url(#clip-path)">
      <path id="Path_68519" data-name="Path 68519" d="M1.039,11.1A9.9,9.9,0,0,0,9.275,20.74a8.551,8.551,0,0,0,1.361.134,2.878,2.878,0,0,1,.444.04.5.5,0,0,1,.45.508.508.508,0,0,1-.51.482,8.513,8.513,0,0,1-1.809-.136A11.02,11.02,0,0,1,.276,13.384,10.889,10.889,0,0,1,6.778.89,10.72,10.72,0,0,1,17.9,2.449a10.557,10.557,0,0,1,4.07,7.268,10.75,10.75,0,0,1,.068,1.129c.009.389-.176.611-.488.623s-.538-.214-.54-.613a8.554,8.554,0,0,0-.382-2.613,9.577,9.577,0,0,0-7.861-7A9.626,9.626,0,0,0,2.556,5.724,9.183,9.183,0,0,0,1.039,11.1" transform="translate(0 0)" fill="#30d158" stroke="rgba(0,0,0,0)" stroke-width="1"/>
      <path id="Path_68520" data-name="Path 68520" d="M26.6,25.755q0-1.639,0-3.28c0-.482.185-.677.663-.677q2.727-.006,5.456,0c.511,0,.689.205.69.786q.006,2.921,0,5.844c0,.229.01.458,0,.686s.082.315.314.312c.735-.01,1.471-.005,2.206,0a1.205,1.205,0,0,1,.352.04.491.491,0,0,1,.266.767,2.278,2.278,0,0,1-.277.31q-2.862,2.872-5.726,5.742c-.444.445-.659.446-1.1.008L23.6,30.415c-.183-.184-.342-.373-.222-.655a.6.6,0,0,1,.638-.339c.706,0,1.411,0,2.117,0,.463,0,.463,0,.463-.477v-3.19m-1.484,4.7a1.253,1.253,0,0,0,.091.129q2.3,2.312,4.605,4.626c.189.191.277.075.4-.05q2.229-2.238,4.459-4.476c.057-.057.157-.1.131-.229-.565,0-1.131,0-1.7,0s-.726-.161-.726-.725c0-2.176-.006-4.352.006-6.527,0-.308-.092-.385-.389-.382-1.311.015-2.623.006-3.934.007-.434,0-.435,0-.435.451q0,3.189,0,6.378c0,.63-.173.8-.8.8H25.115" transform="translate(-8.465 -7.905)" fill="#30d158" stroke="rgba(0,0,0,0)" stroke-width="1"/>
      <path id="Path_68521" data-name="Path 68521" d="M14.646,6.711c0-.219-.01-.438,0-.656a.512.512,0,1,1,1.024,0,10.828,10.828,0,0,1,0,1.133c-.018.308.08.43.4.477A3.347,3.347,0,0,1,18.549,9.2a2.329,2.329,0,0,1,.356,1.154.5.5,0,0,1-1,.138,2.257,2.257,0,0,0-2.257-1.856,4.291,4.291,0,0,0-1.879.19,1.813,1.813,0,0,0-1.331,1.5,1.3,1.3,0,0,0,.584,1.34,6.147,6.147,0,0,0,2,.759,10.347,10.347,0,0,1,2.458.8,2.367,2.367,0,0,1,1.431,2.134,2.706,2.706,0,0,1-1.7,2.607,3.359,3.359,0,0,1-1.227.344c-.221.02-.314.112-.307.34.012.387.008.775,0,1.162s-.228.64-.53.63-.5-.257-.5-.627c-.006-.348-.02-.7,0-1.043.02-.308-.08-.427-.4-.475a3.409,3.409,0,0,1-2.363-1.359,2.282,2.282,0,0,1-.468-1.388.473.473,0,0,1,.439-.509.466.466,0,0,1,.543.4,2.1,2.1,0,0,0,2,1.843,4.323,4.323,0,0,0,1.979-.083,2.3,2.3,0,0,0,1.161-.744,1.467,1.467,0,0,0-.4-2.25,6.649,6.649,0,0,0-1.843-.665,12.256,12.256,0,0,1-2.137-.642,2.479,2.479,0,0,1-1.748-2.47,2.729,2.729,0,0,1,1.8-2.474,3.275,3.275,0,0,1,1.089-.291c.236-.023.365-.11.339-.373-.018-.187,0-.377,0-.566h0" transform="translate(-4.139 -2.001)" fill="#30d158" stroke="rgba(0,0,0,0)" stroke-width="1"/>
    </g>
  </g>
</svg>
