<svg xmlns="http://www.w3.org/2000/svg" width="109.616" height="34" viewBox="0 0 109.616 34">
  <g id="Group_28289" data-name="Group 28289" transform="translate(-1149 -2873.125)">
    <path id="Path_78801" data-name="Path 78801" d="M26.394,18.107c0-5.909,3.677-9.312,8.728-9.312,2.956,0,6.364.716,6.364,4.082a5.745,5.745,0,0,1-.552,2.579l-3.583.252-.835-2.365a3.128,3.128,0,0,0-1.634-.286c-1.564,0-3.443,1.074-3.443,4.406,0,2.507.974,4.544,4.1,4.544a12.2,12.2,0,0,0,5.739-1.5l1.178,3.506C41,25.478,38.113,26.446,34.5,26.446,29.28,26.453,26.394,23.552,26.394,18.107Z" transform="translate(1149.139 2873.323)" fill="#4f33fa"/>
    <path id="Path_78802" data-name="Path 78802" d="M45.114,13.661H43.022v-3.8h2.136v-4.6L50.4,4.5V9.861h4.91l-.011,3.8H50.4v6.318c0,1.791.551,2.329,1.947,2.329a8.4,8.4,0,0,0,2.5-.5l.8,3.408a9.64,9.64,0,0,1-5.355,1.433c-3.061,0-5.182-1.253-5.182-5.157Z" transform="translate(1149.234 2873.15)" fill="#4f33fa"/>
    <path id="Path_78803" data-name="Path 78803" d="M56.822,18.212c0-5.551,2.921-9.349,8.868-9.349,5.217,0,7.894,3.08,7.894,8.168,0,6.231-3.2,9.419-8.971,9.419C60.231,26.45,56.822,23.871,56.822,18.212ZM65.133,12.8c-2.022,0-3.059,1.577-3.059,4.766,0,2.829.66,5.05,3.094,5.05s3.165-1.791,3.165-4.979C68.334,14.774,67.5,12.8,65.133,12.8Z" transform="translate(1149.314 2873.324)" fill="#4f33fa"/>
    <path id="Path_78804" data-name="Path 78804" d="M75.807,21.9,75.786.86,81.229.148V4.52L81.239,22h2.528v3.9a7.8,7.8,0,0,1-3.406.757C77.058,26.655,75.807,25.4,75.807,21.9Z" transform="translate(1149.422 2872.977)" fill="#4f33fa"/>
    <path id="Path_78805" data-name="Path 78805" d="M87.05,14.57V9.6h5.235s-.018.738-.018,4.679V26.228H87.039C87.05,25.341,87.05,16.217,87.05,14.57ZM86.565,4.291c0-1.827,1.39-2.867,3.309-2.867a2.579,2.579,0,0,1,2.851,2.687c0,1.893-1.217,2.973-3.338,2.973a2.644,2.644,0,0,1-2.825-2.793Z" transform="translate(1149.487 2873.028)" fill="#4f33fa"/>
    <path id="Path_78806" data-name="Path 78806" d="M96.317,20.548a8.354,8.354,0,0,0,5.357,1.861c1.425,0,2.712-.394,2.712-1.253,0-1.217-2.642-1.861-4.033-2.257-2.3-.644-4.7-1.647-4.7-4.733,0-3.045,2.3-5.479,6.816-5.479a9.784,9.784,0,0,1,5.772,1.647l-.9,3.51a11.793,11.793,0,0,0-4.8-1.11c-1.462,0-2.3.358-2.3,1.217,0,2.757,8.832.322,8.832,6.7,0,3.69-2.921,5.869-7.233,5.869-2.747,0-5.53-.9-6.782-2.435Z" transform="translate(1149.536 2873.318)" fill="#4f33fa"/>
    <path id="Path_78807" data-name="Path 78807" d="M14.858,12.629A2.326,2.326,0,1,0,12.6,10.3,2.292,2.292,0,0,0,14.858,12.629Z" transform="translate(1149.06 2873.289)" fill="#4f33fa"/>
    <path id="Path_78808" data-name="Path 78808" d="M25.1,13.764C25.1,6.026,21.27,1.9,14.178,1.9S2.347,6.423,2.347,14.589a15.906,15.906,0,0,0,1.233,6.627,10.2,10.2,0,0,0-2.574,2.851A13.565,13.565,0,0,0,.195,25.7a2.238,2.238,0,0,0-.079,1.559,2.165,2.165,0,0,0,.954,1.213,2.068,2.068,0,0,0,1.769.176,2.113,2.113,0,0,0,.775-.491,2.193,2.193,0,0,0,.5-.78,6.2,6.2,0,0,1,.489-1.072c.862-1.363,1.6-1.668,2.325-1.183l.257.159c.993.666.241,2.389-.368,4.58-.809,2.77.86,3.883,2.344,4.2,1.265.271,2.206-2.38,2.743-4.582a19.758,19.758,0,0,0,.54-2.795c.252.011.5.019.761.019h.246c.7.03,1.2.439,1.5,2.035a6.377,6.377,0,0,1,.066,1.181,2.242,2.242,0,0,0,.185.917,2.183,2.183,0,0,0,.541.753,2.105,2.105,0,0,0,.8.45,2.063,2.063,0,0,0,.907.065,2.1,2.1,0,0,0,1.324-.758,2.217,2.217,0,0,0,.491-1.476,13.705,13.705,0,0,0-.164-1.827,11.954,11.954,0,0,0-.667-2.242C22.657,24.139,25.1,20.161,25.1,13.764Zm-11.34,8.353c-4.213,0-5.653-3.363-5.653-8.064,0-4.923,2.142-7.52,5.723-7.52s5.548,2.639,5.548,7.7C19.375,19.8,17.443,22.117,13.757,22.117Z" transform="translate(1148.988 2873.045)" fill="#4f33fa"/>
  </g>
</svg>
