<svg xmlns="http://www.w3.org/2000/svg" width="100.352" height="42.273" viewBox="0 0 100.352 42.273">
  <g id="Group_28287" data-name="Group 28287" transform="translate(-606.043 -3060.383)">
    <path id="path7" d="M40.012,27.779a25.4,25.4,0,0,1-6.367.736c-5.414,0-8.965-2.815-8.965-7.969,0-4.894,3.335-8.056,8.186-8.056a7.365,7.365,0,0,1,2.945.476v-7.1h4.2ZM35.811,16.6a6.329,6.329,0,0,0-2.6-.476,3.948,3.948,0,0,0-4.244,4.288c0,2.9,1.819,4.548,4.807,4.548a8.8,8.8,0,0,0,2.036-.173ZM74.532,27.779a25.505,25.505,0,0,1-6.41.736c-5.371,0-8.966-2.815-8.966-7.969,0-4.894,3.335-8.056,8.186-8.056a7.231,7.231,0,0,1,2.945.476v-7.1h4.245ZM70.287,16.6a6.112,6.112,0,0,0-2.555-.476,3.96,3.96,0,0,0-4.288,4.288c0,2.9,1.862,4.548,4.851,4.548a8.447,8.447,0,0,0,1.992-.173Zm-23.648,0a6.8,6.8,0,0,1,2.512-.39c2.6,0,4.374,1.473,4.374,4.115,0,3.118-1.992,4.548-4.634,4.591v3.595h.217c5.457,0,8.706-2.989,8.706-8.316,0-4.851-3.465-7.709-8.576-7.709a19.05,19.05,0,0,0-6.843,1.3V34.362h4.245Zm0,0" transform="translate(631.863 3066.516)" fill="#fff" fill-rule="evenodd"/>
    <path id="path9" d="M17.611,4.487h0Z" transform="translate(624.468 3065.079)" fill="#dc0032" fill-rule="evenodd"/>
    <path id="path11" d="M17.1,4.212l.693.78.39-.217Z" transform="translate(623.937 3064.791)" fill="#dc0032" fill-rule="evenodd"/>
    <path id="path13" d="M16.595,3.937,17.937,5.5l.476-.26-.52-.606-1.3-.693Z" transform="translate(623.406 3064.503)" fill="#dc0032" fill-rule="evenodd"/>
    <path id="path15" d="M16.065,3.662,18.1,6l.476-.26L17.408,4.355l-1.343-.693Z" transform="translate(622.85 3064.215)" fill="#dc0032" fill-rule="evenodd"/>
    <path id="path17" d="M15.557,3.387l2.685,3.118.476-.26L16.857,4.08l-1.3-.693Zm5.154,5.5-.3.173.3.346Z" transform="translate(622.319 3063.927)" fill="#dc0032" fill-rule="evenodd"/>
    <path id="path19" d="M15.049,3.111l3.335,3.9.476-.26L16.349,3.8l-1.3-.693Zm6.02,6.15-.476.3.65.78V9.522l-.173-.26Z" transform="translate(621.788 3063.638)" fill="#dc0032" fill-rule="evenodd"/>
    <path id="path21" d="M14.52,2.836l4.028,4.678.52-.26L15.863,3.529,14.52,2.836Zm6.713,6.93-.476.3L21.8,11.282v-.823l-.563-.693Z" transform="translate(621.234 3063.351)" fill="#dc0032" fill-rule="evenodd"/>
    <path id="path23" d="M14.012,2.561l4.721,5.457.476-.26-3.9-4.5-1.3-.693Zm7.363,7.753-.476.26,1.429,1.689V11.44l-.953-1.126Z" transform="translate(620.704 3063.063)" fill="#dc0032" fill-rule="evenodd"/>
    <path id="path25" d="M13.5,2.286l5.371,6.237.476-.26L14.8,2.979l-1.3-.693Zm8.013,8.532-.476.26L22.86,13.2v-.823l-1.343-1.559Z" transform="translate(620.173 3062.774)" fill="#dc0032" fill-rule="evenodd"/>
    <path id="path27" d="M12.975,2.011l6.064,7.016.476-.26L14.318,2.7l-1.343-.693Zm8.706,9.312-.476.26,2.209,2.555v-.823l-1.732-1.992Z" transform="translate(619.617 3062.487)" fill="#dc0032" fill-rule="evenodd"/>
    <path id="path29" d="M12.467,1.736,19.18,9.575l.476-.3-5.89-6.843-1.3-.693Zm9.355,10.092-.476.26,2.6,3.032V14.3l-2.122-2.469Z" transform="translate(619.086 3062.198)" fill="#dc0032" fill-rule="evenodd"/>
    <path id="path31" d="M11.938,1.46l7.406,8.619.476-.3-6.54-7.623ZM22.03,12.332l-.52.26L24.5,16.056v-.823l-2.469-2.9Z" transform="translate(618.532 3061.91)" fill="#dc0032" fill-rule="evenodd"/>
    <path id="path33" d="M11.43,1.185l8.056,9.4.52-.3-7.233-8.4ZM22.171,12.836l-.476.26,3.335,3.941v-.866l-2.859-3.335Z" transform="translate(618.001 3061.622)" fill="#dc0032" fill-rule="evenodd"/>
    <path id="path35" d="M10.922.91l8.749,10.178.476-.3L12.221,1.6,10.922.91Zm11.391,12.43-.476.26,3.725,4.374v-.823l-3.248-3.811Z" transform="translate(617.471 3061.334)" fill="#dc0032" fill-rule="evenodd"/>
    <path id="path37" d="M10.393.614l9.442,11,.476-.3L11.735,1.35ZM22.477,13.867l-.476.26,4.115,4.808v-.823l-3.638-4.245Z" transform="translate(616.917 3061.024)" fill="#dc0032" fill-rule="evenodd"/>
    <path id="path39" d="M9.885.339,19.976,12.119l.476-.26L11.227,1.075ZM22.618,14.372l-.476.26,4.5,5.284v-.866l-4.028-4.678Z" transform="translate(616.383 3060.739)" fill="#dc0032" fill-rule="evenodd"/>
    <path id="path41" d="M9.377.085,20.118,12.6l.476-.26L10.676.778,9.377.085ZM22.76,14.854l-.476.26,4.894,5.717v-.823L22.76,14.854Z" transform="translate(615.853 3060.47)" fill="#dc0032" fill-rule="evenodd"/>
    <path id="path43" d="M9.038,0h0L20.083,12.907l.476-.26L9.991.3l-.26-.13A1.271,1.271,0,0,0,9.038,0ZM22.725,15.159l-.476.26,5.284,6.15v-.823l-4.808-5.587Z" transform="translate(615.5 3060.383)" fill="#dc0032" fill-rule="evenodd"/>
    <path id="path45" d="M9.3,0a2.174,2.174,0,0,0-.52.087L19.958,13.123l.52-.26L9.434,0Zm13.34,15.376-.476.26,5.63,6.627V21.4l-5.154-6.02Z" transform="translate(615.234 3060.383)" fill="#dc0032" fill-rule="evenodd"/>
    <path id="path47" d="M9.113.021a1.442,1.442,0,0,0-.26.13l-.26.13L19.811,13.318l.476-.26L9.113.021ZM22.453,15.57l-.476.3L28,22.89v-.823l-5.544-6.5Z" transform="translate(615.034 3060.405)" fill="#dc0032" fill-rule="evenodd"/>
    <path id="path49" d="M8.88.106,8.4.366l11.218,13.08.476-.26L8.88.106ZM22.263,15.7l-.476.3,6.41,7.45v-.823L22.263,15.7Z" transform="translate(614.833 3060.493)" fill="#dc0032" fill-rule="evenodd"/>
    <path id="path51" d="M8.689.212l-.476.26L19.43,13.552l.476-.26L8.689.212ZM22.072,15.8l-.476.3,6.8,7.926V23.21L22.072,15.8Z" transform="translate(614.635 3060.603)" fill="#dc0032" fill-rule="evenodd"/>
    <path id="path53" d="M8.5.317l-.476.26L19.24,13.657l.476-.26L8.5.317ZM21.882,15.91l-.476.3,7.19,8.359v-.823L21.882,15.91Z" transform="translate(614.435 3060.716)" fill="#dc0032" fill-rule="evenodd"/>
    <path id="path55" d="M8.308.423l-.476.26,11.218,13.08.476-.26L8.308.423ZM21.691,16.015l-.476.3,7.58,8.792v-.823l-7.1-8.273Z" transform="translate(614.237 3060.826)" fill="#dc0032" fill-rule="evenodd"/>
    <path id="path57" d="M8.118.529l-.476.26,11.218,13.08.476-.26L8.118.529ZM21.544,16.121l-.476.3,7.926,9.269V24.87l-7.45-8.749Z" transform="translate(614.037 3060.936)" fill="#dc0032" fill-rule="evenodd"/>
    <path id="path59" d="M7.927.614l-.476.3L18.712,14l.476-.26L7.927.614ZM21.354,16.293l-.476.26,8.316,9.7v-.823l-7.839-9.139Z" transform="translate(613.839 3061.024)" fill="#dc0032" fill-rule="evenodd"/>
    <path id="path61" d="M7.737.72,7.26.98,18.521,14.1l.476-.26L7.737.72ZM21.163,16.4l-.476.26,8.706,10.178V25.97L21.163,16.4Z" transform="translate(613.639 3061.137)" fill="#dc0032" fill-rule="evenodd"/>
    <path id="path63" d="M7.546.825l-.476.26L18.331,14.252l.476-.3ZM20.973,16.5l-.476.26,9.1,10.611v-.823L20.973,16.5Z" transform="translate(613.438 3061.247)" fill="#dc0032" fill-rule="evenodd"/>
    <path id="path65" d="M7.356.931l-.476.26L18.14,14.358l.476-.3ZM20.782,16.61l-.476.26,9.485,11.044v-.823L20.782,16.61Z" transform="translate(613.241 3061.357)" fill="#dc0032" fill-rule="evenodd"/>
    <path id="path67" d="M7.165,1.037l-.476.26L17.95,14.464l.476-.3L7.165,1.037ZM20.592,16.716l-.476.26L29.99,28.5V27.63l-9.4-10.914Z" transform="translate(613.04 3061.467)" fill="#dc0032" fill-rule="evenodd"/>
    <path id="path69" d="M6.975,1.143,6.5,1.4,17.759,14.57l.476-.3L6.975,1.143Zm13.47,15.679-.476.26L30.19,29.036v-.823L20.444,16.822Z" transform="translate(612.842 3061.58)" fill="#dc0032" fill-rule="evenodd"/>
    <path id="path71" d="M6.806,1.228l-.52.26L17.634,14.7l.476-.3L6.806,1.228ZM20.276,16.95l-.476.26L30.411,29.6v-.823L20.276,16.95Z" transform="translate(612.619 3061.667)" fill="#dc0032" fill-rule="evenodd"/>
    <path id="path73" d="M6.616,1.333l-.52.26L17.487,14.847a.338.338,0,0,1,.173-.173l.26-.173L6.616,1.333Zm13.47,15.722-.476.26L30.524,30.049a1.264,1.264,0,0,0,.087-.39v-.346L20.086,17.056Z" transform="translate(612.422 3061.778)" fill="#dc0032" fill-rule="evenodd"/>
    <path id="path75" d="M6.425,1.439l-.52.26L17.556,15.256v-.173a.914.914,0,0,1,.173-.433ZM19.9,17.161l-.346.217c-.043,0-.087.043-.13.043l11.088,12.95a1.464,1.464,0,0,0,.26-.52L19.9,17.161Z" transform="translate(612.221 3061.888)" fill="#dc0032" fill-rule="evenodd"/>
    <path id="path77" d="M6.235,1.545l-.52.26L17.756,15.838v-.866L6.235,1.545ZM18.882,17.094,30.4,30.564a3.307,3.307,0,0,0,.39-.39L19.7,17.267a.74.74,0,0,1-.606,0l-.217-.173Z" transform="translate(612.024 3062.001)" fill="#dc0032" fill-rule="evenodd"/>
    <path id="path79" d="M6.044,1.651l-.52.26L30.212,30.67l.346-.173.13-.13L19.341,17.157H19.3l-1-.606c-.087-.043-.13-.13-.217-.217h0a1.573,1.573,0,0,1-.13-.3v-.476L6.044,1.651Z" transform="translate(611.823 3062.111)" fill="#dc0032" fill-rule="evenodd"/>
    <path id="path81" d="M5.854,1.757l-.52.26L30.022,30.776l.476-.26Z" transform="translate(611.623 3062.221)" fill="#dc0032" fill-rule="evenodd"/>
    <path id="path83" d="M5.663,1.841l-.52.26L29.874,30.9l.477-.26Z" transform="translate(611.425 3062.309)" fill="#dc0032" fill-rule="evenodd"/>
    <path id="path85" d="M5.473,1.947l-.52.26,24.731,28.8.476-.26Z" transform="translate(611.224 3062.421)" fill="#dc0032" fill-rule="evenodd"/>
    <path id="path87" d="M5.282,2.053l-.52.26,24.731,28.8.476-.26Z" transform="translate(611.027 3062.532)" fill="#dc0032" fill-rule="evenodd"/>
    <path id="path89" d="M5.048,2.159l-.476.26L29.3,31.264l.476-.3Z" transform="translate(610.826 3062.642)" fill="#dc0032" fill-rule="evenodd"/>
    <path id="path91" d="M4.858,2.265l-.476.26L29.112,31.37l.476-.3Z" transform="translate(610.626 3062.752)" fill="#dc0032" fill-rule="evenodd"/>
    <path id="path93" d="M4.667,2.371l-.476.26L28.965,31.476l.477-.3Z" transform="translate(610.428 3062.862)" fill="#dc0032" fill-rule="evenodd"/>
    <path id="path95" d="M4.477,2.455,4,2.715,28.775,31.6l.477-.3Z" transform="translate(610.228 3062.952)" fill="#dc0032" fill-rule="evenodd"/>
    <path id="path97" d="M4.286,2.561l-.476.26L28.584,31.71l.477-.26Z" transform="translate(610.03 3063.063)" fill="#dc0032" fill-rule="evenodd"/>
    <path id="path99" d="M4.1,2.667l-.476.26L15.66,16.96l.39.26a.642.642,0,0,1,.346.52v.043l12,14.033.476-.26Z" transform="translate(609.83 3063.173)" fill="#dc0032" fill-rule="evenodd"/>
    <path id="path101" d="M3.905,2.773l-.476.26,11.3,13.21,1.429.78ZM16.552,17.5c0,.043.043.087.043.13v.736L28.2,31.921l.476-.26L16.552,17.5Z" transform="translate(609.629 3063.283)" fill="#dc0032" fill-rule="evenodd"/>
    <path id="path103" d="M3.715,2.879l-.476.26L13.807,15.482l1.429.78L3.715,2.879Zm13.08,15.2V18.9L28.056,32.027l.476-.26L16.795,18.081Z" transform="translate(609.431 3063.396)" fill="#dc0032" fill-rule="evenodd"/>
    <path id="path105" d="M3.524,2.984l-.476.26,9.875,11.478,1.386.78L3.524,2.984ZM16.994,18.62v.866L27.866,32.133l.476-.26L16.994,18.62Z" transform="translate(609.231 3063.506)" fill="#dc0032" fill-rule="evenodd"/>
    <path id="path107" d="M3.334,3.069l-.476.26L12,13.984l1.386.823Zm13.86,16.155v.823L27.675,32.261l.476-.26L17.194,19.224Z" transform="translate(609.033 3063.593)" fill="#dc0032" fill-rule="evenodd"/>
    <path id="path109" d="M3.143,3.175l-.476.26,8.4,9.788,1.386.823L3.143,3.175ZM17.393,19.763v.823L27.484,32.367l.476-.26L17.393,19.763Z" transform="translate(608.833 3063.704)" fill="#dc0032" fill-rule="evenodd"/>
    <path id="path111" d="M2.953,3.281l-.476.26,7.666,8.965,1.386.78ZM17.592,20.3v.866l9.7,11.348.476-.3L17.592,20.3Z" transform="translate(608.635 3063.816)" fill="#dc0032" fill-rule="evenodd"/>
    <path id="path113" d="M2.762,3.387l-.476.26,6.93,8.1,1.386.78L2.762,3.387Zm15.029,17.5v.823l9.355,10.914.476-.3L17.791,20.885Z" transform="translate(608.435 3063.927)" fill="#dc0032" fill-rule="evenodd"/>
    <path id="path115" d="M2.572,3.492l-.476.26,6.194,7.233,1.429.78L2.572,3.492ZM17.991,21.423v.823l8.965,10.481.476-.3-9.442-11Z" transform="translate(608.234 3064.037)" fill="#dc0032" fill-rule="evenodd"/>
    <path id="path117" d="M2.381,3.6l-.476.26,5.457,6.367,1.429.823L2.381,3.6ZM13.729,17.631l1.126,1.3v-.476a.356.356,0,0,0-.173-.26l-.953-.563Zm4.461,4.331v.866l8.576,10,.476-.3L18.19,21.962Z" transform="translate(608.036 3064.147)" fill="#db0032" fill-rule="evenodd"/>
    <path id="path119" d="M2.191,3.683l-.476.26L6.435,9.487l1.429.823L2.191,3.683ZM12.8,16.893l2.252,2.6v-.823l-.823-.953L12.8,16.893Zm5.587,5.674v.823l8.186,9.572.476-.26L18.389,22.567Z" transform="translate(607.836 3064.237)" fill="#dc0032" fill-rule="evenodd"/>
    <path id="path121" d="M2,3.789l-.476.26L5.552,8.77l1.386.78L2,3.789Zm9.875,12.387,3.378,3.9v-.823l-1.949-2.3-1.429-.78Zm6.713,6.93v.823l7.8,9.139.476-.26-8.273-9.7Z" transform="translate(607.638 3064.347)" fill="#dc0032" fill-rule="evenodd"/>
    <path id="path123" d="M1.81,3.895l-.476.26L4.625,8.009l1.386.78L1.81,3.895Zm9.182,11.521,4.461,5.2V19.79L12.378,16.2l-1.386-.78Zm7.8,8.272v.823l7.45,8.662.476-.26-7.926-9.225Z" transform="translate(607.438 3064.458)" fill="#dc0032" fill-rule="evenodd"/>
    <path id="path125" d="M1.619,4l-.476.26L3.7,7.249l1.386.78L1.619,4Zm8.446,10.655,5.587,6.5v-.823l-4.2-4.851Zm8.922,9.572v.823l7.06,8.229.476-.26-7.536-8.792Z" transform="translate(607.24 3064.568)" fill="#dc0032" fill-rule="evenodd"/>
    <path id="path127" d="M1.429,4.106l-.476.26L2.772,6.488l1.386.823Zm7.709,9.788,6.713,7.839v-.823l-5.327-6.194-1.386-.823ZM19.187,24.766v.823l6.67,7.8.476-.26-7.146-8.359Z" transform="translate(607.04 3064.68)" fill="#dc0032" fill-rule="evenodd"/>
    <path id="path129" d="M1.238,4.212l-.476.26L1.845,5.728l1.429.823L1.238,4.212Zm6.973,8.965,7.839,9.1V21.45L9.6,13.957l-1.386-.78ZM19.386,25.348v.823l6.28,7.32.476-.26-6.757-7.883Z" transform="translate(606.839 3064.791)" fill="#dc0032" fill-rule="evenodd"/>
    <path id="path131" d="M1.07,4.3l-.52.26.39.476,1.429.78Zm6.237,8.143,8.965,10.438v-.866L8.736,13.219l-1.429-.78Zm12.3,13.47v.823l5.89,6.93.476-.3-6.367-7.45Z" transform="translate(606.619 3064.878)" fill="#dc0032" fill-rule="evenodd"/>
    <path id="path133" d="M.769,4.4l-.3.173.866.476Zm5.5,7.276L16.361,23.416v-.823L7.7,12.5l-1.429-.823ZM19.7,26.448v.866l5.544,6.453.476-.3L19.7,26.448Z" transform="translate(606.531 3064.988)" fill="#dc0032" fill-rule="evenodd"/>
    <path id="path135" d="M2.773,7.641,13.947,20.678v-.823L4.159,8.464ZM17.282,23.753v.823l5.154,6.02.476-.3-5.631-6.54Z" transform="translate(608.943 3068.377)" fill="#dc0032" fill-rule="evenodd"/>
    <path id="path137" d="M2.222,7.345l12.3,14.336v-.866L3.608,8.124l-1.386-.78ZM17.858,24.713v.823l4.764,5.587.476-.3-5.241-6.107Z" transform="translate(608.367 3068.066)" fill="#dc0032" fill-rule="evenodd"/>
    <path id="path139" d="M1.672,7.027,15.1,22.663V21.84L3.058,7.807l-1.386-.78ZM18.434,25.695v.866l4.374,5.111.476-.26-4.851-5.717Z" transform="translate(607.794 3067.736)" fill="#dc0032" fill-rule="evenodd"/>
    <path id="path141" d="M1.122,6.71,15.675,23.645v-.823L2.508,7.533ZM19.009,26.72v.823l3.985,4.678.476-.26L19.009,26.72Z" transform="translate(607.218 3067.403)" fill="#db0032" fill-rule="evenodd"/>
    <path id="path143" d="M.571,6.392,16.25,24.67v-.823L1.957,7.215ZM19.585,27.7v.823l3.638,4.245.476-.26L19.585,27.7Z" transform="translate(606.642 3067.069)" fill="#da0032" fill-rule="evenodd"/>
    <path id="path145" d="M.021,6.1l16.8,19.534v-.823L1.45,6.876.021,6.1Zm20.14,22.565v.866L23.409,33.3l.476-.26-3.725-4.374Z" transform="translate(606.066 3066.761)" fill="#d90032" fill-rule="evenodd"/>
    <path id="path147" d="M0,6.075v.606L16.848,26.3v-.823L.346,6.248Zm20.183,23.3v.52a.331.331,0,0,1-.087.217l2.945,3.422.476-.26-3.335-3.9Z" transform="translate(606.043 3066.739)" fill="#d80032" fill-rule="evenodd"/>
    <path id="path149" d="M0,6.286v.866l16.848,19.62V25.95ZM20.14,29.8a.574.574,0,0,1-.3.39l-.043.043,2.859,3.292.476-.26L20.14,29.8Z" transform="translate(606.043 3066.959)" fill="#d70032" fill-rule="evenodd"/>
    <path id="path151" d="M0,6.625v.823l16.848,19.62v-.823ZM19.88,29.8c0,.043,0,.043-.043.043l-.433.26,2.859,3.292.476-.26L19.88,29.8Z" transform="translate(606.043 3067.315)" fill="#d60032" fill-rule="evenodd"/>
    <path id="path153" d="M0,6.943v.823l16.848,19.62v-.823ZM19.533,29.681l-.52.3,2.9,3.335.477-.3Z" transform="translate(606.043 3067.646)" fill="#d50032" fill-rule="evenodd"/>
    <path id="path155" d="M0,7.281V8.1l16.848,19.62V26.9ZM19.144,29.543l-.3.173a.549.549,0,0,1-.26.043l2.945,3.422.476-.3-2.859-3.335Z" transform="translate(606.043 3068.001)" fill="#d40032" fill-rule="evenodd"/>
    <path id="path157" d="M0,7.6v.823l16.848,19.62v-.823ZM17.8,29.211l3.335,3.855.477-.3-2.9-3.335c-.043,0-.13.043-.173.043h-.043a.626.626,0,0,1-.3-.087l-.39-.173Z" transform="translate(606.043 3068.332)" fill="#d30032" fill-rule="evenodd"/>
    <path id="path159" d="M0,7.916v.866L20.746,32.95l.476-.3L18.1,29.009l-.953-.52a.6.6,0,0,1-.3-.52v-.433Z" transform="translate(606.043 3068.665)" fill="#d20032" fill-rule="evenodd"/>
    <path id="path161" d="M0,8.255v.823L20.356,32.813l.476-.26Z" transform="translate(606.043 3069.021)" fill="#d10032" fill-rule="evenodd"/>
    <path id="path163" d="M0,8.572V9.4L19.967,32.7l.476-.26Z" transform="translate(606.043 3069.351)" fill="#d00032" fill-rule="evenodd"/>
    <path id="path165" d="M0,8.89v.866L19.62,32.581l.476-.26Z" transform="translate(606.043 3069.684)" fill="#cf0032" fill-rule="evenodd"/>
    <path id="path167" d="M0,9.229v.823L19.23,32.444l.476-.26Z" transform="translate(606.043 3070.037)" fill="#ce0032" fill-rule="evenodd"/>
    <path id="path169" d="M0,9.546v.823L18.8,32.285l.39-.13.13-.087Z" transform="translate(606.043 3070.37)" fill="#cd0032" fill-rule="evenodd"/>
    <path id="path171" d="M0,9.864v.866L18.234,31.952h.26a1.2,1.2,0,0,0,.39-.043Z" transform="translate(606.043 3070.703)" fill="#cc0032" fill-rule="evenodd"/>
    <path id="path173" d="M0,10.2v.823l17.238,20.1.606.346a1.029,1.029,0,0,0,.52.13Z" transform="translate(606.043 3071.056)" fill="#cb0032" fill-rule="evenodd"/>
    <path id="path175" d="M0,10.52v.823l16.112,18.8,1.429.823Z" transform="translate(606.043 3071.39)" fill="#ca0032" fill-rule="evenodd"/>
    <path id="path177" d="M0,10.858v.823L14.986,29.136l1.429.823Z" transform="translate(606.043 3071.743)" fill="#c90032" fill-rule="evenodd"/>
    <path id="path179" d="M0,11.176V12L13.86,28.154l1.386.823Z" transform="translate(606.043 3072.076)" fill="#c80033" fill-rule="evenodd"/>
    <path id="path181" d="M0,11.493v.823L12.734,27.172,14.12,28Z" transform="translate(606.043 3072.409)" fill="#c70033" fill-rule="evenodd"/>
    <path id="path183" d="M0,11.832v.823l11.564,13.47,1.429.823Z" transform="translate(606.043 3072.762)" fill="#c60033" fill-rule="evenodd"/>
    <path id="path185" d="M0,12.15v.823l10.438,12.17,1.429.823Z" transform="translate(606.043 3073.095)" fill="#c50033" fill-rule="evenodd"/>
    <path id="path187" d="M0,12.467v.823L9.312,24.161l1.429.823L0,12.467Z" transform="translate(606.043 3073.426)" fill="#c40033" fill-rule="evenodd"/>
    <path id="path189" d="M0,12.806v.823l8.186,9.529,1.429.823Z" transform="translate(606.043 3073.781)" fill="#c30033" fill-rule="evenodd"/>
    <path id="path191" d="M0,13.123v.823l7.06,8.229L8.489,23Z" transform="translate(606.043 3074.112)" fill="#c20033" fill-rule="evenodd"/>
    <path id="path193" d="M0,13.441v.866l5.934,6.887,1.386.823Z" transform="translate(606.043 3074.445)" fill="#c10033" fill-rule="evenodd"/>
    <path id="path195" d="M0,13.779V14.6L4.764,20.19l1.429.823Z" transform="translate(606.043 3074.798)" fill="#c00033" fill-rule="evenodd"/>
    <path id="path197" d="M0,14.1v.823l3.638,4.288,1.429.78Z" transform="translate(606.043 3075.131)" fill="#bf0033" fill-rule="evenodd"/>
    <path id="path199" d="M0,14.414v.866l2.512,2.9,1.429.823Z" transform="translate(606.043 3075.464)" fill="#be0033" fill-rule="evenodd"/>
    <path id="path201" d="M0,14.753v.823l1.386,1.6L2.815,18Z" transform="translate(606.043 3075.817)" fill="#bd0033" fill-rule="evenodd"/>
    <path id="path203" d="M0,15.071v.217a1.538,1.538,0,0,0,.65,1.169l1.039.563L0,15.071Z" transform="translate(606.043 3076.15)" fill="#bc0033" fill-rule="evenodd"/>
    <path id="path205" d="M.127,15.557c.087.087.13.173.217.217Z" transform="translate(606.176 3076.659)" fill="#b03" fill-rule="evenodd"/>
  </g>
</svg>
