<svg xmlns="http://www.w3.org/2000/svg" xmlns:xlink="http://www.w3.org/1999/xlink" width="115.755" height="21.246" viewBox="0 0 115.755 21.246">
  <defs>
    <clipPath id="clip-path">
      <rect id="Rectangle_6909" data-name="Rectangle 6909" width="115.755" height="21.246" transform="translate(0.087 -0.246)" fill="#fff"/>
    </clipPath>
  </defs>
  <g id="svgexport-1" transform="translate(-0.087 0.246)" clip-path="url(#clip-path)">
    <path id="Path_78855" data-name="Path 78855" d="M35.2,20.263H30.008V10.409a5.2,5.2,0,0,0-.382-1.972,5.129,5.129,0,0,0-1.1-1.671,5.037,5.037,0,0,0-1.647-1.112,4.973,4.973,0,0,0-1.942-.383,4.8,4.8,0,0,0-4.343,2.453V20.263H15.41V10.409a5,5,0,0,0-.383-1.971A4.931,4.931,0,0,0,13.9,6.786a4.909,4.909,0,0,0-1.639-1.134,4.843,4.843,0,0,0-1.947-.383,4.917,4.917,0,0,0-1.962.374A4.982,4.982,0,0,0,6.693,6.768a4.9,4.9,0,0,0-1.132,1.66,4.965,4.965,0,0,0-.376,1.982v9.854H0V10.4A10.078,10.078,0,0,1,3,3.021,9.9,9.9,0,0,1,10.3,0a9.881,9.881,0,0,1,7.3,3.086A9.881,9.881,0,0,1,24.9,0a9.9,9.9,0,0,1,7.3,3.021,10.1,10.1,0,0,1,3,7.383Z" transform="translate(0.023 -0.066)" fill="#fff"/>
    <path id="Path_78856" data-name="Path 78856" d="M76.732,10.406a10.167,10.167,0,0,1-2.979,7.4,10.315,10.315,0,0,1-14.6.018,10.151,10.151,0,0,1-2.975-7.417,10.087,10.087,0,0,1,2.995-7.385,10.311,10.311,0,0,1,14.584,0A10.113,10.113,0,0,1,76.732,10.406Zm-5.186,0a5.234,5.234,0,0,0-1.5-3.621,5.07,5.07,0,0,0-3.569-1.514,4.881,4.881,0,0,0-1.957.372,5.337,5.337,0,0,0-2.779,2.784,4.965,4.965,0,0,0-.373,1.978,5.237,5.237,0,0,0,.861,2.877,5.114,5.114,0,0,0,2.289,1.906,5.021,5.021,0,0,0,2.945.292,5.072,5.072,0,0,0,2.608-1.42,5.019,5.019,0,0,0,1.108-1.673A5.084,5.084,0,0,0,71.546,10.406Z" transform="translate(-18.306 -0.066)" fill="#fff"/>
    <path id="Path_78857" data-name="Path 78857" d="M106.121,0,97.976,15.226h6.039V20.34H89.254L97.594,5h-6.92V0Z" transform="translate(-29.098 -0.066)" fill="#fff"/>
    <path id="Path_78858" data-name="Path 78858" d="M140.759,20.263h-5.515l-1.08-3.048a10.215,10.215,0,0,1-15.122.626,10.234,10.234,0,0,1-2.995-7.379,10.457,10.457,0,0,1,1.845-5.993A10.5,10.5,0,0,1,126.343,0a9.861,9.861,0,0,1,5.9,1.893,10.268,10.268,0,0,1,3.746,5.017Zm-9.337-9.819a5.079,5.079,0,0,0-5.108-5.174,4.691,4.691,0,0,0-4.149,2.193,5.231,5.231,0,0,0-.923,2.979,4.873,4.873,0,0,0,2.19,4.232,5.074,5.074,0,0,0,7.991-4.23Z" transform="translate(-37.84 -0.066)" fill="#fff"/>
    <path id="Path_78859" data-name="Path 78859" d="M167.014,5.261a4.894,4.894,0,0,0-1.957.375,5.325,5.325,0,0,0-2.777,2.789,4.981,4.981,0,0,0-.374,1.98v9.859h-5.188V10.4a10.08,10.08,0,0,1,3-7.383A9.9,9.9,0,0,1,167.014,0Z" transform="translate(-51.11 -0.066)" fill="#fff"/>
  </g>
</svg>
