<svg xmlns="http://www.w3.org/2000/svg" width="152.881" height="72.516" viewBox="0 0 152.881 72.516">
  <g id="Group_28284" data-name="Group 28284" transform="translate(-1014.001 -3057)">
    <g id="Group_28281" data-name="Group 28281" transform="translate(1014.001 3057)">
      <path id="Path_78809" data-name="Path 78809" d="M87.449,30.765A5.532,5.532,0,0,0,85.478,27.1a7,7,0,0,0-3.448-1.249,42.086,42.086,0,0,0-5,.042c-.144.107-.123.194-.016.347s.233-.115.491.409a2.339,2.339,0,0,1,.244,1.007l.092,8.322s.038,1.172-.243,1.433-.545.342-.543.5c0,.249.346.224.346.224l5.073-.069a7.117,7.117,0,0,0,2.418-.8,5.209,5.209,0,0,0,2-2.006A7.429,7.429,0,0,0,87.449,30.765Zm-4.073,5.346a4.406,4.406,0,0,1-3.152.262c-.42-.23-.4-.475-.4-.475l-.1-8.234a3.378,3.378,0,0,1,1.373-.212,4.429,4.429,0,0,1,2.748.753,4.153,4.153,0,0,1,1.665,3.526C85.559,34.5,84.54,35.586,83.376,36.111Z" transform="translate(-7.857 -2.636)" fill="#fff"/>
      <path id="Path_78810" data-name="Path 78810" d="M49.725,39.243c-.1-.1-.186-.011-.512.05-.479.088-1.589-.561-1.952-.732s-1.4-.769-1.4-.769a7.058,7.058,0,0,0,2.125-2.12,7.353,7.353,0,0,0,.891-3.544A6.353,6.353,0,0,0,45.652,26.3a7.483,7.483,0,0,0-6.294.178A6.126,6.126,0,0,0,36.4,31.973a6.245,6.245,0,0,0,3.8,6.145,7.315,7.315,0,0,0,3.429.365s2.43,1.426,2.834,1.593a4.777,4.777,0,0,0,1.565.6c.666-.029,1.64-1.1,1.64-1.1S49.831,39.348,49.725,39.243Zm-6.789-2.377a4.069,4.069,0,0,1-3.693-1.835,5.777,5.777,0,0,1,.419-6.385,3.478,3.478,0,0,1,2.792-1.3c2.827,0,4.032,1.811,4.317,3.9C47.142,33.983,45.811,36.743,42.936,36.867Z" transform="translate(-3.717 -2.624)" fill="#fff"/>
      <path id="Path_78811" data-name="Path 78811" d="M23.7,38.249h3.1a.171.171,0,0,0,.169-.172.165.165,0,0,0-.007-.048c-.028-.206-.41.013-.679-.623a3.321,3.321,0,0,1-.207-.9l-.031-6.47,7.823,8.582s.242.142.324.055a.44.44,0,0,0,.085-.262L34.25,27.667a3,3,0,0,1,.2-.985c.164-.313.517-.275.538-.47s-.1-.174-.1-.174l-3.3,0s-.124.019-.13.189c-.011.241.4,0,.615.339a3.4,3.4,0,0,1,.314.765l.084,6.953-7.919-8.745a.276.276,0,0,0-.236-.066c-.087.013-.15.2-.15.2l.1,11.087a1.633,1.633,0,0,1-.259.852c-.213.28-.42.291-.409.49A.145.145,0,0,0,23.7,38.249Z" transform="translate(-2.414 -2.6)" fill="#fff"/>
      <path id="Path_78812" data-name="Path 78812" d="M50.384,26.072l3.3-.011a.112.112,0,0,1,.138.08.157.157,0,0,1,0,.029c.008.2-.226.231-.463.471s-.281,1.257-.281,1.257l.065,6.365a2.856,2.856,0,0,0,.347,1.412,2.8,2.8,0,0,0,4.555.006,3.393,3.393,0,0,0,.344-1.494c.088-1.2-.065-6.812-.065-6.812s-.089-.752-.356-.866c-.342-.152-.438-.3-.376-.429a.186.186,0,0,1,.224-.118l3.17.009a.177.177,0,0,1,.119.218.005.005,0,0,1,0,0c-.063.225-.334.136-.507.51a3.668,3.668,0,0,0-.224,1l-.012,6.606a4.217,4.217,0,0,1-.656,2.382,4.413,4.413,0,0,1-3.727,1.843,4.8,4.8,0,0,1-3.879-1.5,3.627,3.627,0,0,1-.937-2.308l-.119-6.8a3.711,3.711,0,0,0-.244-1.154c-.155-.306-.529-.3-.563-.52a.147.147,0,0,1,.114-.172C50.36,26.073,50.372,26.071,50.384,26.072Z" transform="translate(-5.131 -2.65)" fill="#fff"/>
      <path id="Path_78813" data-name="Path 78813" d="M62.98,25.966s-.26.087-.091.262.483.159.59.618.155.841.155.841l.031,8.748a3.417,3.417,0,0,1-.223,1.1c-.171.3-.55.207-.515.429s.3.234.3.234l6.893-.041a8.152,8.152,0,0,0,.154-.943c.12-.832.26-1.59-.016-1.554-.341.046-.145.306-.6.591a1.528,1.528,0,0,1-.893.259l-2.358.047a1.013,1.013,0,0,1-.564-.191c-.135-.118-.131-.616-.131-.616l-.018-3.188s1.877-.035,2.513.015a1.577,1.577,0,0,1,1.1.347c.163.154.242.468.412.457.119-.01.169-.274.169-.274l-.019-2.9s-.025-.236-.2-.17-.316.363-.465.537a1.262,1.262,0,0,1-.647.3l-2.878.057s-.057-2.452-.04-3.21c0-.139.226-.183.226-.183l2.566,0s.745-.018.927.148c.247.226.358.646.648.65.189,0,.18-.3.18-.3l-.022-1.794s.018-.224-.1-.286a1.817,1.817,0,0,0-.535-.048Z" transform="translate(-6.418 -2.647)" fill="#fff"/>
      <path id="Path_78814" data-name="Path 78814" d="M105.847,31.382l.012,4.506a3.1,3.1,0,0,0,.248,1.083c.271.547.58.4.668.578s0,.283-.195.328-3.555.012-3.555.012-.286-.008-.249-.251c.037-.224.331-.128.615-.558a2.457,2.457,0,0,0,.314-1.225l-.044-10.091a2.375,2.375,0,0,0-.3-1.2c-.35-.489-.6-.259-.624-.581-.017-.217.356-.215.356-.215l7.314.019s.413-.028.475.067a.818.818,0,0,1,.063.371l0,2.011a.186.186,0,0,1-.154.211.21.21,0,0,1-.063,0c-.291-.042-.26-.576-.775-.766a4.351,4.351,0,0,0-1.2-.144l-2.931-.01v4.032l2.862.024a7.277,7.277,0,0,0,1.014-.254c.473-.174.5-.668.655-.7.289-.066.281.187.281.187l-.009,3.2s-.005.351-.214.305-.265-.206-.483-.547c-.195-.305-.854-.371-.854-.371Z" transform="translate(-10.491 -2.428)" fill="#fff"/>
      <path id="Path_78815" data-name="Path 78815" d="M112.869,26.513c-.2-.37-.593-.377-.582-.607.008-.183.269-.2.269-.2l5.194.022a3.947,3.947,0,0,1,2.607,1.378A3.691,3.691,0,0,1,121,29.447a3.4,3.4,0,0,1-1.133,2.374,5.062,5.062,0,0,1-1.358.722.429.429,0,0,0,.057.2c.521.765,3.11,4.52,3.11,4.52l.947.78a14.972,14.972,0,0,1-2.474-.005,2.286,2.286,0,0,1-1-.9l-3.115-4.779s-.51-.655-.354-.936c.1-.175.957.118,1.862-.188a1.875,1.875,0,0,0,1.371-1.83,1.964,1.964,0,0,0-1.284-1.994,5.283,5.283,0,0,0-2.459-.045.362.362,0,0,0-.1.337l.089,8.732a1.847,1.847,0,0,0,.34.959c.3.35.416.238.412.444,0,.182-.242.188-.242.188l-3.1,0a.2.2,0,0,1-.169-.226.015.015,0,0,1,0-.006c.022-.159.391-.164.567-.556a2.107,2.107,0,0,0,.158-.821l-.063-8.884A2.346,2.346,0,0,0,112.869,26.513Z" transform="translate(-11.466 -2.624)" fill="#fff"/>
      <path id="Path_78816" data-name="Path 78816" d="M159.464,37.684a8.37,8.37,0,0,1-3.394.611,5.809,5.809,0,0,1-5.449-3.281,7.843,7.843,0,0,1-.3-5.793,5.9,5.9,0,0,1,3.61-3.651,8.728,8.728,0,0,1,4.2-.031,3.091,3.091,0,0,0,.861.182c.228-.01.23-.2.5-.151.169.029.163.229.163.229l.009,1.9s-.024.264-.238.262c-.312,0-.495-.517-1.464-.757a5.1,5.1,0,0,0-3.859.3,4.8,4.8,0,0,0-2.092,4.309,4.858,4.858,0,0,0,1.74,4.012,4.173,4.173,0,0,0,3.449.7,4.721,4.721,0,0,0,1.963-.813.471.471,0,0,1,.387-.25c.17.011.182.45.182.45Z" transform="translate(-15.309 -2.584)" fill="#fff"/>
      <path id="Path_78817" data-name="Path 78817" d="M88.926,25.845s-.259.086-.088.262.482.158.588.618.157.84.157.84l.03,8.747a3.486,3.486,0,0,1-.224,1.1c-.171.3-.548.207-.514.429s.3.233.3.233l6.892-.04a8.354,8.354,0,0,0,.154-.943c.119-.833.26-1.592-.018-1.554-.34.046-.144.3-.6.591a1.515,1.515,0,0,1-.893.258l-2.359.048a1,1,0,0,1-.563-.192c-.135-.116-.131-.615-.131-.615l-.017-3.188s1.878-.036,2.513.015a1.568,1.568,0,0,1,1.1.349c.164.154.243.468.411.456.12-.01.169-.274.169-.274l-.019-2.9s-.025-.237-.2-.171-.317.363-.466.538a1.25,1.25,0,0,1-.646.3l-2.878.057s-.057-2.451-.04-3.209c0-.14.225-.182.225-.182l2.566,0s.744-.019.926.148c.25.225.357.646.65.65.189,0,.18-.3.18-.3L96.1,26.131s.017-.224-.105-.285a1.793,1.793,0,0,0-.532-.047Z" transform="translate(-9.068 -2.635)" fill="#fff"/>
      <path id="Path_78818" data-name="Path 78818" d="M137.057,37.762h3.1a.17.17,0,0,0,.169-.171.216.216,0,0,0-.006-.048c-.028-.206-.411.012-.68-.623a3.363,3.363,0,0,1-.206-.9l-.031-6.47,7.822,8.583s.243.141.326.053a.445.445,0,0,0,.084-.262l-.031-10.747a3,3,0,0,1,.2-.984c.163-.314.516-.276.537-.471s-.1-.173-.1-.173l-3.3,0s-.123.019-.128.189c-.012.242.4,0,.614.338a3.475,3.475,0,0,1,.313.767l.087,6.953-7.919-8.746a.284.284,0,0,0-.237-.066c-.087.013-.149.2-.149.2l.1,11.088a1.64,1.64,0,0,1-.26.853c-.211.279-.421.291-.409.49A.142.142,0,0,0,137.057,37.762Z" transform="translate(-13.988 -2.55)" fill="#fff"/>
      <path id="Path_78819" data-name="Path 78819" d="M161.9,25.551s-.261.086-.091.262.482.257.589.716.155.841.155.841l.03,8.746a3.458,3.458,0,0,1-.221,1.1c-.171.3-.55.207-.517.429s.3.234.3.234l6.957-.04a7.777,7.777,0,0,0,.154-.944c.119-.832.261-1.591-.016-1.553-.342.044-.145.305-.6.59a1.674,1.674,0,0,1-.957.258l-2.36.048a1.007,1.007,0,0,1-.562-.19c-.135-.117-.131-.616-.131-.616l-.019-3.188s1.878-.035,2.514.015a1.573,1.573,0,0,1,1.1.349c.165.154.307.468.477.457.118-.009.169-.275.169-.275l-.019-2.9s-.025-.236-.2-.169-.379.362-.528.538a1.269,1.269,0,0,1-.648.3l-2.877.057s-.057-2.551-.041-3.309c0-.14.227-.182.227-.182l2.566,0s.745-.019.927.148c.248.224.424.646.713.651.189,0,.179-.3.179-.3l-.022-1.794s.019-.224-.1-.285a2.225,2.225,0,0,0-.6-.047Z" transform="translate(-16.518 -2.604)" fill="#fff"/>
      <path id="Path_78820" data-name="Path 78820" d="M9,31.689a6.344,6.344,0,0,0-1.606-1.164,3.591,3.591,0,0,0,1.4-1.36,3.54,3.54,0,0,0,.263-1.98A3.345,3.345,0,0,0,5.9,24.326C4.907,24.268.166,24.26.166,24.26s-.154-.007-.154.233c0,.117.41.277.617.564a2.263,2.263,0,0,1,.286,1.272l0,9.64a3.825,3.825,0,0,1-.145,1.066c-.207.684-.544.542-.719.784a.214.214,0,0,0,.017.3.2.2,0,0,0,.083.047l5.387.044A4.986,4.986,0,0,0,8.56,37.193a3.479,3.479,0,0,0,1.3-2.9A3.986,3.986,0,0,0,9,31.689ZM3.1,26s2.458-.411,3.276.525a1.939,1.939,0,0,1-.433,2.989A5.606,5.606,0,0,1,3.1,29.89L3.1,26Zm4,9.749c-.992,1.077-3.27.827-3.654.626A.679.679,0,0,1,3.1,35.89V31.822s-.008-.129.551-.152a10.07,10.07,0,0,1,1.816.076,2.353,2.353,0,0,1,2.011,1.494A2.789,2.789,0,0,1,7.1,35.748Z" transform="translate(-0.003 -2.479)" fill="#fff"/>
      <path id="Path_78821" data-name="Path 78821" d="M21.961,37.94c-.066-.121-.346.083-.911-1.074C20.829,36.412,16.2,25.86,16.2,25.86s-.17-.236-.329-.247c-.131-.009-.227.2-.227.2L10.677,37.454s-.18.359-.408.431c-.307.1-.429.352-.147.416s2.9-.025,2.9-.025.151.059.107-.2c-.05-.315-.363-.1-.338-.689a16.771,16.771,0,0,1,.938-2.378l4.4-.013A8.387,8.387,0,0,1,19,37.425c-.01.511-.384.429-.393.673-.011.228.245.2.245.2l3-.014S22.14,38.229,21.961,37.94ZM14.318,33.4l1.653-4.137,1.59,4.149Z" transform="translate(-1.022 -2.615)" fill="#fff"/>
      <path id="Path_78822" data-name="Path 78822" d="M135.381,37.5c-.066-.121-.346.084-.911-1.074-.222-.453-4.856-11.006-4.856-11.006s-.169-.236-.327-.246c-.131-.01-.228.2-.228.2L124.1,37.01s-.179.36-.409.432c-.307.1-.428.351-.146.415s2.9-.025,2.9-.025.148.06.1-.2c-.049-.316-.362-.1-.336-.69a16.747,16.747,0,0,1,.936-2.377l4.405-.013a8.451,8.451,0,0,1,.869,2.428c-.012.51-.385.429-.393.672s.243.2.243.2l3-.015S135.559,37.785,135.381,37.5Zm-7.644-4.535,1.653-4.137,1.59,4.149Z" transform="translate(-12.602 -2.57)" fill="#fff"/>
      <path id="Path_78823" data-name="Path 78823" d="M97.168,40.558h7.848q-.053-.2-.1-.393H97.072C97.093,40.258,97.126,40.393,97.168,40.558Z" transform="translate(-9.914 -4.1)" fill="#fff"/>
      <path id="Path_78824" data-name="Path 78824" d="M76.463,40.164H68.619c-.033.131-.066.261-.1.393h7.85C76.409,40.392,76.439,40.264,76.463,40.164Z" transform="translate(-6.997 -4.101)" fill="#fff"/>
      <path id="Path_78825" data-name="Path 78825" d="M58.685,40.558h7.174c.041-.131.08-.263.119-.393h-7.1C58.812,40.3,58.749,40.427,58.685,40.558Z" transform="translate(-5.995 -4.1)" fill="#fff"/>
      <path id="Path_78826" data-name="Path 78826" d="M79.408,40.164c-.022.131-.048.262-.072.393H93.482c-.022-.131-.048-.263-.07-.393Z" transform="translate(-8.102 -4.101)" fill="#fff"/>
      <path id="Path_78827" data-name="Path 78827" d="M107.746,40.558h7.082q-.094-.2-.184-.393h-7.015C107.665,40.294,107.705,40.426,107.746,40.558Z" transform="translate(-10.993 -4.1)" fill="#fff"/>
      <path id="Path_78828" data-name="Path 78828" d="M108.479,42.611h7.475c-.086-.129-.172-.259-.258-.393h-7.374C108.374,42.349,108.425,42.482,108.479,42.611Z" transform="translate(-11.062 -4.311)" fill="#fff"/>
      <path id="Path_78829" data-name="Path 78829" d="M97.712,42.611h7.9c-.042-.131-.084-.264-.125-.393H97.6C97.635,42.345,97.672,42.477,97.712,42.611Z" transform="translate(-9.97 -4.311)" fill="#fff"/>
      <path id="Path_78830" data-name="Path 78830" d="M57.493,42.611h7.576c.055-.131.106-.263.157-.393H57.752C57.667,42.35,57.582,42.484,57.493,42.611Z" transform="translate(-5.874 -4.311)" fill="#fff"/>
      <path id="Path_78831" data-name="Path 78831" d="M94.586,42.219H87.268c.016.117.036.248.058.393h7.347C94.643,42.483,94.616,42.349,94.586,42.219Z" transform="translate(-8.912 -4.31)" fill="#fff"/>
      <path id="Path_78832" data-name="Path 78832" d="M78.914,42.611H86.2c.023-.148.043-.277.059-.393H79C78.971,42.349,78.945,42.483,78.914,42.611Z" transform="translate(-8.061 -4.311)" fill="#fff"/>
      <path id="Path_78833" data-name="Path 78833" d="M75.924,42.219H68.038c-.04.131-.083.263-.127.393h7.9C75.852,42.478,75.889,42.346,75.924,42.219Z" transform="translate(-6.937 -4.31)" fill="#fff"/>
      <path id="Path_78834" data-name="Path 78834" d="M98.323,44.648h8c-.051-.129-.1-.263-.145-.393H98.2C98.236,44.385,98.281,44.516,98.323,44.648Z" transform="translate(-10.031 -4.52)" fill="#fff"/>
      <path id="Path_78835" data-name="Path 78835" d="M95.063,44.256h-7.45c.024.127.052.257.079.393h7.483C95.139,44.516,95.1,44.387,95.063,44.256Z" transform="translate(-8.947 -4.519)" fill="#fff"/>
      <path id="Path_78836" data-name="Path 78836" d="M55.8,44.648h8.222c.072-.131.139-.262.207-.393H56.18C56.058,44.39,55.93,44.522,55.8,44.648Z" transform="translate(-5.699 -4.52)" fill="#fff"/>
      <path id="Path_78837" data-name="Path 78837" d="M78.4,44.648H85.79c.03-.135.057-.267.086-.393H78.508C78.473,44.387,78.434,44.516,78.4,44.648Z" transform="translate(-8.006 -4.52)" fill="#fff"/>
      <path id="Path_78838" data-name="Path 78838" d="M109.439,44.648h8.11c-.128-.128-.253-.259-.376-.393h-7.94C109.3,44.386,109.367,44.518,109.439,44.648Z" transform="translate(-11.157 -4.52)" fill="#fff"/>
      <path id="Path_78839" data-name="Path 78839" d="M75.312,44.256h-7.98c-.049.13-.1.264-.145.393h8C75.23,44.516,75.273,44.385,75.312,44.256Z" transform="translate(-6.865 -4.519)" fill="#fff"/>
      <path id="Path_78840" data-name="Path 78840" d="M110.727,46.708h9.389c-.226-.122-.444-.251-.663-.393h-9C110.542,46.447,110.632,46.579,110.727,46.708Z" transform="translate(-11.281 -4.728)" fill="#fff"/>
      <path id="Path_78841" data-name="Path 78841" d="M74.606,46.315H66.5c-.057.134-.119.262-.178.393h8.141C74.513,46.578,74.559,46.446,74.606,46.315Z" transform="translate(-6.776 -4.728)" fill="#fff"/>
      <path id="Path_78842" data-name="Path 78842" d="M53.011,46.708h9.555q.141-.2.279-.393H53.7C53.475,46.458,53.244,46.585,53.011,46.708Z" transform="translate(-5.416 -4.728)" fill="#fff"/>
      <path id="Path_78843" data-name="Path 78843" d="M77.787,46.708h7.49c.034-.134.068-.266.1-.393H77.909C77.869,46.446,77.828,46.579,77.787,46.708Z" transform="translate(-7.946 -4.728)" fill="#fff"/>
      <path id="Path_78844" data-name="Path 78844" d="M95.648,46.315H88.062c.031.13.063.259.1.393H95.77C95.729,46.579,95.689,46.446,95.648,46.315Z" transform="translate(-8.994 -4.728)" fill="#fff"/>
      <path id="Path_78845" data-name="Path 78845" d="M99.025,46.708h8.139c-.059-.131-.119-.259-.18-.393h-8.1C98.93,46.446,98.976,46.578,99.025,46.708Z" transform="translate(-10.1 -4.728)" fill="#fff"/>
      <path id="Path_78846" data-name="Path 78846" d="M73.779,48.383H65.521c-.069.134-.136.264-.206.393h8.292C73.665,48.645,73.724,48.514,73.779,48.383Z" transform="translate(-6.673 -4.941)" fill="#fff"/>
      <path id="Path_78847" data-name="Path 78847" d="M99.687,48.383c.057.131.112.262.171.393h8.194l-.131-.393Z" transform="translate(-10.18 -4.941)" fill="#fff"/>
      <path id="Path_78848" data-name="Path 78848" d="M77.08,48.776h7.6c.04-.131.08-.264.119-.393h-7.57C77.178,48.515,77.128,48.645,77.08,48.776Z" transform="translate(-7.873 -4.941)" fill="#fff"/>
      <path id="Path_78849" data-name="Path 78849" d="M96.317,48.383H88.6c.034.13.074.261.112.393h7.747C96.414,48.645,96.364,48.516,96.317,48.383Z" transform="translate(-9.049 -4.941)" fill="#fff"/>
      <path id="Path_78850" data-name="Path 78850" d="M97.083,50.447H89.232c.042.131.086.261.131.393h7.876C97.186,50.711,97.134,50.578,97.083,50.447Z" transform="translate(-9.116 -5.149)" fill="#fff"/>
      <path id="Path_78851" data-name="Path 78851" d="M76.287,50.841H84c.044-.131.092-.266.131-.393H76.443C76.39,50.579,76.34,50.711,76.287,50.841Z" transform="translate(-7.791 -5.152)" fill="#fff"/>
      <path id="Path_78852" data-name="Path 78852" d="M72.8,50.447H64.389c-.081.136-.158.264-.237.393h8.456C72.675,50.71,72.74,50.58,72.8,50.447Z" transform="translate(-6.552 -5.149)" fill="#fff"/>
      <path id="Path_78853" data-name="Path 78853" d="M109.159,50.841l-.131-.393h-8.394c.065.132.131.263.195.393Z" transform="translate(-10.279 -5.152)" fill="#fff"/>
      <path id="Path_78854" data-name="Path 78854" d="M110.473,52.96l-.265-.393h-8.469c.074.131.15.263.222.393Z" transform="translate(-10.391 -5.367)" fill="#fff"/>
      <path id="Path_78855" data-name="Path 78855" d="M97.959,52.567H89.972c.046.12.092.24.138.36a.223.223,0,0,0,.013.033h8.013Q98.048,52.764,97.959,52.567Z" transform="translate(-9.189 -5.367)" fill="#fff"/>
      <path id="Path_78856" data-name="Path 78856" d="M75.374,52.96h7.872c.049-.136.093-.262.14-.393H75.55C75.492,52.7,75.434,52.829,75.374,52.96Z" transform="translate(-7.699 -5.367)" fill="#fff"/>
      <path id="Path_78857" data-name="Path 78857" d="M71.68,52.567H63.043c-.092.132-.183.269-.27.393h8.693C71.535,52.833,71.606,52.7,71.68,52.567Z" transform="translate(-6.414 -5.367)" fill="#fff"/>
      <path id="Path_78858" data-name="Path 78858" d="M90.777,54.61c.056.133.107.265.161.4h8.157c-.065-.131-.131-.26-.2-.4Z" transform="translate(-9.272 -5.576)" fill="#fff"/>
      <path id="Path_78859" data-name="Path 78859" d="M74.4,55.006h8.041c.053-.131.1-.26.156-.4h-8C74.533,54.747,74.468,54.874,74.4,55.006Z" transform="translate(-7.6 -5.575)" fill="#fff"/>
      <path id="Path_78860" data-name="Path 78860" d="M61.517,54.61c-.131.163-.237.286-.33.4h9.027c.083-.131.163-.259.243-.4Z" transform="translate(-6.249 -5.576)" fill="#fff"/>
      <path id="Path_78861" data-name="Path 78861" d="M111.717,54.61h-8.784c.083.135.163.264.243.4h8.871Z" transform="translate(-10.514 -5.576)" fill="#fff"/>
      <path id="Path_78862" data-name="Path 78862" d="M73.3,57.123h8.243c.057-.131.113-.259.17-.393h-8.2C73.441,56.865,73.37,56.994,73.3,57.123Z" transform="translate(-7.486 -5.794)" fill="#fff"/>
      <path id="Path_78863" data-name="Path 78863" d="M99.954,56.731h-8.3c.057.134.111.262.169.393h8.262Z" transform="translate(-9.362 -5.793)" fill="#fff"/>
      <path id="Path_78864" data-name="Path 78864" d="M72.113,59.205h8.465c.059-.13.122-.259.183-.393H72.346C72.266,58.945,72.189,59.079,72.113,59.205Z" transform="translate(-7.367 -6.005)" fill="#fff"/>
      <path id="Path_78865" data-name="Path 78865" d="M101.048,58.813H92.562c.06.134.119.264.179.393h8.437Z" transform="translate(-9.454 -6.004)" fill="#fff"/>
      <path id="Path_78866" data-name="Path 78866" d="M102.312,60.931H93.54c.06.135.125.268.186.394h8.748Z" transform="translate(-9.552 -6.221)" fill="#fff"/>
      <path id="Path_78867" data-name="Path 78867" d="M70.791,61.325h8.717c.064-.129.131-.258.2-.394H71.046C70.959,61.067,70.874,61.2,70.791,61.325Z" transform="translate(-7.23 -6.221)" fill="#fff"/>
      <path id="Path_78868" data-name="Path 78868" d="M69.552,63.257l-.06.187h8.856c.066-.116.139-.244.223-.393H69.679C69.635,63.124,69.593,63.191,69.552,63.257Z" transform="translate(-7.099 -6.436)" fill="#fff"/>
      <path id="Path_78869" data-name="Path 78869" d="M94.573,63.05c.072.144.138.274.2.393h8.969l-.195-.393Z" transform="translate(-9.657 -6.436)" fill="#fff"/>
      <path id="Path_78870" data-name="Path 78870" d="M107.2,38.238h6.82c-.044-.131-.086-.261-.129-.393h-6.78Z" transform="translate(-10.941 -3.864)" fill="#fff"/>
      <path id="Path_78871" data-name="Path 78871" d="M77.106,37.847H69.088c-.026.128-.054.26-.081.393h8.025C77.058,38.108,77.084,37.977,77.106,37.847Z" transform="translate(-7.05 -3.866)" fill="#fff"/>
      <path id="Path_78872" data-name="Path 78872" d="M96.475,38.238h8.035c-.028-.131-.057-.265-.081-.393H96.4C96.422,37.977,96.449,38.108,96.475,38.238Z" transform="translate(-9.845 -3.864)" fill="#fff"/>
      <path id="Path_78873" data-name="Path 78873" d="M79.725,37.847c-.017.131-.037.261-.054.393H93.217c-.018-.131-.038-.262-.057-.393Z" transform="translate(-8.138 -3.866)" fill="#fff"/>
      <path id="Path_78874" data-name="Path 78874" d="M59.537,38.238h6.908c.03-.131.06-.263.087-.393H59.668C59.626,37.977,59.582,38.109,59.537,38.238Z" transform="translate(-6.081 -3.864)" fill="#fff"/>
      <path id="Path_78875" data-name="Path 78875" d="M106.805,36.156h6.662c-.028-.13-.057-.262-.083-.393h-6.638C106.765,35.892,106.784,36.023,106.805,36.156Z" transform="translate(-10.903 -3.65)" fill="#fff"/>
      <path id="Path_78876" data-name="Path 78876" d="M60.118,36.156h6.745c.021-.133.04-.263.058-.393H60.2C60.178,35.894,60.148,36.027,60.118,36.156Z" transform="translate(-6.142 -3.65)" fill="#fff"/>
      <path id="Path_78877" data-name="Path 78877" d="M93,35.764H79.935c-.011.13-.018.263-.029.393H93.024C93.012,36.027,93.007,35.892,93,35.764Z" transform="translate(-8.162 -3.652)" fill="#fff"/>
      <path id="Path_78878" data-name="Path 78878" d="M96.145,36.156h7.995c-.022-.133-.042-.265-.059-.393H96.1C96.118,35.892,96.128,36.027,96.145,36.156Z" transform="translate(-9.816 -3.65)" fill="#fff"/>
      <path id="Path_78879" data-name="Path 78879" d="M77.411,35.764H69.45q-.028.193-.059.393h7.978C77.384,36.027,77.4,35.894,77.411,35.764Z" transform="translate(-7.087 -3.652)" fill="#fff"/>
      <path id="Path_78880" data-name="Path 78880" d="M60.467,34.038H67.13c.012-.135.022-.268.031-.393H60.506C60.494,33.777,60.483,33.909,60.467,34.038Z" transform="translate(-6.177 -3.437)" fill="#fff"/>
      <path id="Path_78881" data-name="Path 78881" d="M92.91,33.645H80.047c0,.132-.009.264-.014.393H92.921C92.917,33.909,92.913,33.777,92.91,33.645Z" transform="translate(-8.176 -3.437)" fill="#fff"/>
      <path id="Path_78882" data-name="Path 78882" d="M95.945,34.038h7.93c-.014-.135-.023-.268-.037-.393H95.922C95.928,33.777,95.937,33.909,95.945,34.038Z" transform="translate(-9.797 -3.437)" fill="#fff"/>
      <path id="Path_78883" data-name="Path 78883" d="M77.6,33.645H69.7c-.013.127-.023.259-.038.393h7.911C77.584,33.906,77.592,33.777,77.6,33.645Z" transform="translate(-7.115 -3.437)" fill="#fff"/>
      <path id="Path_78884" data-name="Path 78884" d="M106.554,34.038h6.585c-.014-.13-.026-.261-.039-.393h-6.578C106.53,33.772,106.542,33.9,106.554,34.038Z" transform="translate(-10.881 -3.437)" fill="#fff"/>
      <path id="Path_78885" data-name="Path 78885" d="M67.243,31.919c0-.156,0-.288,0-.393H60.59c0,.081,0,.163,0,.242,0,.052,0,.1,0,.151Z" transform="translate(-6.191 -3.217)" fill="#fff"/>
      <path id="Path_78886" data-name="Path 78886" d="M106.449,31.526c0,.1,0,.235,0,.393h6.576c0-.028,0-.057,0-.086,0-.1.005-.2.005-.307Z" transform="translate(-10.873 -3.217)" fill="#fff"/>
      <path id="Path_78887" data-name="Path 78887" d="M77.657,31.919c0-.127.007-.251.005-.379v-.015H69.824c0,.027,0,.056,0,.086,0,.12.007.222.008.307Z" transform="translate(-7.131 -3.218)" fill="#fff"/>
      <path id="Path_78888" data-name="Path 78888" d="M95.865,31.526c0,.131.008.262.008.393h7.852c0-.076,0-.169.008-.269,0-.047,0-.087,0-.124Z" transform="translate(-9.791 -3.217)" fill="#fff"/>
      <path id="Path_78889" data-name="Path 78889" d="M92.9,31.526H80.053c0,.131,0,.262,0,.393H92.9C92.9,31.788,92.9,31.658,92.9,31.526Z" transform="translate(-8.177 -3.217)" fill="#fff"/>
      <path id="Path_78890" data-name="Path 78890" d="M76.374,22.885h-7.85c.035.132.069.263.1.394H76.47C76.446,23.179,76.414,23.05,76.374,22.885Z" transform="translate(-7 -2.337)" fill="#fff"/>
      <path id="Path_78891" data-name="Path 78891" d="M114.94,22.885h-7.168c-.042.131-.081.263-.118.394h7.093C114.81,23.147,114.873,23.014,114.94,22.885Z" transform="translate(-10.996 -2.337)" fill="#fff"/>
      <path id="Path_78892" data-name="Path 78892" d="M65.859,22.885H58.634c.066.131.13.262.192.394h7.151C65.94,23.148,65.9,23.016,65.859,22.885Z" transform="translate(-5.988 -2.337)" fill="#fff"/>
      <path id="Path_78893" data-name="Path 78893" d="M93.587,23.279c.017-.1.039-.23.068-.394h-14.5c.03.17.053.3.066.394Z" transform="translate(-8.085 -2.337)" fill="#fff"/>
      <path id="Path_78894" data-name="Path 78894" d="M105.038,22.885H97.188c-.041.162-.074.291-.1.394h7.841C104.967,23.148,105,23.017,105.038,22.885Z" transform="translate(-9.918 -2.337)" fill="#fff"/>
      <path id="Path_78895" data-name="Path 78895" d="M105.635,20.831h-7.9c-.039.134-.075.267-.111.393h7.886C105.55,21.094,105.593,20.962,105.635,20.831Z" transform="translate(-9.971 -2.127)" fill="#fff"/>
      <path id="Path_78896" data-name="Path 78896" d="M75.82,20.831h-7.9c.043.131.085.263.126.393h7.887C75.9,21.1,75.858,20.966,75.82,20.831Z" transform="translate(-6.938 -2.127)" fill="#fff"/>
      <path id="Path_78897" data-name="Path 78897" d="M94.873,20.831h-7.54c-.022.145-.042.277-.058.393h7.506C94.808,21.1,94.839,20.966,94.873,20.831Z" transform="translate(-8.914 -2.127)" fill="#fff"/>
      <path id="Path_78898" data-name="Path 78898" d="M78.817,21.225h7.426c-.018-.117-.036-.245-.059-.393H78.727C78.759,20.967,78.79,21.1,78.817,21.225Z" transform="translate(-8.04 -2.126)" fill="#fff"/>
      <path id="Path_78899" data-name="Path 78899" d="M116.118,20.831h-7.6c-.055.131-.106.262-.158.393h7.49Q115.983,21.025,116.118,20.831Z" transform="translate(-11.068 -2.127)" fill="#fff"/>
      <path id="Path_78900" data-name="Path 78900" d="M65.069,20.831H57.42c.09.129.176.261.264.393h7.54Q65.15,21.028,65.069,20.831Z" transform="translate(-5.864 -2.127)" fill="#fff"/>
      <path id="Path_78901" data-name="Path 78901" d="M78.312,19.187h7.548c-.026-.127-.057-.257-.086-.393H78.2C78.243,18.928,78.279,19.06,78.312,19.187Z" transform="translate(-7.988 -1.917)" fill="#fff"/>
      <path id="Path_78902" data-name="Path 78902" d="M64.019,18.8H55.692c.132.128.26.259.389.393h8.145C64.156,19.056,64.09,18.925,64.019,18.8Z" transform="translate(-5.691 -1.92)" fill="#fff"/>
      <path id="Path_78903" data-name="Path 78903" d="M95.377,18.8H87.7c-.026.134-.055.267-.077.393h7.648C95.3,19.061,95.34,18.927,95.377,18.8Z" transform="translate(-8.951 -1.92)" fill="#fff"/>
      <path id="Path_78904" data-name="Path 78904" d="M117.786,18.8h-8.3c-.072.131-.14.261-.207.393h8.111C117.522,19.054,117.651,18.922,117.786,18.8Z" transform="translate(-11.16 -1.92)" fill="#fff"/>
      <path id="Path_78905" data-name="Path 78905" d="M106.351,18.8h-8c-.042.131-.083.263-.126.393h7.982C106.254,19.057,106.3,18.923,106.351,18.8Z" transform="translate(-10.03 -1.92)" fill="#fff"/>
      <path id="Path_78906" data-name="Path 78906" d="M75.194,18.8h-8c.051.128.1.263.145.393h7.98C75.278,19.058,75.236,18.927,75.194,18.8Z" transform="translate(-6.862 -1.92)" fill="#fff"/>
      <path id="Path_78907" data-name="Path 78907" d="M107.2,16.735H99.058c-.048.131-.1.262-.141.393h8.11C107.084,17,107.144,16.866,107.2,16.735Z" transform="translate(-10.103 -1.708)" fill="#fff"/>
      <path id="Path_78908" data-name="Path 78908" d="M120.565,16.735H110.8c-.094.131-.19.261-.281.393h9.312C120.07,16.986,120.315,16.853,120.565,16.735Z" transform="translate(-11.286 -1.708)" fill="#fff"/>
      <path id="Path_78909" data-name="Path 78909" d="M95.964,16.735h-7.8c-.031.134-.065.264-.094.393h7.776C95.886,17,95.925,16.869,95.964,16.735Z" transform="translate(-8.995 -1.708)" fill="#fff"/>
      <path id="Path_78910" data-name="Path 78910" d="M77.724,17.128h7.643c-.032-.129-.067-.259-.1-.393H77.605C77.645,16.869,77.685,17,77.724,17.128Z" transform="translate(-7.928 -1.708)" fill="#fff"/>
      <path id="Path_78911" data-name="Path 78911" d="M74.47,16.735H66.33c.057.131.119.259.176.393h8.108C74.566,17,74.517,16.866,74.47,16.735Z" transform="translate(-6.776 -1.708)" fill="#fff"/>
      <path id="Path_78912" data-name="Path 78912" d="M62.549,16.735H52.807c.242.119.48.252.713.393h9.308C62.738,17,62.646,16.864,62.549,16.735Z" transform="translate(-5.395 -1.708)" fill="#fff"/>
      <path id="Path_78913" data-name="Path 78913" d="M77.06,15.06h7.724c-.038-.129-.076-.26-.118-.393H76.928C76.974,14.8,77.017,14.929,77.06,15.06Z" transform="translate(-7.859 -1.499)" fill="#fff"/>
      <path id="Path_78914" data-name="Path 78914" d="M73.614,14.666H65.323l.206.393h8.259Z" transform="translate(-6.674 -1.497)" fill="#fff"/>
      <path id="Path_78915" data-name="Path 78915" d="M96.628,14.666H88.719c-.039.131-.076.264-.114.393h7.888C96.539,14.928,96.582,14.8,96.628,14.666Z" transform="translate(-9.051 -1.497)" fill="#fff"/>
      <path id="Path_78916" data-name="Path 78916" d="M99.723,15.06h8.21l.131-.393H99.9C99.838,14.8,99.779,14.928,99.723,15.06Z" transform="translate(-10.185 -1.499)" fill="#fff"/>
      <path id="Path_78917" data-name="Path 78917" d="M72.615,12.6H64.159c.079.13.157.259.237.393h8.415C72.747,12.863,72.681,12.733,72.615,12.6Z" transform="translate(-6.554 -1.287)" fill="#fff"/>
      <path id="Path_78918" data-name="Path 78918" d="M109.171,12.6h-8.293c-.066.13-.131.262-.2.393h8.36Z" transform="translate(-10.282 -1.287)" fill="#fff"/>
      <path id="Path_78919" data-name="Path 78919" d="M76.3,13h7.826c-.042-.128-.09-.263-.131-.393H76.14C76.194,12.735,76.249,12.865,76.3,13Z" transform="translate(-7.776 -1.287)" fill="#fff"/>
      <path id="Path_78920" data-name="Path 78920" d="M97.4,12.6H89.367c-.044.132-.089.263-.131.393h8C97.294,12.865,97.349,12.735,97.4,12.6Z" transform="translate(-9.116 -1.287)" fill="#fff"/>
      <path id="Path_78921" data-name="Path 78921" d="M75.379,10.877h7.995c-.048-.132-.092-.259-.14-.393H75.2C75.257,10.615,75.319,10.746,75.379,10.877Z" transform="translate(-7.682 -1.072)" fill="#fff"/>
      <path id="Path_78922" data-name="Path 78922" d="M110.484,10.484H102c-.072.129-.142.259-.216.393h8.439Z" transform="translate(-10.395 -1.072)" fill="#fff"/>
      <path id="Path_78923" data-name="Path 78923" d="M71.471,10.484H62.778c.088.124.18.26.27.393h8.636Z" transform="translate(-6.413 -1.072)" fill="#fff"/>
      <path id="Path_78924" data-name="Path 78924" d="M98.18,10.8c.047-.106.092-.214.136-.319H90.13c-.005.012-.007.022-.013.032-.048.121-.092.242-.136.361h8.164C98.157,10.853,98.168,10.827,98.18,10.8Z" transform="translate(-9.192 -1.072)" fill="#fff"/>
      <path id="Path_78925" data-name="Path 78925" d="M99.235,8.438h-8.29c-.057.131-.108.26-.163.393h8.265C99.111,8.7,99.174,8.569,99.235,8.438Z" transform="translate(-9.272 -0.863)" fill="#fff"/>
      <path id="Path_78926" data-name="Path 78926" d="M74.374,8.8l.019.036h8.193c-.054-.133-.105-.264-.157-.393H74.205C74.261,8.557,74.317,8.674,74.374,8.8Z" transform="translate(-7.58 -0.863)" fill="#fff"/>
      <path id="Path_78927" data-name="Path 78927" d="M70.259,8.438H61.194c.093.108.2.232.33.393h8.966C70.4,8.672,70.322,8.544,70.259,8.438Z" transform="translate(-6.25 -0.863)" fill="#fff"/>
      <path id="Path_78928" data-name="Path 78928" d="M112.052,8.438h-8.887c-.06.1-.136.23-.232.393h8.79Z" transform="translate(-10.514 -0.863)" fill="#fff"/>
      <path id="Path_78929" data-name="Path 78929" d="M100.089,6.319H91.83l-.17.393h8.3Z" transform="translate(-9.36 -0.643)" fill="#fff"/>
      <path id="Path_78930" data-name="Path 78930" d="M73.356,6.712H81.7c-.057-.135-.114-.262-.171-.393H73.154C73.221,6.45,73.289,6.578,73.356,6.712Z" transform="translate(-7.472 -0.643)" fill="#fff"/>
      <path id="Path_78931" data-name="Path 78931" d="M72.251,4.63h8.508c-.062-.135-.124-.263-.184-.393H72.031Z" transform="translate(-7.357 -0.432)" fill="#fff"/>
      <path id="Path_78932" data-name="Path 78932" d="M101.185,4.237H92.747c-.058.131-.118.259-.177.393h8.486Z" transform="translate(-9.455 -0.432)" fill="#fff"/>
      <path id="Path_78933" data-name="Path 78933" d="M70.8,2.141q.11.18.224.371h8.685c-.068-.136-.134-.267-.2-.393h-8.72Z" transform="translate(-7.232 -0.216)" fill="#fff"/>
      <path id="Path_78934" data-name="Path 78934" d="M102.479,2.118H93.732c-.059.128-.124.259-.188.393h8.773Z" transform="translate(-9.553 -0.217)" fill="#fff"/>
      <path id="Path_78935" data-name="Path 78935" d="M103.751,0h-8.97c-.063.119-.129.248-.2.393h8.974Z" transform="translate(-9.66)" fill="#fff"/>
      <path id="Path_78936" data-name="Path 78936" d="M78.577.393C78.494.245,78.421.116,78.354,0H69.5l.055.163.152.23h8.871Z" transform="translate(-7.1)" fill="#fff"/>
      <path id="Path_78937" data-name="Path 78937" d="M114.1,24.949h-6.883c-.03.132-.059.263-.086.393h6.836C114.006,25.21,114.052,25.08,114.1,24.949Z" transform="translate(-10.943 -2.549)" fill="#fff"/>
      <path id="Path_78938" data-name="Path 78938" d="M93.319,25.343c.019-.131.037-.263.057-.393H79.454c.019.131.039.262.057.393Z" transform="translate(-8.117 -2.548)" fill="#fff"/>
      <path id="Path_78939" data-name="Path 78939" d="M96.406,25.343h8.036c.026-.13.054-.261.083-.393H96.473C96.449,25.08,96.43,25.21,96.406,25.343Z" transform="translate(-9.846 -2.548)" fill="#fff"/>
      <path id="Path_78940" data-name="Path 78940" d="M77.022,24.949H69.014q.042.2.081.393h7.993C77.066,25.21,77.046,25.08,77.022,24.949Z" transform="translate(-7.051 -2.549)" fill="#fff"/>
      <path id="Path_78941" data-name="Path 78941" d="M66.446,24.949H59.5c.045.131.092.26.133.393h6.9C66.508,25.212,66.478,25.082,66.446,24.949Z" transform="translate(-6.078 -2.549)" fill="#fff"/>
      <path id="Path_78942" data-name="Path 78942" d="M66.867,27.284H60.1c.03.131.057.261.084.4h6.743C66.907,27.551,66.886,27.418,66.867,27.284Z" transform="translate(-6.139 -2.786)" fill="#fff"/>
      <path id="Path_78943" data-name="Path 78943" d="M77.344,27.284h-7.95c.021.133.041.266.059.4h7.938C77.377,27.549,77.361,27.416,77.344,27.284Z" transform="translate(-7.088 -2.786)" fill="#fff"/>
      <path id="Path_78944" data-name="Path 78944" d="M96.112,27.68h7.976c.019-.13.04-.262.059-.4H96.161C96.146,27.416,96.126,27.549,96.112,27.68Z" transform="translate(-9.815 -2.785)" fill="#fff"/>
      <path id="Path_78945" data-name="Path 78945" d="M93.152,27.284H79.739c.017.131.032.264.048.4H93.108C93.12,27.546,93.137,27.416,93.152,27.284Z" transform="translate(-8.145 -2.786)" fill="#fff"/>
      <path id="Path_78946" data-name="Path 78946" d="M113.516,27.284h-6.7c-.02.133-.042.266-.058.4h6.675C113.46,27.546,113.488,27.416,113.516,27.284Z" transform="translate(-10.905 -2.786)" fill="#fff"/>
      <path id="Path_78947" data-name="Path 78947" d="M67.136,29.4H60.458c.015.131.024.263.038.393h6.671C67.158,29.67,67.146,29.54,67.136,29.4Z" transform="translate(-6.177 -3.001)" fill="#fff"/>
      <path id="Path_78948" data-name="Path 78948" d="M92.992,29.4H79.942c.009.131.022.261.031.393H92.962C92.97,29.665,92.983,29.535,92.992,29.4Z" transform="translate(-8.167 -3.001)" fill="#fff"/>
      <path id="Path_78949" data-name="Path 78949" d="M77.561,29.4h-7.89c.013.135.025.268.038.393h7.884C77.585,29.665,77.571,29.535,77.561,29.4Z" transform="translate(-7.116 -3.001)" fill="#fff"/>
      <path id="Path_78950" data-name="Path 78950" d="M95.925,29.8h7.916c.013-.127.023-.257.038-.393H95.955C95.946,29.535,95.932,29.665,95.925,29.8Z" transform="translate(-9.798 -3.002)" fill="#fff"/>
      <path id="Path_78951" data-name="Path 78951" d="M113.164,29.4h-6.608c-.013.135-.022.267-.031.393h6.6C113.136,29.667,113.149,29.534,113.164,29.4Z" transform="translate(-10.879 -3.001)" fill="#fff"/>
      <path id="Path_78952" data-name="Path 78952" d="M41.706,71.5s-.17.057-.057.17.315.169.382.468.1.545.1.545l.019,5.68a2.237,2.237,0,0,1-.143.718c-.112.2-.358.136-.337.28s.195.154.195.154l4.521-.025a5.266,5.266,0,0,0,.1-.614c.079-.542.169-1.034-.01-1.011-.222.028-.1.2-.393.384a1.127,1.127,0,0,1-.624.169l-1.531.031a.661.661,0,0,1-.366-.125c-.088-.078-.083-.4-.083-.4l-.011-2.071s1.22-.024,1.632.008a1.023,1.023,0,0,1,.712.226c.1.1.2.305.31.3.077-.006.11-.176.11-.176l-.013-1.886s-.018-.153-.13-.11-.246.239-.342.352a.841.841,0,0,1-.421.2l-1.869.038s-.037-1.656-.027-2.151c0-.089.148-.119.148-.119l1.667.006s.483-.014.6.093c.164.148.277.419.466.426.125,0,.118-.2.118-.2l-.016-1.167s.011-.145-.067-.185a1.439,1.439,0,0,0-.388-.029Z" transform="translate(-4.252 -7.298)" fill="#fff"/>
      <path id="Path_78953" data-name="Path 78953" d="M48.553,71.537l2.143,0s.091-.021.093.066c0,.133-.148.15-.3.311s-.181.813-.181.813l.04,4.135a1.863,1.863,0,0,0,.226.918,1.82,1.82,0,0,0,2.961.006,2.272,2.272,0,0,0,.223-.974c.057-.777-.043-4.423-.043-4.423s-.057-.489-.232-.564c-.222-.1-.285-.192-.243-.28a.12.12,0,0,1,.145-.075l2.059.005a.117.117,0,0,1,.077.144c-.042.146-.216.09-.33.333a2.293,2.293,0,0,0-.145.645l-.006,4.292a2.725,2.725,0,0,1-.43,1.548,2.858,2.858,0,0,1-2.421,1.2,3.112,3.112,0,0,1-2.52-.977,2.359,2.359,0,0,1-.61-1.5l-.076-4.42a2.4,2.4,0,0,0-.16-.747c-.1-.2-.345-.194-.365-.339a.1.1,0,0,1,.074-.116A.054.054,0,0,0,48.553,71.537Z" transform="translate(-4.952 -7.296)" fill="#fff"/>
      <path id="Path_78954" data-name="Path 78954" d="M58.281,72.006c-.131-.239-.384-.243-.377-.394,0-.119.174-.128.174-.128l3.374.017a2.565,2.565,0,0,1,1.694.9,2.382,2.382,0,0,1,.42,1.518,2.2,2.2,0,0,1-.735,1.54,3.272,3.272,0,0,1-.882.471.288.288,0,0,0,.038.127c.337.5,2.02,2.937,2.02,2.937l.615.506a9.15,9.15,0,0,1-1.607,0,1.5,1.5,0,0,1-.646-.581l-2.025-3.1s-.33-.428-.229-.61c.065-.114.621.076,1.21-.121a1.219,1.219,0,0,0,.891-1.191,1.269,1.269,0,0,0-.836-1.292,3.376,3.376,0,0,0-1.6-.031.231.231,0,0,0-.062.217l.057,5.672a1.256,1.256,0,0,0,.219.622c.2.23.271.156.27.288s-.156.123-.156.123l-2.017,0a.133.133,0,0,1-.111-.148v0c.017-.1.256-.105.368-.362a1.339,1.339,0,0,0,.1-.533l-.039-5.771A1.583,1.583,0,0,0,58.281,72.006Z" transform="translate(-5.914 -7.299)" fill="#fff"/>
      <path id="Path_78955" data-name="Path 78955" d="M106.615,71.525s-.17.057-.057.171.315.1.383.4c.043.179.078.362.1.545l.019,5.682a2.231,2.231,0,0,1-.144.716c-.11.2-.357.137-.335.281s.195.152.195.152l4.477-.024a5.282,5.282,0,0,0,.1-.615c.077-.541.17-1.033-.013-1.01-.219.031-.093.2-.391.385a1.022,1.022,0,0,1-.581.168l-1.533.03a.658.658,0,0,1-.365-.123c-.088-.077-.084-.4-.084-.4l-.013-2.072s1.219-.022,1.633.01a1.022,1.022,0,0,1,.712.228c.105.1.157.3.268.3.077-.007.11-.18.11-.18l-.013-1.883s-.016-.154-.13-.109-.206.235-.3.349a.852.852,0,0,1-.419.2l-1.869.039s-.039-1.594-.027-2.087c0-.09.149-.119.149-.119l1.665,0s.486-.011.6.1c.163.147.233.418.424.426.123,0,.116-.2.116-.2l-.015-1.165s.012-.145-.068-.187a1.106,1.106,0,0,0-.344-.028Z" transform="translate(-10.88 -7.298)" fill="#fff"/>
      <path id="Path_78956" data-name="Path 78956" d="M125.26,71.533s-.169.054-.057.17.315.1.381.4a4.924,4.924,0,0,1,.1.547l.019,5.682a2.218,2.218,0,0,1-.144.717c-.112.2-.356.134-.335.279s.194.152.194.152l4.479-.025a5.523,5.523,0,0,0,.1-.612c.077-.542.169-1.033-.013-1.009-.22.027-.093.2-.393.382a1,1,0,0,1-.582.17l-1.529.026a.639.639,0,0,1-.364-.123c-.091-.075-.086-.4-.086-.4l-.013-2.072s1.219-.023,1.636.008a1.015,1.015,0,0,1,.71.228c.105.1.158.3.267.3.076-.009.11-.179.11-.179l-.012-1.884s-.019-.155-.131-.112-.2.238-.3.352a.849.849,0,0,1-.422.194l-1.864.039s-.041-1.595-.03-2.085c0-.092.148-.119.148-.119l1.667,0s.486-.015.6.1c.162.143.233.42.423.421.125,0,.116-.2.116-.2l-.014-1.166s.011-.141-.069-.182a1.074,1.074,0,0,0-.347-.032Z" transform="translate(-12.783 -7.299)" fill="#fff"/>
      <path id="Path_78957" data-name="Path 78957" d="M80.853,73.524a.09.09,0,0,1-.068-.022.139.139,0,0,1-.044-.075,1.921,1.921,0,0,0-.546-1.086,1.452,1.452,0,0,0-1.115-.3,1.692,1.692,0,0,0-1.073.3,1.028,1.028,0,0,0-.375.852.875.875,0,0,0,.393.758,4.6,4.6,0,0,0,1.424.748,4.2,4.2,0,0,1,1.649,1,2.09,2.09,0,0,1,.507,1.437,2.2,2.2,0,0,1-.833,1.807,3.468,3.468,0,0,1-2.248.668,4.357,4.357,0,0,1-1.04-.107,4.451,4.451,0,0,1-.782-.3.276.276,0,0,1-.112-.093.378.378,0,0,1-.049-.141l-.019-1.16a.714.714,0,0,1,.033-.163c.013-.044.068-.126.094-.128l.1-.075a.105.105,0,0,1,.078.018.135.135,0,0,1,.055.066,2.117,2.117,0,0,0,.631,1,1.65,1.65,0,0,0,1.1.452,2.063,2.063,0,0,0,1.287-.353,1.125,1.125,0,0,0,.524-.933,1.042,1.042,0,0,0-.379-.784,3.733,3.733,0,0,0-1.182-.644,4.941,4.941,0,0,1-1.889-1.112,2.164,2.164,0,0,1-.58-1.528,2,2,0,0,1,.806-1.611,3.051,3.051,0,0,1,1.983-.658,4.273,4.273,0,0,1,1.019.108,3.294,3.294,0,0,1,.7.26.46.46,0,0,1,.172.137.4.4,0,0,1,.063.2l.019,1.2c-.018.071-.018.129-.064.172a.178.178,0,0,1-.087.056Z" transform="translate(-7.802 -7.285)" fill="#fff"/>
      <path id="Path_78958" data-name="Path 78958" d="M72.942,72.414a3.989,3.989,0,0,0-2.913-1.174,3.767,3.767,0,0,0-2.9,1.306,4.574,4.574,0,0,0-1.187,3.2,3.878,3.878,0,0,0,1.187,2.872,3.989,3.989,0,0,0,2.9,1.173,3.8,3.8,0,0,0,2.913-1.3,4.569,4.569,0,0,0,1.187-3.191,3.891,3.891,0,0,0-1.187-2.88M70.176,78.6a2.643,2.643,0,0,1-2.4-1.193,3.748,3.748,0,0,1,.272-4.144,2.259,2.259,0,0,1,1.815-.849,2.641,2.641,0,0,1,2.8,2.477c0,.019,0,.039,0,.059.242,1.777-.623,3.569-2.49,3.649Z" transform="translate(-6.736 -7.272)" fill="#fff"/>
      <path id="Path_78959" data-name="Path 78959" d="M87.658,75.465l.057,3.464a1.261,1.261,0,0,0,.216.621c.2.226.275.154.271.288,0,.119-.154.121-.154.121H86.029a.125.125,0,0,1-.11-.14s0-.006,0-.009c.014-.1.251-.107.368-.365a1.4,1.4,0,0,0,.1-.528l-.04-3.567" transform="translate(-8.777 -7.693)" fill="#fff"/>
      <path id="Path_78960" data-name="Path 78960" d="M90.58,71.481l-2.089-.007s-.169-.011-.163.088.251.073.252.293a24.04,24.04,0,0,1-1.8,3.005s-2.026-2.868-2.036-3.04c-.017-.255.186-.164.218-.3.026-.11-.069-.089-.069-.089s-1.753.013-1.934.041-.1.138.1.178a.553.553,0,0,1,.268.19L86.543,76.6a.2.2,0,0,0,.147.085.449.449,0,0,0,.213-.108s3.012-4.28,3.157-4.477c.366-.5.546-.412.591-.467C90.769,71.507,90.58,71.481,90.58,71.481Z" transform="translate(-8.464 -7.293)" fill="#fff"/>
      <path id="Path_78961" data-name="Path 78961" d="M102.58,72.6l-.011,6.02a1.227,1.227,0,0,0,.221.625c.195.228.268.153.268.287s-.156.122-.156.122h-2.017a.127.127,0,0,1-.11-.139.045.045,0,0,1,0-.011c.014-.1.253-.107.366-.361a1.387,1.387,0,0,0,.1-.532l-.039-6.068" transform="translate(-10.293 -7.408)" fill="#fff"/>
      <path id="Path_78962" data-name="Path 78962" d="M101.565,72.517h2.071s.485-.013.605.093c.158.147.233.419.419.425.125,0,.116-.2.116-.2l-.014-1.167s.013-.144-.066-.183a1.179,1.179,0,0,0-.346-.031l-2.793.031" transform="translate(-10.374 -7.295)" fill="#fff"/>
      <path id="Path_78963" data-name="Path 78963" d="M101.772,72.518l-1.8.007s-.483-.013-.6.094c-.163.148-.233.418-.423.424-.123,0-.116-.2-.116-.2l.014-1.165s-.011-.146.066-.188a1.3,1.3,0,0,1,.349-.03l2.5.03" transform="translate(-10.095 -7.297)" fill="#fff"/>
      <path id="Path_78964" data-name="Path 78964" d="M96.45,73.529a.1.1,0,0,1-.072-.022.131.131,0,0,1-.04-.073,1.924,1.924,0,0,0-.55-1.086,1.431,1.431,0,0,0-1.112-.3,1.681,1.681,0,0,0-1.073.3,1.034,1.034,0,0,0-.377.851.885.885,0,0,0,.393.761,4.639,4.639,0,0,0,1.424.75,4.112,4.112,0,0,1,1.647,1,2.082,2.082,0,0,1,.511,1.434,2.2,2.2,0,0,1-.834,1.808,3.477,3.477,0,0,1-2.248.671,4.322,4.322,0,0,1-1.041-.11,4.166,4.166,0,0,1-.785-.3.243.243,0,0,1-.108-.092.36.36,0,0,1-.053-.141l-.016-1.162a.571.571,0,0,1,.03-.161c.015-.047.066-.128.1-.131l.1-.075a.111.111,0,0,1,.075.019.141.141,0,0,1,.057.066,2.1,2.1,0,0,0,.631,1,1.638,1.638,0,0,0,1.1.451,2.04,2.04,0,0,0,1.283-.353,1.123,1.123,0,0,0,.528-.93,1.047,1.047,0,0,0-.381-.788,3.742,3.742,0,0,0-1.183-.642,4.962,4.962,0,0,1-1.889-1.112,2.164,2.164,0,0,1-.582-1.528,2.013,2.013,0,0,1,.809-1.611,3.051,3.051,0,0,1,1.983-.658,4.366,4.366,0,0,1,1.018.107,3.614,3.614,0,0,1,.7.262.418.418,0,0,1,.172.138.387.387,0,0,1,.065.2l.021,1.2c-.021.069-.021.126-.066.169a.2.2,0,0,1-.086.056Z" transform="translate(-9.393 -7.286)" fill="#fff"/>
      <path id="Path_78965" data-name="Path 78965" d="M110.375,70.571q-.03.048-.057.054a.1.1,0,0,1-.066-.02l-1.815-.952-.131-.09a.816.816,0,0,1-.305-.39.484.484,0,0,1-.026-.171.362.362,0,0,1,.068-.218.634.634,0,0,1,.425-.287.666.666,0,0,1,.5.147l.091.083L110.53,70.2a.187.187,0,0,1,.042.066.142.142,0,0,1-.031.068Z" transform="translate(-11.026 -6.992)" fill="#fff"/>
      <path id="Path_78966" data-name="Path 78966" d="M121.456,71.6s.4-.343.664-.2c.356.2.267.473.267.473l-.04,6.655a1.153,1.153,0,0,0,.153.547c.128.179.247.189.243.318,0,.089-.062.1-.062.1h-1.834s-.114,0-.1-.139.243.007.4-.4a2.447,2.447,0,0,0,.124-.58l.046-4.2-2.268,4.573a.5.5,0,0,1-.462.276c-.426,0-.446-.776-.446-.776" transform="translate(-12.066 -7.286)" fill="#fff"/>
      <path id="Path_78967" data-name="Path 78967" d="M122.391,71.365l.811.009s.154.057.053.169-.286.1-.347.4a5.225,5.225,0,0,0-.093.542l0,.448" transform="translate(-12.501 -7.285)" fill="#fff"/>
      <path id="Path_78968" data-name="Path 78968" d="M115.62,71.73c-.134-.109-.568-.474-.832-.328-.354.2-.264.473-.264.473l.037,6.655a1.111,1.111,0,0,1-.153.547c-.127.18-.247.189-.241.318,0,.089.06.1.06.1h1.836s.112,0,.094-.139-.243.007-.4-.4a2.4,2.4,0,0,1-.119-.579l-.021-4.168,2.243,4.583a.378.378,0,0,0,.43.221c.393-.007.532-.958.532-.958" transform="translate(-11.658 -7.286)" fill="#fff"/>
      <path id="Path_78969" data-name="Path 78969" d="M114.933,71.356l-.811.005s-.153.058-.054.171.284.1.352.4.092.542.092.542l0,.45" transform="translate(-11.648 -7.285)" fill="#fff"/>
    </g>
  </g>
</svg>
