<svg xmlns="http://www.w3.org/2000/svg" width="155.568" height="31.316" viewBox="0 0 155.568 31.316">
  <g id="Group_28282" data-name="Group 28282" transform="translate(-331.999 -2861)">
    <path id="rect6" d="M0,0H30.2V15.473H0Z" transform="translate(332 2861.691)" fill="#e60028"/>
    <path id="rect8" d="M0,27.155H30.2V42.309H0Z" transform="translate(331.999 2850.007)"/>
    <g id="g24" transform="translate(338.061 2876.153)">
      <g id="g22">
        <g id="g20">
          <g id="g18">
            <g id="g16">
              <g id="g14">
                <g id="g12">
                  <path id="rect10" d="M906.714,571.607h19.635v1.814H906.714Z" transform="translate(-906.714 -571.607)" fill="#fff"/>
                </g>
              </g>
            </g>
          </g>
        </g>
      </g>
    </g>
    <g id="g86" transform="translate(371.889 2861)">
      <path id="path56" d="M979.334,549.579a14.3,14.3,0,0,0-4.909-1.174c-2.241,0-3.415.533-3.415,1.387,0,2.454,10.138.533,10.138,5.869,0,2.241-2.028,3.949-6.189,3.949a13.3,13.3,0,0,1-6.616-1.707l.96-2.028a11.4,11.4,0,0,0,5.656,1.6c2.454,0,3.735-.747,3.735-1.814,0-2.774-10.138-.64-10.138-5.656,0-2.134,2.028-3.628,5.762-3.628a13.213,13.213,0,0,1,5.87,1.387Z" transform="translate(-968.022 -546.164)" fill="#fff"/>
      <path id="path58" d="M1002.668,559.439c-4.055,0-7.363-2.668-7.363-6.723,0-3.948,3.308-6.723,7.363-6.723s7.364,2.775,7.364,6.723c-.107,4.055-3.308,6.723-7.364,6.723m0-11.312a4.6,4.6,0,1,0,0,9.178c2.988,0,4.909-1.921,4.909-4.589a4.575,4.575,0,0,0-4.909-4.589" transform="translate(-980.045 -545.993)" fill="#fff"/>
      <path id="path60" d="M1033.2,559.439c-4.268,0-7.47-2.668-7.47-6.723,0-3.948,3.2-6.723,7.47-6.723a9.439,9.439,0,0,1,5.869,1.921l-1.281,1.814a7.649,7.649,0,0,0-4.589-1.6c-3.095,0-5.016,1.921-5.016,4.482s1.921,4.482,5.016,4.482a7.366,7.366,0,0,0,4.589-1.494l1.281,1.814a8.693,8.693,0,0,1-5.869,2.028" transform="translate(-993.613 -545.993)" fill="#fff"/>
      <path id="rect62" d="M1054.623,546.763h2.347v12.7h-2.347Z" transform="translate(-1006.495 -546.336)" fill="#fff"/>
      <path id="polygon64" d="M1065.023,559.355V546.763h11.526v2.027h-9.177v3.095h7.149v2.134h-7.149v3.308h9.6v2.027Z" transform="translate(-1011.132 -546.336)" fill="#fff"/>
      <path id="polygon66" d="M1088.9,548.791v-2.027h12.7v2.027h-5.229v10.564h-2.348V548.791Z" transform="translate(-1021.78 -546.336)" fill="#fff"/>
      <path id="polygon68" d="M1115.1,559.355V546.763h11.525v2.027h-9.177v3.095h7.15v2.134h-7.15v3.308h9.6v2.027Z" transform="translate(-1033.46 -546.336)" fill="#fff"/>
      <path id="path70" d="M975.342,587.627a10,10,0,0,0,3.628-.747v-3.628h2.241v4.909a11.194,11.194,0,0,1-5.976,1.707c-4.269,0-7.47-2.668-7.47-6.723,0-3.948,3.2-6.723,7.47-6.723a8.834,8.834,0,0,1,5.87,1.921l-1.281,1.814a7.6,7.6,0,0,0-4.589-1.494c-3.095-.107-5.016,1.921-5.016,4.482s1.921,4.482,5.122,4.482" transform="translate(-967.765 -559.561)" fill="#fff"/>
      <path id="polygon72" d="M997.616,589.785V577.192h11.525v2.028h-9.177v3.095h7.15v2.134h-7.15v3.308h9.6v2.028Z" transform="translate(-981.075 -559.905)" fill="#fff"/>
      <path id="path74" d="M1025.578,589.7h-2.348V577h2.348l8.217,9.5h.107c-.107-2.348-.107-4.375-.107-6.189V577h2.241v12.7h-2.348l-8.217-9.5c.107,1.921.107,5.122.107,6.189Z" transform="translate(-992.497 -559.819)" fill="#fff"/>
      <path id="polygon76" d="M1052.312,589.785V577.192h11.526v2.028h-9.178v3.095h7.15v2.134h-7.15v3.308h9.6v2.028Z" transform="translate(-1005.464 -559.905)" fill="#fff"/>
      <path id="path78" d="M1084.587,585.2h-3.735v4.7H1078.5v-12.7h8.11c2.668,0,4.376,1.707,4.376,4.055a3.956,3.956,0,0,1-3.629,3.949l3.736,4.7h-2.988Zm1.707-2.134c1.494,0,2.348-.747,2.348-1.814a1.824,1.824,0,0,0-2.028-1.921h-5.763v3.841h5.443Z" transform="translate(-1017.143 -559.905)" fill="#fff"/>
      <path id="path80" d="M1106.633,586.8l-1.494,3.095h-2.561l6.189-12.7h2.455l6.189,12.7h-2.561l-1.494-3.095Zm.96-2.134h4.909l-2.454-5.122Z" transform="translate(-1027.878 -559.905)" fill="#fff"/>
      <path id="polygon82" d="M1132.622,589.785V577.192h2.348v10.565h8.43v2.028Z" transform="translate(-1041.274 -559.905)" fill="#fff"/>
      <path id="polygon84" d="M1154.962,589.785V577.192h11.525v2.028h-9.177v3.095h7.15v2.134h-7.15v3.308h9.6v2.028Z" transform="translate(-1051.236 -559.905)" fill="#fff"/>
    </g>
  </g>
</svg>
