<svg xmlns="http://www.w3.org/2000/svg" width="80.479" height="70.26" viewBox="0 0 80.479 70.26">
  <g id="Group_28285" data-name="Group 28285" transform="translate(-1304.832 -2855.64)">
    <path id="Path_5" data-name="Path 5" d="M191.293,585.852a2.528,2.528,0,0,0,1.991-1.522c.532-1.626.334-3.865-2.36-4.218a24.5,24.5,0,0,0-3.535-.131,1.815,1.815,0,0,0-2,2.077c-.009,2.387-.005,4.775,0,7.161,0,.815.136.923,1.083.923s1.082-.109,1.086-.921c0-1.047,0-2.1,0-3.128a1.7,1.7,0,0,1,1.967.885c.361.684.771,1.347,1.07,2.057a1.518,1.518,0,0,0,1.834,1.106c.3-.058.6-.135.9-.2a4.176,4.176,0,0,0-.254-1c-.553-1.016-1.156-2-1.789-3.082Zm-.937-1.654c-.885.116-1.784.129-2.779.192,0-.784-.042-1.426.024-2.059.022-.2.318-.533.5-.54a14.566,14.566,0,0,1,2.3.093,1.022,1.022,0,0,1,.913,1.137,1.062,1.062,0,0,1-.959,1.175Z" transform="translate(1119.445 2321.029)" fill="#fde268"/>
    <path id="Path_1" data-name="Path 1" d="M321.86,275.036l21.857-37.486a1.126,1.126,0,0,1-.047,1.329q-6.8,11.63-13.579,23.273a1.794,1.794,0,0,0-.284.774L344.4,240.669a.991.991,0,0,1-.05,1.223q-6.7,10.18-13.367,20.376a3.512,3.512,0,0,0-.531,1.076L345,243.5c.391.545.123.894-.15,1.265q-6.7,9.122-13.382,18.253a1.032,1.032,0,0,0-.246.595q7.156-8.76,14.322-17.529a.932.932,0,0,1-.1,1.1L332.35,263.225c-.12.148-.233.3-.349.454l.119.106,13.942-15.344a.877.877,0,0,1-.118,1.058q-6.506,7.156-13.009,14.315a.991.991,0,0,0-.3.6l13.923-13.793c.3.439.157.712-.154,1.019q-6.6,6.533-13.189,13.079a8.345,8.345,0,0,1-.647.53l.153.161,14.265-12.729c.37.436.16.7-.161.985q-9.94,8.858-19.869,17.728c-1.266,1.131-2.518,2.278-3.811,3.378a4.634,4.634,0,0,1-1.126.523l-.159-.257Z" transform="translate(1000.428 2619.655)" fill="#fde268"/>
    <path id="Path_2" data-name="Path 2" d="M501.182,239.725l3.988,18.39c-.542.061-.673-.2-.761-.609q-1.631-7.559-3.283-15.111-1.715-7.9-3.407-15.809a4.349,4.349,0,0,1,.1-1.233l.263-.023q10.958,18.8,21.918,37.59l-.184.179a4.258,4.258,0,0,1-.9-.833q-6.732-11.484-13.426-22.993a1.6,1.6,0,0,0-.563-.641l12.011,23.334a1.086,1.086,0,0,1-1.08-.728q-5.751-11.21-11.53-22.4a.481.481,0,0,0-.3-.272q5.052,11.219,10.121,22.481c-.646.054-.834-.334-1.024-.756q-4.585-10.2-9.179-20.389a1.2,1.2,0,0,0-.439-.574q4.056,10.435,8.119,20.9c-.652.081-.8-.341-.967-.771q-3.872-9.971-7.751-19.937a1.866,1.866,0,0,0-.393-.677q3.394,10.3,6.8,20.632c-.515.059-.719-.183-.863-.627q-3.118-9.52-6.265-19.03a1.213,1.213,0,0,0-.332-.568q2.649,9.733,5.3,19.479c-.627-.006-.631-.006-.8-.606l-4.858-17.772c-.06-.219-.132-.434-.2-.65l-.123.031Z" transform="translate(847.083 2630.311)" fill="#fde268"/>
    <path id="Path_3" data-name="Path 3" d="M336.91,457.808a8,8,0,0,1,.856-.356,2.123,2.123,0,0,1,.578-.01h28.551l0-.1-27.6-1.459c.284-.657.785-.582,1.278-.555q9.3.5,18.6,1,3.313.176,6.628.346a4.054,4.054,0,0,0,.968-.059l-25.257-2.661-.055-.225a2.551,2.551,0,0,1,.908-.278q9.648.976,19.293,2c1.409.148,2.818.311,4.227.46a1.183,1.183,0,0,0,.576-.075l-23.044-3.655a.783.783,0,0,1,.948-.481q8.269,1.32,16.539,2.632l5.089.812a.475.475,0,0,0,.363-.087l-21.083-4.488c.2-.564.577-.51.971-.427q6.488,1.385,12.975,2.765l6.864,1.464a.285.285,0,0,0,.269-.095l-19.442-5.216a.674.674,0,0,1,.935-.39q8.921,2.414,17.85,4.794a1.275,1.275,0,0,0,.71.031l-17.915-5.83c.224-.509.544-.482.93-.357q9.765,3.187,19.532,6.362c3.613,1.175,7.228,2.344,10.834,3.539a3.941,3.941,0,0,1,.87.57l-.1.2H336.976c-.022-.059-.044-.118-.067-.177Z" transform="translate(987.301 2436.791)" fill="#fde268"/>
    <path id="Path_4" data-name="Path 4" d="M745.86,582.222c-.01.2-.029.4-.029.6,0,2.021,0,4.042,0,6.063,0,.771-.152.893-1.049.894-.913,0-1.041-.1-1.042-.894q-.01-3.741,0-7.481c0-.7.035-1.4.863-1.692a2.273,2.273,0,0,1,2.588.606,7.047,7.047,0,0,1,.693,1.232c.755,1.66,1.487,3.332,2.233,5,.1.225.226.439.34.657l.169-.019a4.009,4.009,0,0,0,.079-.559c0-2.021,0-4.042,0-6.063,0-.878.106-.963,1.109-.958.849,0,.984.13.984.958q0,3.709,0,7.417c0,.684-.056,1.358-.815,1.669a2.372,2.372,0,0,1-2.518-.443,6.122,6.122,0,0,1-.792-1.317c-.781-1.7-1.531-3.408-2.3-5.113-.092-.206-.21-.4-.316-.6Z" transform="translate(632.514 2321.388)" fill="#fde268"/>
    <path id="Path_6" data-name="Path 6" d="M665.5,582.711a4.239,4.239,0,0,0-4.334-3.79c-2.681-.047-4.408,1.214-4.9,3.606-.108.523-.133,1.061-.2,1.594l.047.005c0,.193-.008.388,0,.581a4.472,4.472,0,0,0,3.929,4.607c2.705.423,4.933-.975,5.413-3.538a9.764,9.764,0,0,0,.037-3.063Zm-2.548,3.521a1.989,1.989,0,0,1-2.077,1.212,1.951,1.951,0,0,1-2.062-1.227,17.467,17.467,0,0,1-.5-2.083,15.837,15.837,0,0,1,.513-2.117,2.373,2.373,0,0,1,4.114.009,5.474,5.474,0,0,1,.008,4.207Z" transform="translate(708.961 2321.947)" fill="#fde268"/>
    <path id="Path_7" data-name="Path 7" d="M341.139,701.976c-.031-.1-.063-.2-.095-.307-.687-2.282-1.337-4.575-2.075-6.84a2.793,2.793,0,0,0-5.248-.074c-.839,2.548-1.575,5.129-2.332,7.7a.783.783,0,0,0,.116.645c.448.485,1.9.093,2.1-.542.155-.491.257-1,.45-1.476a.733.733,0,0,1,.518-.386c.728-.045,1.461-.024,2.191-.017.556.005,1.261-.173,1.628.1s.4.995.554,1.526c.261.871.359.953,1.253.956,1.163,0,1.279-.156.939-1.284Zm-6.5-3.14c.376-1.253.712-2.442,1.106-3.609a.718.718,0,0,1,.6-.344.859.859,0,0,1,.606.448c.372,1.135.68,2.291,1.03,3.506Z" transform="translate(992.137 2222.494)" fill="#fde268"/>
    <path id="Path_8" data-name="Path 8" d="M605.208,701.944c-.289-.967-.569-1.935-.87-2.9-.491-1.577-.945-3.168-1.513-4.717a2.307,2.307,0,0,0-2.432-1.439,2.4,2.4,0,0,0-2.451,1.426,18.685,18.685,0,0,0-.712,2.065q-.884,2.9-1.737,5.8c-.234.8-.056,1.014.772,1.022.15,0,.3-.009.45,0a.835.835,0,0,0,.966-.734c.1-.439.271-.862.358-1.3s.315-.579.758-.554c.685.038,1.375.01,2.063.01a2.023,2.023,0,0,1,2.138,1.6c.26.908.357.981,1.3.982,1.115,0,1.238-.168.911-1.257Zm-6.5-3.169c.363-1.234.683-2.407,1.069-3.556a.789.789,0,0,1,.633-.393.816.816,0,0,1,.6.45c.371,1.134.679,2.291,1.026,3.5Z" transform="translate(761.876 2222.552)" fill="#fde268"/>
    <path id="Path_9" data-name="Path 9" d="M546.227,583.3c.615-1.124,1.167-2.137,1.724-3.148a1.986,1.986,0,0,1,2.3-.657c.424.244.26.579.083.889-.679,1.2-1.344,2.4-2.057,3.576a.929.929,0,0,0,.005,1.109c.7,1.157,1.361,2.34,2.024,3.52.389.692.2.931-.568,1.023a1.762,1.762,0,0,1-2.058-1.2c-.389-.9-.925-1.728-1.452-2.688-.614,1.115-1.168,2.124-1.725,3.132a1.976,1.976,0,0,1-2.294.671c-.45-.263-.234-.634-.055-.951.653-1.161,1.3-2.328,1.994-3.464a1.017,1.017,0,0,0-.006-1.216c-.682-1.119-1.319-2.265-1.962-3.407-.434-.77-.256-1,.606-1.083a1.707,1.707,0,0,1,1.957,1.155c.4.9.935,1.737,1.485,2.737Z" transform="translate(808.493 2321.572)" fill="#fde268"/>
    <path id="Path_10" data-name="Path 10" d="M266.239,584.025c1.21,0,2.343,0,3.476,0,.76,0,.923.166.927.894,0,.748-.144.9-.9.907-1.134.005-2.269,0-3.481,0,0,.652-.027,1.246.008,1.835.032.539.489.548.867.554,1.2.021,2.406.008,3.608.014.816.005.939.134.934.941,0,.733-.163.892-.926.894q-2.223.006-4.446,0c-1.583-.006-2.232-.659-2.234-2.237q0-2.9,0-5.8a1.856,1.856,0,0,1,2.082-2.128c1.482-.019,2.965.006,4.446-.009.633-.006.817.319.807.89-.014.766-.129.94-.8.948-1.095.014-2.191-.005-3.286.009-.957.013-1.074.143-1.078,1.083,0,.364,0,.729,0,1.2Z" transform="translate(1050.829 2321.1)" fill="#fde268"/>
    <path id="Path_11" data-name="Path 11" d="M475.008,584.034c1.219,0,2.353,0,3.487,0,.753,0,.916.169.916.9s-.143.893-.914.9c-1.133.005-2.266,0-3.478,0,0,.638-.011,1.211,0,1.783.013.489.376.592.762.6,1.224.018,2.448.014,3.672.022.876.005.994.145.992,1.018,0,.569-.244.826-.813.822-1.59-.009-3.18.017-4.768-.009a1.839,1.839,0,0,1-2.03-2.114q-.01-2.966,0-5.931a1.855,1.855,0,0,1,2.092-2.118c1.482-.018,2.965.006,4.446-.009.639-.006.807.335.8.9-.015.758-.134.93-.811.937-1.095.013-2.191-.006-3.286.009-.948.013-1.064.144-1.067,1.095Z" transform="translate(868.762 2321.093)" fill="#fde268"/>
    <path id="Path_12" data-name="Path 12" d="M428.4,696.735a2.326,2.326,0,0,0-2.081-2.223,25.848,25.848,0,0,0-4.288-.212,1.627,1.627,0,0,0-1.633,1.807c-.027,2.536-.01,5.072-.009,7.609a.627.627,0,0,0,.723.7c.193,0,.386,0,.579,0,.706-.012.861-.166.866-.881.005-.75,0-1.5,0-2.344.689,0,1.293.047,1.885-.011a13.314,13.314,0,0,0,2.271-.384,2.167,2.167,0,0,0,1.613-1.765,8.574,8.574,0,0,0,.073-2.3Zm-3.186,2.482c-.84.124-1.7.121-2.649.179,0-.981,0-1.817,0-2.654a.615.615,0,0,1,.682-.684,14.589,14.589,0,0,1,1.924.112c.778.114,1.128.613,1.142,1.471C426.327,698.536,425.987,699.1,425.213,699.217Z" transform="translate(914.506 2221.335)" fill="#fde268"/>
    <path id="Path_13" data-name="Path 13" d="M338.822,584.067c1.256,0,2.433,0,3.611,0,.854,0,1.074.25,1.008,1.083a.72.72,0,0,1-.833.757c-1.224-.016-2.448-.005-3.724-.005a4.964,4.964,0,0,0-.059.509c-.006.8,0,1.591,0,2.387,0,1.161-.616,1.605-1.732,1.184a.833.833,0,0,1-.421-.626c-.027-2.58-.043-5.161,0-7.739a1.7,1.7,0,0,1,1.858-1.742c1.589-.047,3.181-.019,4.771-.013.637,0,.68.446.687.939.006.521-.11.9-.73.894q-1.612-.006-3.223,0c-1.117.006-1.21.105-1.211,1.214v1.152Z" transform="translate(987.536 2321.137)" fill="#fde268"/>
    <path id="Path_14" data-name="Path 14" d="M262.66,697.917a16.648,16.648,0,0,1,.237-1.717c.605-2.534,2.709-3.841,5.509-3.452.3.041.592.1.888.155.491.093.9.249.936.868.068,1.078-.111,1.23-1.193,1.111a9.554,9.554,0,0,0-2.17-.038,1.921,1.921,0,0,0-1.64,1.533,5.64,5.64,0,0,0-.015,3.053,2.064,2.064,0,0,0,2.045,1.654,17.933,17.933,0,0,0,1.985-.12c.4-.028.843-.178.967.427.164.8-.032,1.335-.62,1.49-3.773.986-6.912-.581-6.927-4.966Z" transform="translate(1052.054 2222.734)" fill="#fde268"/>
    <path id="Path_15" data-name="Path 15" d="M531.825,695.909c-.784,0-1.509.009-2.234,0a1.035,1.035,0,0,1-.9-1.646.894.894,0,0,1,.65-.3c2.385-.022,4.772-.009,7.157-.017.6,0,.769.335.778.865.014.812-.121,1.054-.747,1.087-.643.034-1.289.037-1.934.011-.445-.017-.595.136-.591.589.019,2.216.01,4.429.008,6.645,0,.9-.092.978-1.083.978s-1.1-.1-1.105-.968q0-3.225,0-6.451v-.789Z" transform="translate(820.223 2221.636)" fill="#fde268"/>
    <path id="Path_16" data-name="Path 16" d="M408.448,584.029c0,1.051,0,2.1,0,3.155,0,.79.156.95.932.959.966.01,1.931,0,2.9.005.827.008.993.178.994.974,0,.815-.164.986-.971.989-1.266,0-2.532.009-3.8,0-1.58-.013-2.225-.669-2.227-2.245q0-3.479,0-6.955c0-.868.122-.972,1.1-.971.957,0,1.071.1,1.072,1,0,1.031,0,2.06,0,3.091Z" transform="translate(926.809 2321.057)" fill="#fde268"/>
    <path id="Path_17" data-name="Path 17" d="M684.653,698.46v-3.543c0-.87.124-.986,1.016-.99.107,0,.215.006.322,0,.608-.038.843.255.839.852-.014,2.082-.006,4.164-.005,6.247,0,.991.115,1.1,1.109,1.109.966,0,1.931-.013,2.9.009.669.015.829.237.819,1.015-.01.737-.17.935-.824.94-1.352.01-2.7.019-4.056,0-1.462-.023-2.11-.7-2.115-2.159-.005-1.159,0-2.319,0-3.478Z" transform="translate(684.036 2221.649)" fill="#fde268"/>
    <path id="Path_18" data-name="Path 18" d="M623.955,584.925c0-1.4.015-2.8-.007-4.194-.009-.617.256-.871.853-.83.213.014.43,0,.645,0a.609.609,0,0,1,.693.665q.006,4.42,0,8.84a.61.61,0,0,1-.693.667h-.451c-.956,0-1.04-.083-1.041-1.022q0-2.064,0-4.13Z" transform="translate(736.976 2321.095)" fill="#fde268"/>
    <path id="Path_19" data-name="Path 19" d="M499.9,698.945c0-1.4.015-2.8-.006-4.194-.009-.616.256-.871.853-.83.214.014.43,0,.645,0a.609.609,0,0,1,.693.665q.006,4.42,0,8.84a.61.61,0,0,1-.693.667h-.452c-.955,0-1.04-.083-1.041-1.022q0-2.064,0-4.13Z" transform="translate(845.16 2221.657)" fill="#fde268"/>
  </g>
</svg>
