<svg xmlns="http://www.w3.org/2000/svg" xmlns:xlink="http://www.w3.org/1999/xlink" width="80" height="80" viewBox="0 0 80 80">
  <defs>
    <clipPath id="clip-path">
      <rect id="Rectangle_7049" data-name="Rectangle 7049" width="26.503" height="51.762" fill="#bf5af2" stroke="rgba(0,0,0,0)" stroke-width="1"/>
    </clipPath>
  </defs>
  <g id="Group_28230" data-name="Group 28230" transform="translate(-412 -2188)">
    <rect id="Rectangle_7045" data-name="Rectangle 7045" width="80" height="80" rx="17" transform="translate(412 2188)" fill="rgba(191,90,242,0.1)"/>
    <g id="Group_28221" data-name="Group 28221" transform="translate(425 2201)">
      <rect id="Rectangle_7044" data-name="Rectangle 7044" width="55" height="55" transform="translate(0 0)" fill="none"/>
      <g id="Group_28236" data-name="Group 28236" transform="translate(14.249 1.618)">
        <g id="Group_28235" data-name="Group 28235" clip-path="url(#clip-path)">
          <path id="Path_68553" data-name="Path 68553" d="M23.451,0A3.972,3.972,0,0,1,26.33,2.776,4.483,4.483,0,0,1,26.5,4.02q0,21.83,0,43.659a4,4,0,0,1-4.065,4.082q-9.185-.09-18.372,0A4,4,0,0,1,0,47.68Q.012,25.851,0,4.021A3.981,3.981,0,0,1,3.052,0ZM1.558,25.835q0,10.954,0,21.909A2.342,2.342,0,0,0,4,50.247q9.238.023,18.476,0a2.445,2.445,0,0,0,1.886-.819,2.6,2.6,0,0,0,.582-1.874q-.008-21.682,0-43.364c0-.152,0-.3,0-.454a2.281,2.281,0,0,0-1.864-2.208,15.821,15.821,0,0,0-2.618-.078c-.251-.008-.289.155-.308.364A2.24,2.24,0,0,1,17.575,4.18q-4.341,0-8.683,0A2.227,2.227,0,0,1,6.354,1.833c-.021-.279-.118-.391-.4-.386-.555.01-1.112.025-1.666,0A2.525,2.525,0,0,0,1.537,4.178c.05,7.219.021,14.438.021,21.657M13.3,1.449c-1.615,0-3.23,0-4.845,0-.2,0-.486-.115-.585.15a.791.791,0,0,0,.193.8.958.958,0,0,0,.778.289h8.832a.974.974,0,0,0,.741-.258.814.814,0,0,0,.235-.789c-.087-.326-.394-.188-.6-.189-1.581-.011-3.163-.006-4.744-.006" transform="translate(0)" fill="#bf5af2" stroke="rgba(0,0,0,0)" stroke-width="1"/>
          <path id="Path_68554" data-name="Path 68554" d="M52.561,137.814a.791.791,0,0,1-.383.671q-3.736,2.627-7.471,5.255a.883.883,0,0,1-1.118,0q-3.713-2.616-7.429-5.229a.782.782,0,0,1-.005-1.405c.761-.555,1.54-1.085,2.311-1.627.5-.352.5-.387.016-.729-.743-.523-1.491-1.039-2.23-1.566-.718-.512-.71-1.044.016-1.555,2.407-1.694,4.82-3.382,7.22-5.087a1.017,1.017,0,0,1,1.331,0c2.415,1.713,4.842,3.408,7.262,5.115.666.47.669,1.025.009,1.5-.751.54-1.514,1.064-2.271,1.6-.473.333-.474.375-.016.7q1.134.8,2.273,1.594a.884.884,0,0,1,.486.771M50.4,132.439c-.026-.164-.146-.208-.239-.274-1.9-1.336-3.8-2.668-5.693-4.01a.468.468,0,0,0-.629.005q-2.842,2.012-5.7,4c-.245.171-.29.281-.02.47q2.876,2.007,5.741,4.03a.457.457,0,0,0,.6,0q2.865-2.022,5.735-4.039a2.149,2.149,0,0,0,.208-.188m0,5.409c-.017-.17-.138-.217-.229-.282-.63-.448-1.269-.884-1.892-1.341a.424.424,0,0,0-.581.022c-.97.695-1.955,1.369-2.924,2.065a.945.945,0,0,1-1.243-.012c-.937-.683-1.893-1.34-2.84-2.009-.193-.136-.357-.277-.621-.079-.633.472-1.287.917-1.94,1.361-.259.176-.249.29.008.469q2.855,1.989,5.694,4a.467.467,0,0,0,.629.021c1.905-1.352,3.819-2.691,5.73-4.036a2.7,2.7,0,0,0,.21-.179" transform="translate(-30.898 -109.253)" fill="#bf5af2" stroke="rgba(0,0,0,0)" stroke-width="1"/>
        </g>
      </g>
    </g>
  </g>
</svg>
