<svg xmlns="http://www.w3.org/2000/svg" width="80" height="80" viewBox="0 0 80 80">
  <g id="Group_28230" data-name="Group 28230" transform="translate(-412 -2188)">
    <g id="Group_30441" data-name="Group 30441">
      <rect id="Rectangle_7045" data-name="Rectangle 7045" width="80" height="80" rx="17" transform="translate(412 2188)" fill="#ff0800"/>
      <g id="Group_29503" data-name="Group 29503" transform="translate(428.182 2197.641)">
        <path id="Path_80034" data-name="Path 80034" d="M855.41,1465.435a.321.321,0,0,0-.041-.066.425.425,0,1,0-.568.209.319.319,0,0,0,.319.31.314.314,0,0,0,.133-.029.318.318,0,0,0,.157-.423" transform="translate(-836.937 -1414.887)" fill="#fff"/>
        <path id="Path_80035" data-name="Path 80035" d="M818.983,1481.9a.319.319,0,0,0-.089-.1.426.426,0,1,0-.5.195.319.319,0,1,0,.586-.1" transform="translate(-802.03 -1430.596)" fill="#fff"/>
        <path id="Path_80036" data-name="Path 80036" d="M893.495,1453.286l0-.011a.425.425,0,1,0-.6.224.319.319,0,0,0,.3.208.325.325,0,0,0,.1-.016.319.319,0,0,0,.2-.4" transform="translate(-873.427 -1403.332)" fill="#fff"/>
        <path id="Path_80037" data-name="Path 80037" d="M808.79,1469.2a.318.318,0,0,0,.179-.055h0a.32.32,0,1,0-.179.055" transform="translate(-792.811 -1418.518)" fill="#fff"/>
        <path id="Path_80038" data-name="Path 80038" d="M996.808,1409.466a.319.319,0,0,0,.007.638h.007a.319.319,0,0,0-.014-.638" transform="translate(-972.84 -1361.939)" fill="#fff"/>
        <path id="Path_80039" data-name="Path 80039" d="M956.869,1412a.319.319,0,0,0,.042.635.274.274,0,0,0,.042,0,.319.319,0,0,0-.084-.632" transform="translate(-934.632 -1364.358)" fill="#fff"/>
        <path id="Path_80040" data-name="Path 80040" d="M1310.847,1333.448a.319.319,0,1,0,0,.638h0a.319.319,0,0,0,0-.638" transform="translate(-1273.515 -1289.154)" fill="#fff"/>
        <path id="Path_80041" data-name="Path 80041" d="M1076.568,1414.546a.3.3,0,0,0,.042,0,.32.32,0,1,0-.042,0" transform="translate(-1049.241 -1366.195)" fill="#fff"/>
        <path id="Path_80042" data-name="Path 80042" d="M843.093,1448.671a.319.319,0,1,0-.283-.171.318.318,0,0,0,.283.171" transform="translate(-825.656 -1398.865)" fill="#fff"/>
        <path id="Path_80043" data-name="Path 80043" d="M1196.058,1422.527h.023a.318.318,0,1,0-.023,0" transform="translate(-1163.609 -1373.834)" fill="#fff"/>
        <path id="Path_80044" data-name="Path 80044" d="M1036.824,1410.146a.319.319,0,0,0-.036.637h.018a.319.319,0,0,0,.017-.638" transform="translate(-1011.13 -1362.59)" fill="#fff"/>
        <path id="Path_80045" data-name="Path 80045" d="M879.544,1432.26a.312.312,0,0,0,.114-.021.318.318,0,1,0-.114.021" transform="translate(-860.556 -1383.152)" fill="#fff"/>
        <path id="Path_80046" data-name="Path 80046" d="M917.655,1420.193a.323.323,0,0,0,.079-.01.321.321,0,1,0-.079.01" transform="translate(-897.046 -1371.599)" fill="#fff"/>
        <path id="Path_80047" data-name="Path 80047" d="M1116.223,1419.739a.319.319,0,0,0-.073.634l.037,0a.319.319,0,0,0,.036-.636" transform="translate(-1087.134 -1371.773)" fill="#fff"/>
        <path id="Path_80048" data-name="Path 80048" d="M1156.073,1422.576h0a.319.319,0,0,0-.017.638h.009a.319.319,0,0,0,.009-.638" transform="translate(-1125.316 -1374.491)" fill="#fff"/>
        <path id="Path_80049" data-name="Path 80049" d="M1286.965,1358.067a.318.318,0,0,0-.279.022.433.433,0,0,0-.083-.142.328.328,0,0,0,.054-.079.319.319,0,1,0-.581-.012.425.425,0,0,0,.208.8h0a.423.423,0,0,0,.295-.119.317.317,0,0,0,.153.127.319.319,0,0,0,.234-.594" transform="translate(-1249.894 -1312.099)" fill="#fff"/>
        <path id="Path_80050" data-name="Path 80050" d="M708.763,1602.681a.425.425,0,0,0-.179-.09.305.305,0,0,0-.049-.049.319.319,0,0,0-.471.415.425.425,0,1,0,.7-.277" transform="translate(-696.631 -1546.737)" fill="#fff"/>
        <path id="Path_80051" data-name="Path 80051" d="M684.038,1635.043a.426.426,0,0,0-.155-.078.317.317,0,0,0-.464.175.425.425,0,1,0,.618-.1" transform="translate(-673.01 -1577.805)" fill="#fff"/>
        <path id="Path_80052" data-name="Path 80052" d="M696.318,1582.8a.425.425,0,0,0-.239-.678.319.319,0,0,0-.357.08.417.417,0,0,0-.071.071.425.425,0,0,0,.668.527" transform="translate(-684.702 -1527.227)" fill="#fff"/>
        <path id="Path_80053" data-name="Path 80053" d="M673.542,1615.891a.31.31,0,0,0,.085-.113.319.319,0,0,0-.125-.4.426.426,0,1,0,.039.516" transform="translate(-662.874 -1558.954)" fill="#fff"/>
        <path id="Path_80054" data-name="Path 80054" d="M748.1,1520.746a.319.319,0,0,0-.291-.312.425.425,0,0,0-.324-.716.319.319,0,1,0-.4.343.425.425,0,0,0,.417.507h.022a.319.319,0,0,0,.2.5.425.425,0,1,0,.375-.319" transform="translate(-733.808 -1467.231)" fill="#fff"/>
        <path id="Path_80055" data-name="Path 80055" d="M777.987,1494.481h0a.318.318,0,0,0-.135-.5.425.425,0,0,0-.438-.663.318.318,0,1,0-.312.255h.011a.424.424,0,0,0,.334.581.319.319,0,0,0,.444.407.425.425,0,1,0,.1-.08" transform="translate(-762.47 -1441.858)" fill="#fff"/>
        <path id="Path_80056" data-name="Path 80056" d="M721.044,1549.521a.426.426,0,0,0-.221-.118.323.323,0,0,0-.072-.08.319.319,0,0,0-.448.053h0a.319.319,0,0,0,.016.413.425.425,0,1,0,.726-.267" transform="translate(-708.328 -1495.781)" fill="#fff"/>
        <path id="Path_80057" data-name="Path 80057" d="M734.331,1572.016a.319.319,0,1,0-.495.379l.012.009a.425.425,0,1,0,.483-.389" transform="translate(-721.244 -1517.401)" fill="#fff"/>
        <path id="Path_80058" data-name="Path 80058" d="M1235.971,1413.443a.421.421,0,0,0-.288-.1.319.319,0,0,0-.16-.256.425.425,0,0,0-.62-.41.32.32,0,1,0-.131.106.425.425,0,0,0,.3.695.335.335,0,0,0,.027.054.318.318,0,0,0,.191.14.425.425,0,1,0,.687-.231" transform="translate(-1200.553 -1364.532)" fill="#fff"/>
        <path id="Path_80059" data-name="Path 80059" d="M1226.795,1465.894h0a.426.426,0,0,0,.226.786.42.42,0,0,0,.225-.065.425.425,0,0,0-.45-.722" transform="translate(-1193.151 -1415.905)" fill="#fff"/>
        <path id="Path_80060" data-name="Path 80060" d="M1266.742,1390.469a.421.421,0,0,0-.273-.013c.008-.013.015-.027.022-.041a.425.425,0,0,0-.2-.567l-.042-.017a.319.319,0,0,0-.479.143.419.419,0,0,0-.046.075h0a.426.426,0,0,0,.5.592.445.445,0,0,0-.034.068.425.425,0,0,0,.24.552.42.42,0,0,0,.156.03.425.425,0,0,0,.156-.821" transform="translate(-1230.576 -1343.083)" fill="#fff"/>
        <path id="Path_80061" data-name="Path 80061" d="M1210.463,1445.57a.426.426,0,1,0-.213.563.426.426,0,0,0,.213-.562" transform="translate(-1176.928 -1396.267)" fill="#fff"/>
        <path id="Path_80062" data-name="Path 80062" d="M655.026,1651.411,655,1651.4a.318.318,0,0,0-.106-.615.425.425,0,1,0-.522.633.418.418,0,0,0,.142.036.447.447,0,0,0-.074.087.425.425,0,1,0,.588-.125" transform="translate(-645.025 -1592.817)" fill="#fff"/>
        <path id="Path_80063" data-name="Path 80063" d="M640.461,1687.979a.425.425,0,1,0,.279.533.425.425,0,0,0-.279-.533" transform="translate(-631.419 -1628.588)" fill="#fff"/>
        <path id="Path_80064" data-name="Path 80064" d="M1190.195,1481.241a.425.425,0,1,0,.2.827h0a.425.425,0,0,0-.2-.827" transform="translate(-1157.988 -1430.649)" fill="#fff"/>
        <path id="Path_80065" data-name="Path 80065" d="M1171.912,1452.9a.423.423,0,0,0-.051-.173.312.312,0,0,0,0-.035.319.319,0,0,0-.606-.117.425.425,0,0,0,.233.781h.03a.425.425,0,0,0,.394-.454" transform="translate(-1139.981 -1403.04)" fill="#fff"/>
        <path id="Path_80066" data-name="Path 80066" d="M1012.59,1442.729a.319.319,0,0,0-.48-.168.425.425,0,0,0,.1.83h.024a.425.425,0,0,0,.352-.663" transform="translate(-987.504 -1393.575)" fill="#fff"/>
        <path id="Path_80067" data-name="Path 80067" d="M1031.177,1477.987a.425.425,0,0,0-.1.845l.048,0a.425.425,0,0,0,.047-.848" transform="translate(-1005.592 -1427.542)" fill="#fff"/>
        <path id="Path_80068" data-name="Path 80068" d="M972.242,1442.616a.425.425,0,0,0,.009.85h.01a.425.425,0,0,0-.019-.85" transform="translate(-949.218 -1393.679)" fill="#fff"/>
        <path id="Path_80069" data-name="Path 80069" d="M991.215,1475.648a.425.425,0,1,0,0,.851h0a.425.425,0,0,0,0-.851" transform="translate(-967.374 -1425.306)" fill="#fff"/>
        <path id="Path_80070" data-name="Path 80070" d="M1070.786,1483.526a.425.425,0,0,0-.1.845.378.378,0,0,0,.048,0,.425.425,0,0,0,.047-.848" transform="translate(-1043.516 -1432.847)" fill="#fff"/>
        <path id="Path_80071" data-name="Path 80071" d="M1110.641,1486.285a.425.425,0,1,0-.022.85h.011a.425.425,0,0,0,.011-.851" transform="translate(-1081.712 -1435.49)" fill="#fff"/>
        <path id="Path_80072" data-name="Path 80072" d="M1052.417,1445.162a.319.319,0,0,0-.593-.157.425.425,0,0,0,.165.784.408.408,0,0,0,.057,0,.425.425,0,0,0,.371-.631" transform="translate(-1025.618 -1395.817)" fill="#fff"/>
        <path id="Path_80073" data-name="Path 80073" d="M932.766,1445.508a.425.425,0,1,0-.5.474.317.317,0,0,0,.15.038.326.326,0,0,0,.068-.007.319.319,0,0,0,.248-.268.424.424,0,0,0,.037-.236" transform="translate(-911.009 -1396.094)" fill="#fff"/>
        <path id="Path_80074" data-name="Path 80074" d="M873.111,1494.572a.425.425,0,0,0,.135.829.43.43,0,0,0,.135-.021.426.426,0,0,0-.269-.807" transform="translate(-854.424 -1443.404)" fill="#fff"/>
        <path id="Path_80075" data-name="Path 80075" d="M835.884,1509.275a.425.425,0,1,0,.564.209.426.426,0,0,0-.564-.209" transform="translate(-818.821 -1457.465)" fill="#fff"/>
        <path id="Path_80076" data-name="Path 80076" d="M1150.578,1485.538a.425.425,0,0,0,.026.85h.027a.425.425,0,0,0-.053-.849" transform="translate(-1119.986 -1434.775)" fill="#fff"/>
        <path id="Path_80077" data-name="Path 80077" d="M1131.874,1453.477s0,0,0-.005a.319.319,0,0,0-.6-.149.425.425,0,0,0,.22.782h.011a.425.425,0,0,0,.374-.628" transform="translate(-1101.694 -1403.76)" fill="#fff"/>
        <path id="Path_80078" data-name="Path 80078" d="M951.235,1477.664a.425.425,0,0,0,.044.848.392.392,0,0,0,.045,0,.425.425,0,0,0-.089-.846" transform="translate(-929.139 -1427.234)" fill="#fff"/>
        <path id="Path_80079" data-name="Path 80079" d="M911.716,1484a.425.425,0,0,0,.089.841.4.4,0,0,0,.09-.01.425.425,0,1,0-.18-.831" transform="translate(-891.344 -1433.292)" fill="#fff"/>
        <path id="Path_80080" data-name="Path 80080" d="M1091.989,1450.709a.319.319,0,0,0-.6-.156.425.425,0,0,0,.179.781c.017,0,.034,0,.05,0a.425.425,0,0,0,.373-.629" transform="translate(-1063.506 -1401.113)" fill="#fff"/>
        <path id="Path_80081" data-name="Path 80081" d="M833.322,736.207a.319.319,0,1,0-.221-.089.318.318,0,0,0,.221.089" transform="translate(-816.3 -716.704)" fill="#fff"/>
        <path id="Path_80082" data-name="Path 80082" d="M861.672,707.991a.319.319,0,1,0-.231-.1.316.316,0,0,0,.231.1" transform="translate(-843.444 -689.689)" fill="#fff"/>
        <path id="Path_80083" data-name="Path 80083" d="M891.21,681.014a.319.319,0,1,0-.241-.109.318.318,0,0,0,.241.109" transform="translate(-871.726 -663.859)" fill="#fff"/>
        <path id="Path_80084" data-name="Path 80084" d="M805.993,765.532a.319.319,0,1,0-.029-.45.316.316,0,0,0,.029.45" transform="translate(-790.336 -744.859)" fill="#fff"/>
        <path id="Path_80085" data-name="Path 80085" d="M755.95,827.913a.319.319,0,1,0-.07-.446h0a.319.319,0,0,0,.069.446" transform="translate(-742.399 -804.568)" fill="#fff"/>
        <path id="Path_80086" data-name="Path 80086" d="M780.252,796.147a.319.319,0,1,0-.049-.449.318.318,0,0,0,.049.449" transform="translate(-765.679 -774.162)" fill="#fff"/>
        <path id="Path_80087" data-name="Path 80087" d="M953.614,630.992a.319.319,0,1,0-.257-.131.319.319,0,0,0,.257.131" transform="translate(-931.476 -615.965)" fill="#fff"/>
        <path id="Path_80088" data-name="Path 80088" d="M1090.093,547.882a.312.312,0,0,0,.141-.034.318.318,0,1,0-.141.034" transform="translate(-1062.15 -536.39)" fill="#fff"/>
        <path id="Path_80089" data-name="Path 80089" d="M921.871,655.338a.319.319,0,1,0-.249-.119.317.317,0,0,0,.249.119" transform="translate(-901.083 -639.275)" fill="#fff"/>
        <path id="Path_80090" data-name="Path 80090" d="M1126.28,530.859a.319.319,0,1,0-.292-.19.319.319,0,0,0,.292.19" transform="translate(-1096.798 -520.09)" fill="#fff"/>
        <path id="Path_80091" data-name="Path 80091" d="M1054.665,566.443a.314.314,0,0,0,.153-.04.318.318,0,1,0-.153.04" transform="translate(-1028.228 -554.16)" fill="#fff"/>
        <path id="Path_80092" data-name="Path 80092" d="M733.133,860.762a.319.319,0,1,0-.09-.442.318.318,0,0,0,.09.442" transform="translate(-720.541 -836.012)" fill="#fff"/>
        <path id="Path_80093" data-name="Path 80093" d="M1020.069,586.506a.319.319,0,1,0-.273-.153.318.318,0,0,0,.273.153" transform="translate(-995.104 -573.371)" fill="#fff"/>
        <path id="Path_80094" data-name="Path 80094" d="M986.362,608.035a.319.319,0,1,0-.265-.142.316.316,0,0,0,.265.142" transform="translate(-962.831 -593.984)" fill="#fff"/>
        <path id="Path_80095" data-name="Path 80095" d="M611.656,1195.673l.033,0a.32.32,0,1,0-.033,0" transform="translate(-604.093 -1156.63)" fill="#fff"/>
        <path id="Path_80096" data-name="Path 80096" d="M711.857,894.625a.319.319,0,1,0-.11-.438.316.316,0,0,0,.11.438" transform="translate(-700.158 -868.427)" fill="#fff"/>
        <path id="Path_80097" data-name="Path 80097" d="M608.879,1315.516a.319.319,0,0,0,.317-.321h0a.319.319,0,1,0-.319.321Z" transform="translate(-601.401 -1271.374)" fill="#fff"/>
        <path id="Path_80098" data-name="Path 80098" d="M608.642,1235.556h.016a.321.321,0,1,0-.016,0" transform="translate(-601.192 -1194.815)" fill="#fff"/>
        <path id="Path_80099" data-name="Path 80099" d="M607.737,1275.536h0a.319.319,0,1,0-.32-.318.319.319,0,0,0,.32.318" transform="translate(-600.31 -1233.094)" fill="#fff"/>
        <path id="Path_80100" data-name="Path 80100" d="M612.2,1355.012a.319.319,0,1,0-.27.361.318.318,0,0,0,.27-.361" transform="translate(-604.277 -1309.539)" fill="#fff"/>
        <path id="Path_80101" data-name="Path 80101" d="M634.05,1431.193a.319.319,0,1,0,.441.093.319.319,0,0,0-.441-.093" transform="translate(-625.67 -1382.692)" fill="#fff"/>
        <path id="Path_80102" data-name="Path 80102" d="M620.577,1394.043a.319.319,0,1,0-.307.407.313.313,0,0,0,.088-.013.319.319,0,0,0,.219-.395" transform="translate(-612.311 -1346.95)" fill="#fff"/>
        <path id="Path_80103" data-name="Path 80103" d="M616.787,1156.01a.341.341,0,0,0,.05,0,.318.318,0,1,0-.05,0" transform="translate(-609.022 -1118.656)" fill="#fff"/>
        <path id="Path_80104" data-name="Path 80104" d="M674.082,965.117a.319.319,0,1,0-.15-.425.318.318,0,0,0,.15.425" transform="translate(-663.965 -935.908)" fill="#fff"/>
        <path id="Path_80105" data-name="Path 80105" d="M692.158,929.434a.319.319,0,1,0-.131-.432.319.319,0,0,0,.131.432" transform="translate(-681.285 -901.75)" fill="#fff"/>
        <path id="Path_80106" data-name="Path 80106" d="M657.969,1001.711a.319.319,0,1,0-.183-.412.32.32,0,0,0,.183.412" transform="translate(-648.515 -970.936)" fill="#fff"/>
        <path id="Path_80107" data-name="Path 80107" d="M633.288,1077.768a.323.323,0,0,0,.083.011.32.32,0,1,0-.083-.011" transform="translate(-624.853 -1043.748)" fill="#fff"/>
        <path id="Path_80108" data-name="Path 80108" d="M644.62,1039.412a.316.316,0,0,0,.1.016.319.319,0,1,0-.1-.016" transform="translate(-635.718 -1007.028)" fill="#fff"/>
        <path id="Path_80109" data-name="Path 80109" d="M624,1116.668a.314.314,0,0,0,.066.007.319.319,0,1,0-.066-.007" transform="translate(-615.941 -1080.99)" fill="#fff"/>
        <path id="Path_80110" data-name="Path 80110" d="M1466.531,474.19a.319.319,0,1,0-.246-.116.316.316,0,0,0,.246.116" transform="translate(-1422.578 -465.832)" fill="#fff"/>
        <path id="Path_80111" data-name="Path 80111" d="M1418.6,1172.535a.319.319,0,0,0,.311.248.311.311,0,0,0,.072-.008.319.319,0,0,0,.239-.382h0a.319.319,0,0,0-.622.143" transform="translate(-1376.985 -1134.712)" fill="#fff"/>
        <path id="Path_80112" data-name="Path 80112" d="M1418.443,894.84a.319.319,0,1,0-.313.256.319.319,0,0,0,.313-.256" transform="translate(-1376.235 -868.836)" fill="#fff"/>
        <path id="Path_80113" data-name="Path 80113" d="M1426.483,855.985a.323.323,0,0,0,.072.008.319.319,0,1,0-.072-.008" transform="translate(-1384.301 -831.396)" fill="#fff"/>
        <path id="Path_80114" data-name="Path 80114" d="M1163.163,515.4a.319.319,0,1,0-.3-.2.321.321,0,0,0,.3.2" transform="translate(-1132.112 -505.289)" fill="#fff"/>
        <path id="Path_80115" data-name="Path 80115" d="M1403.343,1053.982h.011a.319.319,0,1,0-.33-.307h0a.319.319,0,0,0,.318.308" transform="translate(-1362.076 -1020.963)" fill="#fff"/>
        <path id="Path_80116" data-name="Path 80116" d="M1406.03,973.785a.319.319,0,1,0-.348.288h.03a.319.319,0,0,0,.317-.289" transform="translate(-1364.345 -944.454)" fill="#fff"/>
        <path id="Path_80117" data-name="Path 80117" d="M1403.254,1013.993a.33.33,0,1,0-.01,0h.01" transform="translate(-1361.992 -982.675)" fill="#fff"/>
        <path id="Path_80118" data-name="Path 80118" d="M665.8,1454.424a.319.319,0,0,0-.177.613.319.319,0,0,0,.177-.613" transform="translate(-655.819 -1404.973)" fill="#fff"/>
        <path id="Path_80119" data-name="Path 80119" d="M1459.3,1285.168a.319.319,0,1,0-.288.455.325.325,0,0,0,.136-.03.32.32,0,0,0,.153-.425" transform="translate(-1415.38 -1242.752)" fill="#fff"/>
        <path id="Path_80120" data-name="Path 80120" d="M1411.2,1133.546a.312.312,0,0,0,.052,0,.319.319,0,1,0-.052,0" transform="translate(-1369.597 -1097.143)" fill="#fff"/>
        <path id="Path_80121" data-name="Path 80121" d="M1443.072,1248.942a.313.313,0,0,0,.118-.023.319.319,0,0,0,.178-.415h0a.319.319,0,1,0-.593.237h0a.319.319,0,0,0,.3.2" transform="translate(-1400.116 -1207.632)" fill="#fff"/>
        <path id="Path_80122" data-name="Path 80122" d="M1406,1093.889l.032,0a.317.317,0,1,0-.032,0" transform="translate(-1364.621 -1059.173)" fill="#fff"/>
        <path id="Path_80123" data-name="Path 80123" d="M1435.74,816.735a.319.319,0,0,0,.229.389.309.309,0,0,0,.08.01.319.319,0,1,0-.309-.4" transform="translate(-1393.391 -794.189)" fill="#fff"/>
        <path id="Path_80124" data-name="Path 80124" d="M1429.33,1211.385a.319.319,0,1,0-.3-.218.319.319,0,0,0,.3.218" transform="translate(-1386.959 -1171.671)" fill="#fff"/>
        <path id="Path_80125" data-name="Path 80125" d="M1411.028,934.123a.319.319,0,1,0-.365.265.351.351,0,0,0,.05,0,.319.319,0,0,0,.315-.269" transform="translate(-1369.133 -906.46)" fill="#fff"/>
        <path id="Path_80126" data-name="Path 80126" d="M1350.736,522.787a.319.319,0,1,0-.23-.1.321.321,0,0,0,.23.1" transform="translate(-1311.708 -512.361)" fill="#fff"/>
        <path id="Path_80127" data-name="Path 80127" d="M1318.111,499.856a.314.314,0,0,0,.13.028.32.32,0,1,0-.13-.028" transform="translate(-1280.595 -490.433)" fill="#fff"/>
        <path id="Path_80128" data-name="Path 80128" d="M1372.979,549.521a.478.478,0,0,0,.038.487.637.637,0,0,0,.117.579.63.63,0,0,0,.183.154.786.786,0,0,0-.065.235.8.8,0,0,0,.7.884.781.781,0,0,0,.094.005.8.8,0,0,0,.211-1.566.637.637,0,0,0-.392-.707.477.477,0,0,0-.365-.329.316.316,0,0,0-.069-.188.319.319,0,1,0-.5.4.314.314,0,0,0,.046.047" transform="translate(-1333.198 -538.029)" fill="#fff"/>
        <path id="Path_80129" data-name="Path 80129" d="M1279.519,490.87h.012a.322.322,0,1,0-.012,0" transform="translate(-1243.531 -481.802)" fill="#fff"/>
        <path id="Path_80130" data-name="Path 80130" d="M1200.607,501.376a.319.319,0,1,0-.3-.224.319.319,0,0,0,.3.224" transform="translate(-1167.964 -491.861)" fill="#fff"/>
        <path id="Path_80131" data-name="Path 80131" d="M1239.619,492.769l.043,0h0a.321.321,0,1,0-.042,0" transform="translate(-1205.317 -483.62)" fill="#fff"/>
        <path id="Path_80132" data-name="Path 80132" d="M1404.172,524.483a.479.479,0,0,0,.057.512.49.49,0,0,0,.08.078.638.638,0,1,0,.769-.4.476.476,0,0,0-.382-.45.319.319,0,1,0-.567.215.334.334,0,0,0,.042.043" transform="translate(-1363.069 -514.058)" fill="#fff"/>
        <path id="Path_80133" data-name="Path 80133" d="M1435.315,499.369a.479.479,0,1,0,.5-.253.319.319,0,1,0-.567.195.312.312,0,0,0,.062.058" transform="translate(-1392.867 -489.997)" fill="#fff"/>
        <path id="Path_80134" data-name="Path 80134" d="M1503.246,460.9h.019a.317.317,0,1,0-.019,0" transform="translate(-1457.748 -453.11)" fill="#fff"/>
        <path id="Path_80135" data-name="Path 80135" d="M1446.294,778.146a.319.319,0,1,0,.395-.218.319.319,0,0,0-.395.218" transform="translate(-1403.495 -757.249)" fill="#fff"/>
        <path id="Path_80136" data-name="Path 80136" d="M1537.661,478.973a.319.319,0,1,0-.247-.117.316.316,0,0,0,.247.117" transform="translate(-1490.682 -470.411)" fill="#fff"/>
        <path id="Path_80137" data-name="Path 80137" d="M1470.844,702.327a.319.319,0,1,0-.1-.018.324.324,0,0,0,.1.018" transform="translate(-1426.707 -684.265)" fill="#fff"/>
        <path id="Path_80138" data-name="Path 80138" d="M1458.1,740.259a.325.325,0,0,0,.1.015.318.318,0,1,0-.1-.015" transform="translate(-1414.601 -720.598)" fill="#fff"/>
        <path id="Path_80139" data-name="Path 80139" d="M1484.4,664.716a.332.332,0,0,0,.113.021.319.319,0,0,0,.3-.206h0a.319.319,0,1,0-.412.185" transform="translate(-1439.799 -648.273)" fill="#fff"/>
        <path id="Path_80140" data-name="Path 80140" d="M1127.571,1376.292a.319.319,0,1,0-.063.635l.032,0a.319.319,0,0,0,.031-.636" transform="translate(-1098.004 -1330.175)" fill="#fff"/>
        <path id="Path_80141" data-name="Path 80141" d="M928.782,1369.122a.319.319,0,0,0,.068.631.3.3,0,0,0,.068-.007.319.319,0,0,0-.136-.624" transform="translate(-907.766 -1323.304)" fill="#fff"/>
        <path id="Path_80142" data-name="Path 80142" d="M890.347,1380.252a.319.319,0,0,0,.109.619.327.327,0,0,0,.109-.019.319.319,0,0,0-.218-.6" transform="translate(-871.004 -1333.949)" fill="#fff"/>
        <path id="Path_80143" data-name="Path 80143" d="M1414.513,1405.149a.319.319,0,1,0-.03.637h.015a.319.319,0,0,0,.015-.637" transform="translate(-1372.757 -1357.805)" fill="#fff"/>
        <path id="Path_80144" data-name="Path 80144" d="M1087.822,1371.917a.319.319,0,1,0-.076.633l.038,0a.319.319,0,0,0,.038-.635" transform="translate(-1059.939 -1325.984)" fill="#fff"/>
        <path id="Path_80145" data-name="Path 80145" d="M853.7,1396.31a.319.319,0,1,0,.427.146.319.319,0,0,0-.427-.146" transform="translate(-835.948 -1349.311)" fill="#fff"/>
        <path id="Path_80146" data-name="Path 80146" d="M1454.47,1405.743a.319.319,0,0,0,.011.638h.012a.319.319,0,0,0-.023-.638" transform="translate(-1411.041 -1358.374)" fill="#fff"/>
        <path id="Path_80147" data-name="Path 80147" d="M1167.323,1380.432a.319.319,0,0,0-.023.637h.012a.319.319,0,0,0,.011-.637" transform="translate(-1136.084 -1334.14)" fill="#fff"/>
        <path id="Path_80148" data-name="Path 80148" d="M1048.144,1366.926a.319.319,0,0,0-.083.633l.042,0a.319.319,0,0,0,.041-.635" transform="translate(-1021.946 -1321.205)" fill="#fff"/>
        <path id="Path_80149" data-name="Path 80149" d="M1477.386,1320.82a.319.319,0,1,0-.128.433.319.319,0,0,0,.128-.433" transform="translate(-1432.703 -1276.904)" fill="#fff"/>
        <path id="Path_80150" data-name="Path 80150" d="M968.355,1363.214a.319.319,0,0,0,.026.637h.026a.319.319,0,1,0-.052-.636" transform="translate(-945.615 -1317.653)" fill="#fff"/>
        <path id="Path_80151" data-name="Path 80151" d="M1008.363,1362.618a.319.319,0,0,0-.033.637h.017a.319.319,0,0,0,.016-.637" transform="translate(-983.88 -1317.083)" fill="#fff"/>
        <path id="Path_80152" data-name="Path 80152" d="M1375.15,1400.841a.319.319,0,0,0-.287.57h0a.319.319,0,1,0,.287-.57" transform="translate(-1334.946 -1353.648)" fill="#fff"/>
        <path id="Path_80153" data-name="Path 80153" d="M1274.336,1335.642a.319.319,0,1,0,.451-.02.319.319,0,0,0-.451.02" transform="translate(-1238.782 -1291.155)" fill="#fff"/>
        <path id="Path_80154" data-name="Path 80154" d="M1206.855,1376.15a.319.319,0,0,0,.079.628.328.328,0,0,0,.08-.01.319.319,0,0,0-.159-.618" transform="translate(-1174.023 -1330.03)" fill="#fff"/>
        <path id="Path_80155" data-name="Path 80155" d="M1513.9,589.67a.319.319,0,1,0,.174.416h0a.319.319,0,0,0-.174-.416" transform="translate(-1467.818 -576.987)" fill="#fff"/>
        <path id="Path_80156" data-name="Path 80156" d="M744.186,1444.773a.319.319,0,1,0,.4.218.319.319,0,0,0-.4-.218" transform="translate(-731.04 -1395.732)" fill="#fff"/>
        <path id="Path_80157" data-name="Path 80157" d="M1545.112,516.032a.319.319,0,1,0,.209.4.319.319,0,0,0-.209-.4" transform="translate(-1497.725 -506.491)" fill="#fff"/>
        <path id="Path_80158" data-name="Path 80158" d="M1243.536,1360.8a.319.319,0,1,0,.438.109.318.318,0,0,0-.438-.109" transform="translate(-1209.224 -1315.296)" fill="#fff"/>
        <path id="Path_80159" data-name="Path 80159" d="M1529.332,552.764a.319.319,0,0,0-.25.587.325.325,0,0,0,.125.026.319.319,0,0,0,.125-.613" transform="translate(-1482.587 -541.65)" fill="#fff"/>
        <path id="Path_80160" data-name="Path 80160" d="M705.189,1453.343h0a.319.319,0,0,0,.048.635.3.3,0,0,0,.049,0h0a.319.319,0,0,0-.1-.631" transform="translate(-693.664 -1403.946)" fill="#fff"/>
        <path id="Path_80161" data-name="Path 80161" d="M1499.02,626.8a.319.319,0,1,0-.232.594.309.309,0,0,0,.116.022.319.319,0,0,0,.116-.616" transform="translate(-1453.573 -612.542)" fill="#fff"/>
        <path id="Path_80162" data-name="Path 80162" d="M817.786,1413.92a.319.319,0,0,0,.141.605.312.312,0,0,0,.14-.033.319.319,0,1,0-.281-.572" transform="translate(-801.559 -1366.172)" fill="#fff"/>
        <path id="Path_80163" data-name="Path 80163" d="M1490.921,1392.822a.319.319,0,1,0,.033.45.319.319,0,0,0-.033-.45" transform="translate(-1445.73 -1345.928)" fill="#fff"/>
        <path id="Path_80164" data-name="Path 80164" d="M781.767,1431.261a.319.319,0,1,0,.42.165.319.319,0,0,0-.42-.165" transform="translate(-767.06 -1382.782)" fill="#fff"/>
        <path id="Path_80165" data-name="Path 80165" d="M1497.421,1355.422a.319.319,0,0,0-.594.232h0a.32.32,0,0,0,.3.2.316.316,0,0,0,.116-.022.319.319,0,0,0,.181-.413Z" transform="translate(-1451.869 -1309.999)" fill="#fff"/>
        <path id="Path_80166" data-name="Path 80166" d="M1275.292,530.562a.468.468,0,0,0,.1.011.478.478,0,1,0-.1-.011" transform="translate(-1239.419 -519.512)" fill="#fff"/>
        <path id="Path_80167" data-name="Path 80167" d="M1179.278,1338.445h0a.478.478,0,0,0,.071.952.455.455,0,0,0,.072-.006.478.478,0,1,0-.143-.946" transform="translate(-1147.457 -1293.933)" fill="#fff"/>
        <path id="Path_80168" data-name="Path 80168" d="M1311.2,547.032a.478.478,0,1,0,.572-.767h0a.479.479,0,0,0-.572.767" transform="translate(-1273.974 -535.361)" fill="#fff"/>
        <path id="Path_80169" data-name="Path 80169" d="M1235.58,528.729h.033a.477.477,0,1,0-.033,0" transform="translate(-1201.297 -517.745)" fill="#fff"/>
        <path id="Path_80170" data-name="Path 80170" d="M1217.092,1326.409a.479.479,0,1,0,.642.213.479.479,0,0,0-.642-.213" transform="translate(-1183.8 -1282.365)" fill="#fff"/>
        <path id="Path_80171" data-name="Path 80171" d="M1099.81,1333.9a.478.478,0,1,0-.105.951h0a.478.478,0,1,0,.106-.951" transform="translate(-1071.25 -1289.584)" fill="#fff"/>
        <path id="Path_80172" data-name="Path 80172" d="M1015.371,619.409a.479.479,0,1,0-.407-.226.476.476,0,0,0,.407.226" transform="translate(-990.453 -604.568)" fill="#fff"/>
        <path id="Path_80173" data-name="Path 80173" d="M1085.221,580.484a.478.478,0,1,0-.429-.265.477.477,0,0,0,.429.265" transform="translate(-1057.332 -567.299)" fill="#fff"/>
        <path id="Path_80174" data-name="Path 80174" d="M1196.153,535.132a.492.492,0,0,0,.121-.015.478.478,0,1,0-.121.015" transform="translate(-1163.547 -523.876)" fill="#fff"/>
        <path id="Path_80175" data-name="Path 80175" d="M981.894,641.292a.479.479,0,1,0-.395-.208.475.475,0,0,0,.395.208" transform="translate(-958.4 -625.521)" fill="#fff"/>
        <path id="Path_80176" data-name="Path 80176" d="M1060.1,1329.132a.478.478,0,1,0-.121.949.518.518,0,0,0,.061,0,.479.479,0,0,0,.06-.953" transform="translate(-1033.219 -1285.018)" fill="#fff"/>
        <path id="Path_80177" data-name="Path 80177" d="M1049.839,599.123a.479.479,0,1,0-.418-.246.478.478,0,0,0,.418.246" transform="translate(-1023.455 -585.146)" fill="#fff"/>
        <path id="Path_80178" data-name="Path 80178" d="M1158.414,548.292a.479.479,0,1,0-.447-.307.478.478,0,0,0,.447.307" transform="translate(-1127.413 -536.476)" fill="#fff"/>
        <path id="Path_80179" data-name="Path 80179" d="M1475.559,503.46a.478.478,0,0,0,.261.624.472.472,0,0,0,.181.036.478.478,0,1,0-.442-.66" transform="translate(-1431.492 -494.183)" fill="#fff"/>
        <path id="Path_80180" data-name="Path 80180" d="M1139.6,1338.117a.479.479,0,0,0-.159.944.525.525,0,0,0,.08.006.478.478,0,0,0,.079-.95" transform="translate(-1109.322 -1293.618)" fill="#fff"/>
        <path id="Path_80181" data-name="Path 80181" d="M1121.442,563.527a.479.479,0,1,0-.438-.286.477.477,0,0,0,.438.286" transform="translate(-1092.013 -551.063)" fill="#fff"/>
        <path id="Path_80182" data-name="Path 80182" d="M1398.4,834.215a.479.479,0,1,0,.581-.347.479.479,0,0,0-.581.347" transform="translate(-1357.638 -810.808)" fill="#fff"/>
        <path id="Path_80183" data-name="Path 80183" d="M1433.364,1362.241a.478.478,0,1,0-.467.584.511.511,0,0,0,.106-.012.478.478,0,0,0,.361-.573" transform="translate(-1390.222 -1316.365)" fill="#fff"/>
        <path id="Path_80184" data-name="Path 80184" d="M1349.189,1360.822h0a.478.478,0,0,0-.545.4.487.487,0,0,0-.005.068l-.018.009a.319.319,0,1,0,.417.467h.007a.5.5,0,0,0,.073.005.479.479,0,0,0,.072-.952" transform="translate(-1309.837 -1315.358)" fill="#fff"/>
        <path id="Path_80185" data-name="Path 80185" d="M1393,1362.811a.478.478,0,0,0-.032.956h.016a.479.479,0,0,0,.016-.957" transform="translate(-1352.002 -1317.268)" fill="#fff"/>
        <path id="Path_80186" data-name="Path 80186" d="M1420.846,756.92a.478.478,0,1,0-.288.912.47.47,0,0,0,.144.023.479.479,0,0,0,.144-.935" transform="translate(-1378.544 -737.126)" fill="#fff"/>
        <path id="Path_80187" data-name="Path 80187" d="M1408.749,795.557a.479.479,0,1,0,.591-.33.479.479,0,0,0-.591.33" transform="translate(-1367.541 -773.808)" fill="#fff"/>
        <path id="Path_80188" data-name="Path 80188" d="M1501.341,533.12a.462.462,0,0,0,.1-.011.477.477,0,1,0-.1.011" transform="translate(-1455.754 -521.949)" fill="#fff"/>
        <path id="Path_80189" data-name="Path 80189" d="M1415.547,1262.807a.478.478,0,0,0-.905.257.638.638,0,1,0,.7.375.478.478,0,0,0,.2-.632" transform="translate(-1372.702 -1221.262)" fill="#fff"/>
        <path id="Path_80190" data-name="Path 80190" d="M679.3,1397.1a.479.479,0,1,0,.053.675.479.479,0,0,0-.053-.675" transform="translate(-668.378 -1349.99)" fill="#fff"/>
        <path id="Path_80191" data-name="Path 80191" d="M1389.223,873.156a.479.479,0,0,0,.365.57.473.473,0,0,0,.1.011.479.479,0,1,0-.468-.582" transform="translate(-1348.852 -848.08)" fill="#fff"/>
        <path id="Path_80192" data-name="Path 80192" d="M1371.694,992.228h.026a.479.479,0,1,0-.478-.5h0a.478.478,0,0,0,.452.5" transform="translate(-1331.646 -961.532)" fill="#fff"/>
        <path id="Path_80193" data-name="Path 80193" d="M1413.438,606.638a.478.478,0,1,0-.02-.881.637.637,0,0,0-.827-.832.8.8,0,0,0-.02-.329h0a.8.8,0,1,0-.382.908.637.637,0,0,0,.963.562.478.478,0,0,0,.285.573" transform="translate(-1369.719 -590.741)" fill="#fff"/>
        <path id="Path_80194" data-name="Path 80194" d="M1385.545,1151.1a.469.469,0,0,0,.108-.012.479.479,0,1,0-.108.012" transform="translate(-1344.884 -1113.648)" fill="#fff"/>
        <path id="Path_80195" data-name="Path 80195" d="M1492.656,570.872a.479.479,0,1,0-.439.289.479.479,0,0,0,.439-.289" transform="translate(-1447.018 -558.373)" fill="#fff"/>
        <path id="Path_80196" data-name="Path 80196" d="M1445.614,1298.782a.478.478,0,1,0-.415-.24.474.474,0,0,0,.415.24" transform="translate(-1402.396 -1255.047)" fill="#fff"/>
        <path id="Path_80197" data-name="Path 80197" d="M1249.289,1303.221a.478.478,0,1,0,.677,0,.478.478,0,0,0-.677,0" transform="translate(-1214.746 -1260.079)" fill="#fff"/>
        <path id="Path_80198" data-name="Path 80198" d="M1456.322,588.607a.477.477,0,0,0-.33-.014.638.638,0,1,0-.324.369.479.479,0,1,0,.654-.355" transform="translate(-1411.604 -575.173)" fill="#fff"/>
        <path id="Path_80199" data-name="Path 80199" d="M1370.985,1032.213h.008a.483.483,0,1,0-.008,0" transform="translate(-1330.942 -999.815)" fill="#fff"/>
        <path id="Path_80200" data-name="Path 80200" d="M1377.917,1111.845a.451.451,0,0,0,.075-.006.478.478,0,0,0,.4-.547h0a.479.479,0,1,0-.473.553" transform="translate(-1337.58 -1076.06)" fill="#fff"/>
        <path id="Path_80201" data-name="Path 80201" d="M1381.076,912.331a.479.479,0,0,0,.378.562.488.488,0,0,0,.092.009.479.479,0,1,0-.47-.571" transform="translate(-1341.054 -885.578)" fill="#fff"/>
        <path id="Path_80202" data-name="Path 80202" d="M1374.767,951.852a.478.478,0,0,0,.416.534.471.471,0,0,0,.06,0,.479.479,0,1,0-.475-.538" transform="translate(-1335.018 -923.386)" fill="#fff"/>
        <path id="Path_80203" data-name="Path 80203" d="M1373.053,1072.152l.042,0a.476.476,0,1,0-.042,0" transform="translate(-1332.923 -1038.055)" fill="#fff"/>
        <path id="Path_80204" data-name="Path 80204" d="M1458.768,1334.4a.479.479,0,0,0-.152.945.465.465,0,0,0,.077.006.479.479,0,0,0,.076-.951" transform="translate(-1414.919 -1290.061)" fill="#fff"/>
        <path id="Path_80205" data-name="Path 80205" d="M645.205,1244.1a.478.478,0,0,0,0,.957h0a.478.478,0,1,0,0-.956" transform="translate(-636.034 -1203.604)" fill="#fff"/>
        <path id="Path_80206" data-name="Path 80206" d="M655.575,1125.214a.479.479,0,1,0-.471.4.478.478,0,0,0,.471-.4" transform="translate(-645.509 -1089.241)" fill="#fff"/>
        <path id="Path_80207" data-name="Path 80207" d="M663.462,1086.032a.479.479,0,1,0-.574.358.488.488,0,0,0,.109.012.478.478,0,0,0,.466-.37" transform="translate(-653.065 -1051.7)" fill="#fff"/>
        <path id="Path_80208" data-name="Path 80208" d="M646.216,1204.113a.479.479,0,0,0-.051.956h.026a.478.478,0,0,0,.026-.956" transform="translate(-636.975 -1165.319)" fill="#fff"/>
        <path id="Path_80209" data-name="Path 80209" d="M685.984,1009.378a.478.478,0,1,0-.612.29.486.486,0,0,0,.161.028.479.479,0,0,0,.45-.318" transform="translate(-674.645 -978.255)" fill="#fff"/>
        <path id="Path_80210" data-name="Path 80210" d="M717.686,936a.479.479,0,1,0,.646-.2.479.479,0,0,0-.646.2" transform="translate(-705.836 -908.368)" fill="#fff"/>
        <path id="Path_80211" data-name="Path 80211" d="M700.075,971.949h0a.478.478,0,1,0,.635-.235.479.479,0,0,0-.635.235" transform="translate(-688.984 -942.763)" fill="#fff"/>
        <path id="Path_80212" data-name="Path 80212" d="M737.082,901a.478.478,0,1,0,.655-.17.479.479,0,0,0-.655.17" transform="translate(-724.396 -874.873)" fill="#fff"/>
        <path id="Path_80213" data-name="Path 80213" d="M758.218,867.02a.478.478,0,1,0,.8.526h0a.479.479,0,0,0-.8-.526" transform="translate(-744.62 -842.358)" fill="#fff"/>
        <path id="Path_80214" data-name="Path 80214" d="M940.679,1328.918a.478.478,0,0,0,.1.947.469.469,0,0,0,.1-.01.478.478,0,0,0-.2-.937" transform="translate(-919.032 -1284.807)" fill="#fff"/>
        <path id="Path_80215" data-name="Path 80215" d="M793.415,1390.5a.478.478,0,1,0,.619.274.478.478,0,0,0-.619-.274" transform="translate(-778.103 -1343.748)" fill="#fff"/>
        <path id="Path_80216" data-name="Path 80216" d="M755.286,1402.239a.479.479,0,0,0,.108.945.472.472,0,0,0,.108-.012.479.479,0,1,0-.217-.932" transform="translate(-741.534 -1355.007)" fill="#fff"/>
        <path id="Path_80217" data-name="Path 80217" d="M716,1409.168a.478.478,0,0,0,.035.956h.035a.479.479,0,1,0-.07-.954" transform="translate(-703.849 -1361.652)" fill="#fff"/>
        <path id="Path_80218" data-name="Path 80218" d="M646.324,1285.032a.478.478,0,1,0-.489-.468h0a.479.479,0,0,0,.478.468h.011" transform="translate(-637.093 -1241.881)" fill="#fff"/>
        <path id="Path_80219" data-name="Path 80219" d="M660.086,1363.533a.478.478,0,1,0-.151.025.478.478,0,0,0,.151-.025" transform="translate(-650.135 -1317.067)" fill="#fff"/>
        <path id="Path_80220" data-name="Path 80220" d="M902.19,1339.936a.478.478,0,1,0,.614.284.479.479,0,0,0-.614-.284" transform="translate(-882.244 -1295.338)" fill="#fff"/>
        <path id="Path_80221" data-name="Path 80221" d="M650.262,1324.8a.48.48,0,1,0-.083.007.5.5,0,0,0,.083-.007" transform="translate(-640.795 -1279.963)" fill="#fff"/>
        <path id="Path_80222" data-name="Path 80222" d="M673.019,1047.7a.484.484,0,0,0,.135.02.479.479,0,1,0-.459-.613h0a.478.478,0,0,0,.324.594" transform="translate(-662.792 -1014.66)" fill="#fff"/>
        <path id="Path_80223" data-name="Path 80223" d="M865.627,1356.218a.479.479,0,1,0,.64.219.479.479,0,0,0-.64-.219" transform="translate(-847.28 -1310.909)" fill="#fff"/>
        <path id="Path_80224" data-name="Path 80224" d="M781.047,834.151a.478.478,0,1,0,.669-.1.478.478,0,0,0-.669.1" transform="translate(-766.466 -810.906)" fill="#fff"/>
        <path id="Path_80225" data-name="Path 80225" d="M829.713,1373.834a.479.479,0,1,0,.64.219.478.478,0,0,0-.64-.219" transform="translate(-812.894 -1327.775)" fill="#fff"/>
        <path id="Path_80226" data-name="Path 80226" d="M649.971,1164.787a.479.479,0,1,0-.529.422l.054,0a.478.478,0,0,0,.475-.425" transform="translate(-640.14 -1127.157)" fill="#fff"/>
        <path id="Path_80227" data-name="Path 80227" d="M888.134,716.024a.479.479,0,1,0-.352-.154.476.476,0,0,0,.352.154" transform="translate(-868.629 -697.074)" fill="#fff"/>
        <path id="Path_80228" data-name="Path 80228" d="M1020.395,1324.187a.478.478,0,1,0-.083.953l.042,0a.479.479,0,0,0,.041-.955" transform="translate(-995.224 -1280.285)" fill="#fff"/>
        <path id="Path_80229" data-name="Path 80229" d="M859.334,743.788a.478.478,0,1,0-.337-.138.476.476,0,0,0,.337.138" transform="translate(-841.053 -723.658)" fill="#fff"/>
        <path id="Path_80230" data-name="Path 80230" d="M949.482,664.724a.478.478,0,1,0-.381-.189.479.479,0,0,0,.381.189" transform="translate(-927.367 -647.956)" fill="#fff"/>
        <path id="Path_80231" data-name="Path 80231" d="M918.2,689.654a.478.478,0,1,0-.367-.171.476.476,0,0,0,.367.171" transform="translate(-897.418 -671.826)" fill="#fff"/>
        <path id="Path_80232" data-name="Path 80232" d="M831.551,772.739a.479.479,0,1,0-.035-.676.477.477,0,0,0,.035.676" transform="translate(-814.758 -751.495)" fill="#fff"/>
        <path id="Path_80233" data-name="Path 80233" d="M980.358,1323.629a.478.478,0,0,0,.028.956h.029a.478.478,0,0,0-.057-.955" transform="translate(-956.957 -1279.752)" fill="#fff"/>
        <path id="Path_80234" data-name="Path 80234" d="M805.564,803.146a.478.478,0,1,0-.07-.673.477.477,0,0,0,.07.673" transform="translate(-789.859 -780.593)" fill="#fff"/>
        <path id="Path_80235" data-name="Path 80235" d="M1116.62,596.2a.632.632,0,0,0,.254-.053.637.637,0,1,0-.254.053" transform="translate(-1087.243 -582.045)" fill="#fff"/>
        <path id="Path_80236" data-name="Path 80236" d="M702.853,1055.729a.637.637,0,1,0-.618.48.637.637,0,0,0,.618-.48" transform="translate(-690.483 -1022.485)" fill="#fff"/>
        <path id="Path_80237" data-name="Path 80237" d="M683.712,1174.586h.038a.634.634,0,1,0-.038,0" transform="translate(-672.784 -1135.828)" fill="#fff"/>
        <path id="Path_80238" data-name="Path 80238" d="M1152.188,1299.784a.638.638,0,1,0-.638.655h.017a.639.639,0,0,0,.621-.655" transform="translate(-1120.688 -1256.327)" fill="#fff"/>
        <path id="Path_80239" data-name="Path 80239" d="M714.018,1017.37a.637.637,0,1,0-.606.44.638.638,0,0,0,.606-.44" transform="translate(-701.185 -985.719)" fill="#fff"/>
        <path id="Path_80240" data-name="Path 80240" d="M688.737,1294.193a.638.638,0,1,0-.624-.507.638.638,0,0,0,.624.507" transform="translate(-677.56 -1250.346)" fill="#fff"/>
        <path id="Path_80241" data-name="Path 80241" d="M682.676,1214.564h0a.638.638,0,1,0-.641-.634.637.637,0,0,0,.641.634" transform="translate(-671.756 -1174.105)" fill="#fff"/>
        <path id="Path_80242" data-name="Path 80242" d="M687.293,1134.754a.614.614,0,0,0,.079.005.64.64,0,1,0-.079-.005" transform="translate(-676.252 -1097.694)" fill="#fff"/>
        <path id="Path_80243" data-name="Path 80243" d="M683.814,1254.551h.026a.645.645,0,1,0-.026,0" transform="translate(-672.846 -1212.391)" fill="#fff"/>
        <path id="Path_80244" data-name="Path 80244" d="M1080.359,613.08a.638.638,0,1,0-.572-.354.634.634,0,0,0,.572.354" transform="translate(-1052.524 -598.204)" fill="#fff"/>
        <path id="Path_80245" data-name="Path 80245" d="M953.337,1289.248a.639.639,0,1,0-.5.749.637.637,0,0,0,.5-.749" transform="translate(-930.306 -1246.341)" fill="#fff"/>
        <path id="Path_80246" data-name="Path 80246" d="M1032.952,1286.881a.638.638,0,1,0-.715.55.662.662,0,0,0,.083.005.638.638,0,0,0,.632-.556" transform="translate(-1006.529 -1243.878)" fill="#fff"/>
        <path id="Path_80247" data-name="Path 80247" d="M1010.719,652.371a.638.638,0,1,0-.343-1.176h0a.638.638,0,0,0,.343,1.177" transform="translate(-985.846 -635.823)" fill="#fff"/>
        <path id="Path_80248" data-name="Path 80248" d="M1370.828,1320.816a.638.638,0,0,0,.638.639h0a.638.638,0,1,0-.638-.639" transform="translate(-1331.25 -1276.449)" fill="#fff"/>
        <path id="Path_80249" data-name="Path 80249" d="M945.529,698.676a.638.638,0,1,0-.5-.242.633.633,0,0,0,.5.242" transform="translate(-923.429 -680.159)" fill="#fff"/>
        <path id="Path_80250" data-name="Path 80250" d="M1270.13,573.949a.638.638,0,1,0-.3-.849.634.634,0,0,0,.3.849" transform="translate(-1234.484 -560.795)" fill="#fff"/>
        <path id="Path_80251" data-name="Path 80251" d="M699.965,1332.575a.638.638,0,1,0-.215.037.638.638,0,0,0,.215-.037" transform="translate(-688.103 -1287.132)" fill="#fff"/>
        <path id="Path_80252" data-name="Path 80252" d="M727.523,1359.832a.638.638,0,1,0-.823.37.646.646,0,0,0,.227.042.638.638,0,0,0,.6-.412" transform="translate(-714.124 -1313.587)" fill="#fff"/>
        <path id="Path_80253" data-name="Path 80253" d="M766.405,1360.04a.636.636,0,1,0-.105.009.626.626,0,0,0,.105-.009Z" transform="translate(-751.824 -1313.402)" fill="#fff"/>
        <path id="Path_80254" data-name="Path 80254" d="M1045.029,631.817a.638.638,0,1,0-.556-.325.632.632,0,0,0,.556.325" transform="translate(-1018.696 -616.143)" fill="#fff"/>
        <path id="Path_80255" data-name="Path 80255" d="M1072.626,1291.99a.638.638,0,1,0-.711.556.707.707,0,0,0,.078,0,.638.638,0,0,0,.633-.561" transform="translate(-1044.514 -1248.774)" fill="#fff"/>
        <path id="Path_80256" data-name="Path 80256" d="M1324.968,1319.339a.638.638,0,1,0-1.268.058.493.493,0,0,0-.107.051.479.479,0,1,0,.729.5h.009a.638.638,0,0,0,.637-.607" transform="translate(-1285.816 -1275.005)" fill="#fff"/>
        <path id="Path_80257" data-name="Path 80257" d="M1231.61,565.763h.006a.635.635,0,1,0-.006,0" transform="translate(-1197.349 -552.899)" fill="#fff"/>
        <path id="Path_80258" data-name="Path 80258" d="M993.047,1284.838a.638.638,0,1,0-.638.658h.021a.638.638,0,0,0,.617-.658" transform="translate(-968.316 -1242.02)" fill="#fff"/>
        <path id="Path_80259" data-name="Path 80259" d="M1191.13,1291.611a.638.638,0,1,0-.593.873.631.631,0,0,0,.234-.045.638.638,0,0,0,.359-.828" transform="translate(-1158.016 -1248.71)" fill="#fff"/>
        <path id="Path_80260" data-name="Path 80260" d="M804.483,1350.009a.637.637,0,0,0,.807.4h0a.638.638,0,1,0-.806-.4" transform="translate(-788.962 -1304.208)" fill="#fff"/>
        <path id="Path_80261" data-name="Path 80261" d="M1224.451,1271.664a.638.638,0,1,0-.478-.215.636.636,0,0,0,.478.215" transform="translate(-1190.488 -1228.776)" fill="#fff"/>
        <path id="Path_80262" data-name="Path 80262" d="M1446.061,552.243a.638.638,0,1,0,.005-.9.636.636,0,0,0-.005.9" transform="translate(-1403.107 -540.135)" fill="#fff"/>
        <path id="Path_80263" data-name="Path 80263" d="M693.661,1093.975a.638.638,0,1,0,.508.746.638.638,0,0,0-.508-.746" transform="translate(-682.16 -1059.856)" fill="#fff"/>
        <path id="Path_80264" data-name="Path 80264" d="M1153.694,581.216a.63.63,0,0,0,.249-.051.637.637,0,1,0-.249.051" transform="translate(-1122.741 -567.695)" fill="#fff"/>
        <path id="Path_80265" data-name="Path 80265" d="M1191.856,569.474a.626.626,0,0,0,.125-.012.638.638,0,1,0-.125.012" transform="translate(-1159.28 -556.453)" fill="#fff"/>
        <path id="Path_80266" data-name="Path 80266" d="M1409.246,1312.645a.638.638,0,1,0-.461-.2.637.637,0,0,0,.461.2" transform="translate(-1367.423 -1268.014)" fill="#fff"/>
        <path id="Path_80267" data-name="Path 80267" d="M977.522,674.671a.638.638,0,1,0-.52-.268.635.635,0,0,0,.52.268" transform="translate(-954.061 -657.175)" fill="#fff"/>
        <path id="Path_80268" data-name="Path 80268" d="M1112.375,1296.423a.638.638,0,1,0-.7.572c.021,0,.043,0,.064,0a.637.637,0,0,0,.634-.575" transform="translate(-1082.571 -1253.032)" fill="#fff"/>
        <path id="Path_80269" data-name="Path 80269" d="M1299.763,1278.026a.8.8,0,1,0-.8-.609.638.638,0,1,0,.8.609" transform="translate(-1261.987 -1234.563)" fill="#fff"/>
        <path id="Path_80270" data-name="Path 80270" d="M817.123,1307.756a.8.8,0,0,0-.976-.566h0a.8.8,0,1,0,.411,1.541.785.785,0,0,0,.144-.054.638.638,0,1,0,.354-.343.792.792,0,0,0,.067-.58" transform="translate(-799.594 -1263.988)" fill="#fff"/>
        <path id="Path_80271" data-name="Path 80271" d="M1227.424,604.739a.78.78,0,0,0,.153.015.8.8,0,1,0-.153-.015" transform="translate(-1193.327 -589.926)" fill="#fff"/>
        <path id="Path_80272" data-name="Path 80272" d="M1351.921,1228.17a.8.8,0,0,0,0-.24.691.691,0,0,0,.076-.033.638.638,0,0,0,.28-.843.478.478,0,1,0-.531-.359.636.636,0,0,0-.678.573.752.752,0,0,1-1.093,1,.8.8,0,0,0-.053,1.594h.027a.749.749,0,0,1,1.079-1.008.8.8,0,0,0,.9-.683" transform="translate(-1310.491 -1186.374)" fill="#fff"/>
        <path id="Path_80273" data-name="Path 80273" d="M720.15,1182.488a.8.8,0,0,0,.005,1.595h.006a.8.8,0,1,0-.011-1.595" transform="translate(-707.489 -1144.614)" fill="#fff"/>
        <path id="Path_80274" data-name="Path 80274" d="M721.375,1222.461a.8.8,0,0,0,.051,1.593l.051,0a.8.8,0,0,0-.1-1.592" transform="translate(-708.706 -1182.886)" fill="#fff"/>
        <path id="Path_80275" data-name="Path 80275" d="M721.367,1142.51a.8.8,0,1,0-.1,1.592l.052,0a.8.8,0,0,0,.051-1.593" transform="translate(-708.599 -1106.335)" fill="#fff"/>
        <path id="Path_80276" data-name="Path 80276" d="M755.914,580.535a.476.476,0,0,0-.417.036l.019-.042a.638.638,0,0,0-.355-.829.62.62,0,0,0-.216-.045.8.8,0,0,0-1.529-.349.788.788,0,0,0-.04.51.956.956,0,0,0-.225-.152.859.859,0,0,0-.111-.046l.033-.046a.956.956,0,0,0-.642-1.475.8.8,0,0,0-.278-1.186.64.64,0,0,0-.085-.14.634.634,0,0,0-.265-.194.475.475,0,0,0-.3-.316c-.008-.014-.018-.028-.028-.043a.479.479,0,1,0-.544.734.386.386,0,0,0,.028.042.637.637,0,0,0,.051.478.795.795,0,0,0,.569.917.963.963,0,0,0-.1.121c-.011.017-.022.034-.032.051a.958.958,0,0,0-.276-.243.805.805,0,0,0-.081-.124.8.8,0,0,0-.263-.213.66.66,0,0,0-.087-.145.627.627,0,0,1-.543-.657,1.067,1.067,0,0,0-.512,1.367.8.8,0,0,0,.055.471.986.986,0,0,0,0,.21.889.889,0,0,1-.993-1.119,3.447,3.447,0,0,0-.324,1.985.434.434,0,1,1-.847.12,4.938,4.938,0,0,1-2.333-1.483.8.8,0,1,0-.468,0,.549.549,0,0,1-1.031.345.8.8,0,1,0-.789-.022.956.956,0,0,0-.58.775.969.969,0,0,0-.191-.132.8.8,0,1,0-.836-.028.949.949,0,0,0-.33.242.8.8,0,1,0-1.219.467l-.035.016a.949.949,0,0,0-.223.153.8.8,0,1,0-1.236.638,1.015,1.015,0,0,0-.093.048.936.936,0,0,0-.126.088.8.8,0,1,0-1.211.766.961.961,0,0,0-.156.086c-.015.01-.029.021-.044.031a.786.786,0,0,0-.136-.3.8.8,0,1,0-1.025,1.173.97.97,0,0,0-.2.109.8.8,0,0,0-1.427-.193.637.637,0,0,0-1.054-.556h0a.638.638,0,0,0,.843.958.665.665,0,0,0,.094-.1.8.8,0,0,0,.455.863.982.982,0,0,0-.2.108.8.8,0,0,0-1.377-.187.637.637,0,1,0-.192.454c.012-.012.023-.024.034-.037a.794.794,0,0,0,.545.82.933.933,0,0,0-.231.113.8.8,0,0,0-1.3-.22c-.014.014-.026.029-.038.044a.639.639,0,1,0-.18.489.795.795,0,0,0,.674.8.96.96,0,0,0-.3.128.8.8,0,0,0-1.318-.169.638.638,0,1,0-.194.536.8.8,0,0,0,1.12.714.36.36,0,1,1-.667.244.8.8,0,0,0-1.307-.165.64.64,0,1,0-.2.555.8.8,0,0,0,1.114.7.931.931,0,0,0,.067.16.959.959,0,0,0-.642.145.8.8,0,0,0-1.308-.165.639.639,0,1,0-.2.553.8.8,0,0,0,1.115.7.31.31,0,1,1-.48.377.8.8,0,0,0-1.324-.169.637.637,0,1,0-.19.527.8.8,0,0,0,1.125.716.947.947,0,0,0,.143.289.962.962,0,0,0-.529.169.8.8,0,0,0-1.353-.171.637.637,0,0,0-1.206-.251h0a.638.638,0,0,0,.283.857.629.629,0,0,0,.287.068.64.64,0,0,0,.465-.2.8.8,0,0,0,1.145.739.32.32,0,1,1-.268.578.8.8,0,0,0-1.43-.151.637.637,0,1,0-.11.3.8.8,0,0,0,1.188.809.368.368,0,1,1-.159.717.8.8,0,1,0-.315.864.435.435,0,0,1-.079.866.8.8,0,1,0-.26.727.541.541,0,0,1-.022,1.072.8.8,0,1,0-.905.8.812.812,0,0,0,.11.008.8.8,0,0,0,.624-.3,1,1,0,0,1-.056,1.756,1.027,1.027,0,0,1,.07,1.78,1.139,1.139,0,0,1,.374,1.862,1.973,1.973,0,0,1,1.37,1.933,1.464,1.464,0,0,1,2.107.157.961.961,0,0,0,.176-.017h0l.02,0a.8.8,0,0,0,1.01.919.638.638,0,1,0,.551-.6.791.791,0,0,0-.282-.788.954.954,0,0,0,.245.009.8.8,0,0,0,1.039.621.638.638,0,1,0,.512-.537.794.794,0,0,0-.24-.818.963.963,0,0,0,.231.006.768.768,0,0,0,.043.165.8.8,0,1,0,1.261-.891.96.96,0,0,0,.343-.01.8.8,0,1,0,1.307-.432.948.948,0,0,0,.592-.107.8.8,0,0,0,.573,1.351h0a.8.8,0,0,0,.585-1.339l.038,0a.521.521,0,0,1,1.031-.114.8.8,0,0,0-.065,1.587.812.812,0,0,0,.1.007.8.8,0,0,0,.626-1.29.523.523,0,0,1,1.038-.1.8.8,0,0,0-.066,1.589.823.823,0,0,0,.091.005.8.8,0,0,0,.612-1.306.6.6,0,0,1,1.179-.1h0a.8.8,0,0,0-.2,1.582.828.828,0,0,0,.1.006.8.8,0,0,0,.5-1.419.967.967,0,0,0,.285.008,1.053,1.053,0,0,1,1.7-.589.8.8,0,1,0,.6-.451.436.436,0,0,1,.543-.683c.009.035.019.069.031.1a.8.8,0,0,0,.937.982.956.956,0,0,0,.142.581.63.63,0,0,0,.065.2.635.635,0,0,0,.917.237c.02,0,.039-.008.058-.013a.8.8,0,1,0,1.435.362,1.565,1.565,0,0,1,2.166-.366.955.955,0,0,0,.4-.778.806.806,0,0,0,.4.109.8.8,0,0,0,.777-.971.638.638,0,0,0,.276-.81.652.652,0,0,0-.045-.084.485.485,0,0,0,.1.01.478.478,0,1,0-.453-.325h0a.443.443,0,0,0,.019.047.637.637,0,0,0-.84.555l-.056.015a.939.939,0,0,0-.005-.162.8.8,0,0,0,.243-.772l.047-.014a.638.638,0,1,0-.847-.6.8.8,0,0,0-.244.046,1.068,1.068,0,0,0,0-.12.8.8,0,0,0,.4-.923h.021a.647.647,0,0,0,.145-.017.638.638,0,1,0-.778-.549.792.792,0,0,0-.424.031l-.025.01a.937.937,0,0,0,0-.115.8.8,0,0,0,.595-.957.776.776,0,0,0-.035-.11.63.63,0,0,0,.2.034.614.614,0,0,0,.1-.007.638.638,0,1,0-.726-.535.6.6,0,0,0,.016.074.79.79,0,0,0-.513-.052.77.77,0,0,0-.129.043.907.907,0,0,0,0-.14.936.936,0,0,0,.114-.008.8.8,0,0,0,.575-1.193.634.634,0,0,0,.383.128l.047,0a.638.638,0,1,0-.683-.59.626.626,0,0,0,.074.253.792.792,0,0,0-.621-.176.775.775,0,0,0-.19.053,1.01,1.01,0,0,0-.007-.167h0a.016.016,0,0,1,0,0,.788.788,0,0,0,.142.014h.045a.8.8,0,0,0-.089-1.593.781.781,0,0,0-.231.048q0-.032,0-.064a.962.962,0,0,0-.015-.138.8.8,0,0,0,.245.047h.025a.8.8,0,0,0,.647-.333.638.638,0,0,0,.552.953h0a.638.638,0,1,0-.516-1.013.8.8,0,0,0-.915-1.169.95.95,0,0,0-.024-.231.8.8,0,0,0,.286.091.795.795,0,0,0,.635-.208.607.607,0,0,0-.028.14.638.638,0,0,0,.584.688l.053,0a.638.638,0,1,0-.406-1.13.81.81,0,0,0,.048-.191.8.8,0,0,0-.7-.885.785.785,0,0,0-.256.011.945.945,0,0,0-.037-.256.8.8,0,0,0,.31.138.788.788,0,0,0,.162.017.8.8,0,0,0,.453-.143s0,.007,0,.011a.638.638,0,1,0,.316-.454c0-.017.009-.034.013-.051a.8.8,0,0,0-.619-.943.787.787,0,0,0-.265-.009.954.954,0,0,0-.042-.254.8.8,0,0,0,.321.158.806.806,0,0,0,.182.021.8.8,0,0,0,.414-.117.638.638,0,0,0,.5.7.63.63,0,0,0,.131.014.638.638,0,1,0-.272-1.215v0a.8.8,0,0,0-.838-.976.936.936,0,0,0-.046-.253.794.794,0,0,0,.893.1.637.637,0,1,0,.412-.553.8.8,0,0,0-.792-.95.937.937,0,0,0-.047-.245.791.791,0,0,0,.855.138.639.639,0,0,0,.467.623.647.647,0,0,0,.171.023.638.638,0,0,0,.171-1.253.63.63,0,0,0-.343,0,.794.794,0,0,0-.738-.919.949.949,0,0,0-.046-.227.791.791,0,0,0,.8.158.638.638,0,0,0,1.246.162h0a.638.638,0,0,0-.723-.819.8.8,0,0,0-.526-.845.808.808,0,0,0-.157-.038.957.957,0,0,0-.044-.208.8.8,0,0,0,.53.2.79.79,0,0,0,.214-.03.638.638,0,0,0,.422.535.648.648,0,0,0,.211.036.638.638,0,0,0,.211-1.24.628.628,0,0,0-.264-.034.8.8,0,0,0-.51-.81.774.774,0,0,0-.137-.038.969.969,0,0,0-.041-.194.789.789,0,0,0,.7.171.637.637,0,0,0,1.068.376.515.515,0,0,0-.036.08.479.479,0,1,0,.139-.2.653.653,0,0,0,.055-.108.639.639,0,0,0-.612-.869.8.8,0,0,0-.495-.788.78.78,0,0,0-.108-.034.962.962,0,0,0-.037-.177.792.792,0,0,0,.5.178.811.811,0,0,0,.148-.015.636.636,0,0,0,1,.406h0a.478.478,0,1,0,.618-.275M729.443,592.6a1.03,1.03,0,0,0-.121.051c-.009-.013-.017-.026-.026-.037a1.008,1.008,0,0,0,.147-.014m-.651,1.5a1.056,1.056,0,0,0,.07.137,1.069,1.069,0,0,0-.117.056.108.108,0,1,1,.047-.192m-.551,1.571a1.126,1.126,0,0,0,.148.268c-.027.014-.053.029-.078.045a.958.958,0,0,0-.2-.275,1.027,1.027,0,0,0,.133-.038m-.4,1.609a1.118,1.118,0,0,0,.232.4c-.022.014-.043.029-.064.045a.962.962,0,0,0-.294-.4.937.937,0,0,0,.126-.047m-.24,1.623a1.122,1.122,0,0,0,.325.536c-.027.021-.053.044-.078.068a.955.955,0,0,0-.388-.536,1.029,1.029,0,0,0,.142-.069m-.081,1.613a.454.454,0,0,1,.3.818.956.956,0,0,0-.481-.7.981.981,0,0,0,.182-.114m1.5,5.235a.957.957,0,0,0-.842-.5h-.045a1.5,1.5,0,0,1-.243-2.172.514.514,0,0,1-.3-.981c0,.022,0,.043.007.065a1.43,1.43,0,0,1,.474,1.891,1.836,1.836,0,0,1,1.578,1.259.95.95,0,0,0-.631.441m.6-3.091a1.114,1.114,0,0,0,.2-.714c.029.017.057.034.088.05a1.28,1.28,0,0,0,.031.905,1.117,1.117,0,0,0-.322-.241m.6.779a1.133,1.133,0,0,0-.048-.17c0-.006-.006-.012-.008-.018a1.263,1.263,0,0,0,.131.13c.016.014.034.026.051.039a1.088,1.088,0,0,0-.126.019m.533,3.108a1.013,1.013,0,0,0,.03-.111.916.916,0,0,0,.131.113.777.777,0,0,0-.161,0m1.258-5.053c-.02-.02-.042-.039-.063-.057h0a1.282,1.282,0,0,0-.246-.165,1.25,1.25,0,0,0,.057-.242,1.53,1.53,0,0,0,.189.063,1.424,1.424,0,0,0,.12.363c-.02.012-.039.025-.057.038m.283-14.974a.807.807,0,0,0,.119-.044.748.748,0,0,0,.023.071.95.95,0,0,0-.142-.027m1.286-1.225.058-.026c0,.016.007.031.012.047-.023-.008-.046-.015-.07-.021m.388,19.794a.011.011,0,0,1,0,0l.006,0h-.007m.929-20.938.039-.02c0,.013,0,.025.007.037l-.045-.017m.561,20.484a.967.967,0,0,0,.029-.1.94.94,0,0,0,.113.1.741.741,0,0,0-.142,0m.8-21.548.04-.023c0,.015,0,.029.005.044l-.045-.021m.961,21.393a.79.79,0,0,0-.362.087.2.2,0,1,1,.37-.086h-.008m.455-22.374c.017-.009.034-.02.051-.031l.007-.005c0,.023,0,.046,0,.069l-.062-.034m1.1,21.335-.016-.037.051-.011c-.012.016-.024.032-.034.048m.452-22.173a.959.959,0,0,0-.094-.056h0a.844.844,0,0,0,.1-.068.928.928,0,0,0-.006.124m1.239,22.365c0-.007-.006-.013-.008-.02l.027-.005c-.006.008-.013.017-.018.025m.309-23.136a.978.978,0,0,0-.139-.09.787.787,0,0,0,.178-.139.943.943,0,0,0-.04.229m4.96-.233a.8.8,0,0,1,1.165.93,1,1,0,0,1-1.375-.739.978.978,0,0,0,.211-.191m-1.507-.03a.961.961,0,0,0,.219.211.263.263,0,0,1-.483.2.963.963,0,0,0,.264-.407m.061,2.073-.056.033c-.029-.034-.06-.066-.093-.1l.033-.039a1.115,1.115,0,0,0,.116.1M742.871,603.3l.023-.036.045.032-.068,0m-.317-16.2a.525.525,0,1,1,.525.525.525.525,0,0,1-.525-.525m1.047,16.438c-.017-.016-.036-.031-.054-.045h.062c0,.015-.006.03-.008.045m-.063-14.482a.394.394,0,1,1,.394-.393.393.393,0,0,1-.394.393m.154-2.869a.656.656,0,1,1,.656-.656.656.656,0,0,1-.656.656m.947,16.539a1.125,1.125,0,0,0,.057-.33,1.149,1.149,0,0,0,.142.012.95.95,0,0,0,.025.367.941.941,0,0,0-.225-.049m.476-13.444a.262.262,0,1,1,.262-.262.262.262,0,0,1-.262.262m1.311-1.187a.131.131,0,1,1,.131-.131.131.131,0,0,1-.131.131m.671-.8a1.05,1.05,0,0,1-.806-1.723.918.918,0,0,1-.64-.76.788.788,0,1,1,.085-.522.918.918,0,1,1,1.578.928,1.05,1.05,0,0,1-.218,2.076m2.608,3.788,0,.017-.016-.014.011,0m.157,12.539a1.11,1.11,0,0,0,.513-.073.954.954,0,0,0,.247.414c-.021.013-.042.027-.063.041a.506.506,0,0,1-1,.018,1.116,1.116,0,0,0,.212-.413c.03.005.061.009.092.012m.193-14.179.012,0c0,.006,0,.012,0,.018l-.016-.015m-.194-7.251a1.284,1.284,0,0,0-.159-.337,1.121,1.121,0,0,0,.3-.057h0a1.139,1.139,0,0,0,.11.212,1.1,1.1,0,0,0-.249.183m.623,5.624h0a.046.046,0,0,0,0,.008l-.007-.007m1.39-7.7a.949.949,0,0,0-.1.442.856.856,0,0,1-1.233-.461.659.659,0,0,1,1.2-.252.942.942,0,0,0,.225.111.955.955,0,0,0-.1.161" transform="translate(-712.463 -563.942)" fill="#fff"/>
        <path id="Path_80277" data-name="Path 80277" d="M727.453,1261.937a.8.8,0,0,0,.2,1.57.8.8,0,0,0,.773-.994.8.8,0,0,0-.969-.576" transform="translate(-714.664 -1220.661)" fill="#fff"/>
        <path id="Path_80278" data-name="Path 80278" d="M1164.118,1255.569a.8.8,0,1,0-.561.978h0a.8.8,0,0,0,.562-.978" transform="translate(-1131.831 -1214.023)" fill="#fff"/>
        <path id="Path_80279" data-name="Path 80279" d="M741.431,1299.158a.8.8,0,1,0,1.12.129.8.8,0,0,0-1.12-.129" transform="translate(-728.334 -1256.157)" fill="#fff"/>
        <path id="Path_80280" data-name="Path 80280" d="M777.033,1314.579a.8.8,0,0,0,.052,1.593l.054,0a.8.8,0,0,0-.105-1.591" transform="translate(-761.997 -1271.086)" fill="#fff"/>
        <path id="Path_80281" data-name="Path 80281" d="M444.583,867.777l.036,0a.32.32,0,1,0-.036,0" transform="translate(-444.13 -842.68)" fill="#fff"/>
        <path id="Path_80282" data-name="Path 80282" d="M440.616,947.626h0a.319.319,0,1,0-.322-.315.319.319,0,0,0,.322.315" transform="translate(-440.297 -919.131)" fill="#fff"/>
        <path id="Path_80283" data-name="Path 80283" d="M441.362,907.637h.016a.319.319,0,1,0-.016,0" transform="translate(-441.027 -880.843)" fill="#fff"/>
        <path id="Path_80284" data-name="Path 80284" d="M442.341,987.585a.321.321,0,1,0-.024,0h.024" transform="translate(-441.926 -957.391)" fill="#fff"/>
        <path id="Path_80285" data-name="Path 80285" d="M453.424,1066.419a.319.319,0,1,0-.313.381.324.324,0,0,0,.063-.006.319.319,0,0,0,.251-.375" transform="translate(-452.261 -1033.237)" fill="#fff"/>
        <path id="Path_80286" data-name="Path 80286" d="M446.531,1027.363a.317.317,0,1,0-.043,0,.344.344,0,0,0,.043,0" transform="translate(-445.919 -995.48)" fill="#fff"/>
        <path id="Path_80287" data-name="Path 80287" d="M450.247,828.186a.306.306,0,0,0,.055.005.321.321,0,1,0-.055-.005" transform="translate(-449.572 -804.776)" fill="#fff"/>
        <path id="Path_80288" data-name="Path 80288" d="M496.9,675.583a.315.315,0,0,0,.13.028.32.32,0,0,0,.169-.048.478.478,0,0,0,.654.374.639.639,0,1,0,.109-.062.478.478,0,1,0-.639-.708.319.319,0,1,0-.423.417" transform="translate(-494.31 -658.685)" fill="#fff"/>
        <path id="Path_80289" data-name="Path 80289" d="M514.332,639.6a.314.314,0,0,0,.243.022.477.477,0,0,0,.258.292.483.483,0,0,0,.116.035.638.638,0,1,0,.479-.2.506.506,0,0,0,.039-.069.478.478,0,0,0-.742-.564.319.319,0,1,0-.392.489" transform="translate(-511.019 -624.245)" fill="#fff"/>
        <path id="Path_80290" data-name="Path 80290" d="M533.955,603.833a.319.319,0,0,0,.165.046l.035,0a.475.475,0,0,0,.2.215.636.636,0,0,0,.227,1.012.632.632,0,0,0,.248.051.638.638,0,0,0,.249-1.226.646.646,0,0,0-.064-.023v0a.478.478,0,0,0-.711-.607l-.015-.01a.319.319,0,0,0-.33.546" transform="translate(-529.824 -589.964)" fill="#fff"/>
        <path id="Path_80291" data-name="Path 80291" d="M458.353,789.027a.33.33,0,0,0,.075.009.319.319,0,1,0-.075-.009" transform="translate(-457.351 -767.286)" fill="#fff"/>
        <path id="Path_80292" data-name="Path 80292" d="M462.14,1104.609l-.037.014-.029.006a.319.319,0,0,0,.163.617.356.356,0,0,0,.046-.016l.039-.009a.319.319,0,0,0-.182-.611" transform="translate(-460.92 -1070.035)" fill="#fff"/>
        <path id="Path_80293" data-name="Path 80293" d="M532.788,861.609h.022a.321.321,0,1,0-.022,0" transform="translate(-528.569 -836.773)" fill="#fff"/>
        <path id="Path_80294" data-name="Path 80294" d="M468.856,750.438a.319.319,0,1,0-.212-.4.319.319,0,0,0,.212.4" transform="translate(-467.425 -730.344)" fill="#fff"/>
        <path id="Path_80295" data-name="Path 80295" d="M481.717,712.574a.324.324,0,0,0,.112.02.32.32,0,0,0,.273-.154.478.478,0,0,0,.334.533.468.468,0,0,0,.138.02.479.479,0,1,0-.427-.694.319.319,0,1,0-.43.274" transform="translate(-479.757 -694.096)" fill="#fff"/>
        <path id="Path_80296" data-name="Path 80296" d="M611.1,294.783a.317.317,0,0,0-.245.015.259.259,0,0,1-.339-.021.323.323,0,0,0,.078-.112.319.319,0,1,0-.54.083.428.428,0,0,0-.044.024l-.009-.006a.637.637,0,0,0-.3-.081l-.024-.009c0-.008.006-.015.009-.023a.321.321,0,0,0,0-.153.479.479,0,0,0-.712-.376.318.318,0,1,0-.58-.251.31.31,0,0,0-.013.091.632.632,0,0,0-.282-.033.478.478,0,0,0-.716-.416.319.319,0,0,0-.59-.195.634.634,0,0,0-.348-.016.478.478,0,0,0-.726-.253.319.319,0,0,0-.49-.209.652.652,0,0,0-.1-.037.633.633,0,0,0-.385.021.477.477,0,0,0-.73-.114.318.318,0,0,0-.253-.18.309.309,0,0,0-.066,0,.626.626,0,0,0-.268-.12.633.633,0,0,0-.435.074.478.478,0,0,0-.708.022.318.318,0,0,0-.159-.111.637.637,0,0,0-.9-.1.478.478,0,0,0-.683.137.358.358,0,0,0-.04-.031.637.637,0,0,0-1.054-.155.479.479,0,0,0-.63.222.637.637,0,0,0-1.116-.138.468.468,0,0,0-.2-.023.478.478,0,0,0-.388.277.638.638,0,0,0-1.152-.044.476.476,0,0,0-.54.285.637.637,0,0,0-1.167.049.466.466,0,0,0-.169.009.477.477,0,0,0-.338.3.637.637,0,0,0-1.164.141.478.478,0,0,0-.482.336.637.637,0,0,0-1.148.23.465.465,0,0,0-.173.033.478.478,0,0,0-.29.331.637.637,0,0,0-1.119.312.479.479,0,0,0-.448.4.638.638,0,0,0-1.077.386.479.479,0,0,0-.438.437.637.637,0,0,0-1.024.447.478.478,0,0,0-.43.488.637.637,0,0,0-.962.5.478.478,0,0,0-.422.549.637.637,0,0,0-.892.526.478.478,0,0,0-.426.549.317.317,0,0,0-.263.055.635.635,0,0,0-.539.559.478.478,0,0,0-.44.54.319.319,0,0,0-.307.08.311.311,0,0,0-.091.174.633.633,0,0,0-.3.453.478.478,0,0,0-.464.527.319.319,0,0,0-.385.45.643.643,0,0,0-.078.09.627.627,0,0,0-.108.257,4.362,4.362,0,0,1-.614.488.319.319,0,0,0-.211.569.341.341,0,0,0,.055.034.606.606,0,0,0-.085.11.638.638,0,1,0,.984-.131.483.483,0,0,0,.054-.16.476.476,0,0,0,.176-.144.508.508,0,0,0,.036-.057.638.638,0,0,0,.65-1.076.481.481,0,0,0,.362-.165.488.488,0,0,0,.063-.094.637.637,0,0,0,.705-.989h.028a.475.475,0,0,0,.43-.27.637.637,0,0,0,.739-.9.5.5,0,0,0,.071.006.476.476,0,0,0,.315-.119.483.483,0,0,0,.119-.159.646.646,0,0,0,.154.02.638.638,0,0,0,.607-.834.483.483,0,0,0,.123.017.475.475,0,0,0,.289-.1.484.484,0,0,0,.146-.183.646.646,0,0,0,.149.018.637.637,0,0,0,.626-.754.485.485,0,0,0,.179.035.476.476,0,0,0,.433-.278.627.627,0,0,0,.154.019.637.637,0,0,0,.635-.685.477.477,0,0,0,.659-.208.645.645,0,0,0,.167.022.637.637,0,0,0,.61-.454.322.322,0,0,0,.065-.148.476.476,0,0,0,.66-.185.635.635,0,0,0,.742-.3.322.322,0,0,0,.145-.2.476.476,0,0,0,.66-.151.635.635,0,0,0,.727-.218.317.317,0,0,0,.2-.21.477.477,0,0,0,.657-.108.636.636,0,0,0,.74-.173h.007a.318.318,0,0,0,.212-.19.48.48,0,0,0,.3.1l.043,0a.637.637,0,0,0-.362.712.477.477,0,0,0-.512,0,.637.637,0,0,0-1.071.634.477.477,0,0,0-.442-.025.459.459,0,0,0-.08.046.638.638,0,0,0-1.01.732.475.475,0,0,0-.465-.005.5.5,0,0,0-.07.046.638.638,0,0,0-.933.821.478.478,0,0,0-.491.016.466.466,0,0,0-.068.053.637.637,0,0,0-.841.9.479.479,0,0,0-.513.037.445.445,0,0,0-.074.068.637.637,0,0,0-.739.965.478.478,0,0,0-.542.069.453.453,0,0,0-.084.1.637.637,0,0,0-.653.934.419.419,0,0,0-.021.046.478.478,0,0,0-.485.116.471.471,0,0,0-.1.144.637.637,0,0,0-.591.854.317.317,0,0,0-.054.125.477.477,0,0,0-.436.171.471.471,0,0,0-.1.215.637.637,0,0,0-.484.7.3.3,0,0,0-.047.048.315.315,0,0,0-.071.212.478.478,0,0,0-.445.514.631.631,0,0,0-.277.252h0a.633.633,0,0,0-.086.262.319.319,0,0,0-.216.406.478.478,0,0,0-.326.635.641.641,0,0,0-.249.371.318.318,0,0,0-.318.5.479.479,0,0,0-.185.743.627.627,0,0,0-.141.2.64.64,0,0,0-.039.114.319.319,0,0,0-.5.081.318.318,0,0,0,.119.421.478.478,0,0,0-.022.835.639.639,0,0,0,.481,1.057.638.638,0,0,0,.187-1.248c.006-.011.012-.024.017-.036a.479.479,0,0,0-.058-.47.628.628,0,0,0,.4.142.638.638,0,0,0,.583-.378h0a.639.639,0,0,0-.234-.794l.008-.012a.479.479,0,0,0-.029-.482.727.727,0,0,0,.075.044.638.638,0,0,0,.752-1l.011-.015a.479.479,0,0,0-.009-.51l.006,0a.637.637,0,0,0,.888-.847c.01-.011.019-.022.028-.034a.479.479,0,0,0,.045-.487.245.245,0,0,0,.037-.022.638.638,0,0,0,.869-.744.515.515,0,0,0,.074-.072.477.477,0,0,0,.1-.409.322.322,0,0,0,.138-.081.646.646,0,0,0,.115.011.637.637,0,0,0,.638-.651.487.487,0,0,0,.128-.091.478.478,0,0,0,.139-.369.314.314,0,0,0,.188-.084.342.342,0,0,0,.046-.054h.018a.636.636,0,0,0,.632-.555.484.484,0,0,0,.186-.1.478.478,0,0,0,.155-.311l.04,0a.317.317,0,0,0,.2-.073.321.321,0,0,0,.094-.13.633.633,0,0,0,.539-.44.483.483,0,0,0,.255-.094.478.478,0,0,0,.182-.285.317.317,0,0,0,.41-.233.632.632,0,0,0,.467-.363c.017,0,.034,0,.051,0a.478.478,0,0,0,.457-.339.326.326,0,0,0,.152.038.318.318,0,0,0,.315-.276.645.645,0,0,0,.2-.077.637.637,0,0,0,.223-.227.477.477,0,0,0,.567-.3.32.32,0,0,0,.193.065.315.315,0,0,0,.142-.034.319.319,0,0,0,.174-.249.641.641,0,0,0,.148-.051.634.634,0,0,0,.242-.211.473.473,0,0,0,.374-.008h0a.477.477,0,0,0,.242-.248.318.318,0,0,0,.538-.175.707.707,0,0,0,.11-.032.637.637,0,0,0,.266-.2.477.477,0,0,0,.655-.219.318.318,0,0,0,.551-.112.647.647,0,0,0,.083-.019.636.636,0,0,0,.3-.195.477.477,0,0,0,.255.074.485.485,0,0,0,.131-.019h0a.477.477,0,0,0,.295-.245.32.32,0,0,0,.262.138.324.324,0,0,0,.083-.011.319.319,0,0,0,.2-.156c.025,0,.05-.006.075-.011a.638.638,0,0,0,.33-.192.477.477,0,0,0,.278.09.48.48,0,0,0,.423-.254.32.32,0,0,0,.271.152.338.338,0,0,0,.062-.006.324.324,0,0,0,.156-.081h.012a.637.637,0,0,0,.461-.2.478.478,0,0,0,.291.1.528.528,0,0,0,.063,0,.478.478,0,0,0,.356-.245.319.319,0,0,0,.277.162l.04,0,.036-.007a.643.643,0,0,0,.168.023h.039a.636.636,0,0,0,.416-.19.477.477,0,0,0,.3.1h.028a.478.478,0,0,0,.386-.238.637.637,0,0,0,.522.29h.013a.636.636,0,0,0,.455-.192.478.478,0,0,0,.29.1h.008a.476.476,0,0,0,.369-.175.637.637,0,0,0,.513.362c.022,0,.043,0,.064,0a.638.638,0,0,0,.463-.2.476.476,0,0,0,.248.1l.043,0a.475.475,0,0,0,.318-.122.639.639,0,0,0,.5.45.651.651,0,0,0,.114.01.637.637,0,0,0,.477-.216.476.476,0,0,0,.549.006.638.638,0,0,0,.457.548.634.634,0,0,0,.673-.212.488.488,0,0,0,.156.069.482.482,0,0,0,.112.013.476.476,0,0,0,.23-.06.639.639,0,0,0,.427.681.627.627,0,0,0,.207.035,3.945,3.945,0,0,0,.675-.222.476.476,0,0,0,.321-.041.765.765,0,0,0,1.358.625.227.227,0,0,1,.306.037.477.477,0,0,0,.686-.391.317.317,0,0,0-.126-.521m-30.458,12.265-.036-.013a.33.33,0,0,0,.056-.062.66.66,0,0,0,.082.134.463.463,0,0,0-.1-.059m14.868-13.028A.478.478,0,0,0,595,294a.64.64,0,0,0-.584-.23.476.476,0,0,0,.137-.1.634.634,0,0,0,.781-.148.317.317,0,0,0,.208-.16.475.475,0,0,0,.2.11.638.638,0,0,0-.234.548m1.671-.392a.476.476,0,0,0-.385-.087.466.466,0,0,0-.136.05.617.617,0,0,0-.112-.119l.057,0a.637.637,0,0,0,.426-.242.32.32,0,0,0,.164-.12.479.479,0,0,0,.163.115.638.638,0,0,0-.176.406m1.7-.263a.477.477,0,0,0-.341-.118.638.638,0,0,0,.224-.222.316.316,0,0,0,.089-.067.483.483,0,0,0,.153.137.638.638,0,0,0-.125.269m1.727-.129a.476.476,0,0,0-.221-.133.639.639,0,0,0,.113-.171l.023-.017a.477.477,0,0,0,.162.173.62.62,0,0,0-.077.148m1.739.011a.484.484,0,0,0-.171-.146.608.608,0,0,0,.034-.071.482.482,0,0,0,.157.184l-.02.034" transform="translate(-573.419 -292.032)" fill="#fff"/>
        <path id="Path_80297" data-name="Path 80297" d="M555.689,569.308a.315.315,0,0,0,.169.056.48.48,0,0,0,.057.077.638.638,0,1,0,.78-.1.478.478,0,0,0-.72-.595.319.319,0,0,0-.285.564" transform="translate(-550.65 -556.877)" fill="#fff"/>
        <path id="Path_80298" data-name="Path 80298" d="M565.122,704.72a.319.319,0,1,0,.2.4.319.319,0,0,0-.2-.4" transform="translate(-559.409 -687.152)" fill="#fff"/>
        <path id="Path_80299" data-name="Path 80299" d="M580.173,668.027a.319.319,0,1,0-.292.191h.016a.478.478,0,0,0,.026.891.461.461,0,0,0,.083.022.639.639,0,1,0,.486-.224.485.485,0,0,0,.042-.087.478.478,0,0,0-.507-.635.315.315,0,0,0,.147-.155" transform="translate(-573.639 -651.607)" fill="#fff"/>
        <path id="Path_80300" data-name="Path 80300" d="M1372.317,378.661a.319.319,0,1,0,.123.434.319.319,0,0,0-.123-.434" transform="translate(-1332.221 -374.938)" fill="#fff"/>
        <path id="Path_80301" data-name="Path 80301" d="M1333.273,360.55a.318.318,0,0,0-.447.264.477.477,0,0,0-.179-.218.319.319,0,1,0-.485-.025.479.479,0,1,0,.7.419.319.319,0,1,0,.411-.44" transform="translate(-1293.983 -357.165)" fill="#fff"/>
        <path id="Path_80302" data-name="Path 80302" d="M552.623,743.091a.319.319,0,1,0,.4-.218.319.319,0,0,0-.4.218" transform="translate(-547.834 -723.686)" fill="#fff"/>
        <path id="Path_80303" data-name="Path 80303" d="M543.534,782.083a.318.318,0,1,0-.312.257.319.319,0,0,0,.312-.257" transform="translate(-538.538 -760.875)" fill="#fff"/>
        <path id="Path_80304" data-name="Path 80304" d="M502.195,1093.239a.319.319,0,0,0,.091.625.314.314,0,0,0,.091-.013.319.319,0,0,0-.181-.612" transform="translate(-499.343 -1059.149)" fill="#fff"/>
        <path id="Path_80305" data-name="Path 80305" d="M540.545,1081.863a.319.319,0,1,0,.4.215.319.319,0,0,0-.4-.215" transform="translate(-536.062 -1048.257)" fill="#fff"/>
        <path id="Path_80306" data-name="Path 80306" d="M537.018,821.524a.319.319,0,1,0-.358.275.267.267,0,0,0,.042,0,.319.319,0,0,0,.316-.278" transform="translate(-532.296 -798.658)" fill="#fff"/>
        <path id="Path_80307" data-name="Path 80307" d="M556.332,1058.529a.319.319,0,0,0,.092.624.312.312,0,0,0,.092-.014.319.319,0,0,0-.184-.611" transform="translate(-551.179 -1025.915)" fill="#fff"/>
        <path id="Path_80308" data-name="Path 80308" d="M561.756,759.263a.478.478,0,1,0-.154.944.471.471,0,0,0,.078.006.478.478,0,0,0,.077-.951" transform="translate(-556.058 -739.385)" fill="#fff"/>
        <path id="Path_80309" data-name="Path 80309" d="M472.9,832.425l.044,0a.481.481,0,1,0-.044,0" transform="translate(-471.102 -808.526)" fill="#fff"/>
        <path id="Path_80310" data-name="Path 80310" d="M471.036,912.345h.021a.477.477,0,1,0-.021,0" transform="translate(-469.271 -885.045)" fill="#fff"/>
        <path id="Path_80311" data-name="Path 80311" d="M485.989,753.106a.478.478,0,1,0-.573.359.465.465,0,0,0,.107.012.478.478,0,0,0,.466-.372" transform="translate(-483.141 -732.935)" fill="#fff"/>
        <path id="Path_80312" data-name="Path 80312" d="M470.641,872.351h.012a.493.493,0,1,0-.012,0" transform="translate(-468.904 -846.753)" fill="#fff"/>
        <path id="Path_80313" data-name="Path 80313" d="M569.9,720.1a.479.479,0,1,0-.2.935.491.491,0,0,0,.1.011.478.478,0,0,0,.1-.946" transform="translate(-563.831 -701.882)" fill="#fff"/>
        <path id="Path_80314" data-name="Path 80314" d="M474.1,952.225a.463.463,0,0,0,.053,0,.477.477,0,1,0-.053,0" transform="translate(-472.203 -923.229)" fill="#fff"/>
        <path id="Path_80315" data-name="Path 80315" d="M478.387,792.339a.478.478,0,1,0-.548.4.5.5,0,0,0,.076.006.479.479,0,0,0,.472-.4" transform="translate(-475.856 -770.53)" fill="#fff"/>
        <path id="Path_80316" data-name="Path 80316" d="M556.19,799.368a.478.478,0,0,0,.437.517l.04,0a.479.479,0,1,0-.477-.519" transform="translate(-551.26 -777.37)" fill="#fff"/>
        <path id="Path_80317" data-name="Path 80317" d="M577.477,996.6a.479.479,0,0,0,.139.936.484.484,0,0,0,.139-.021.478.478,0,1,0-.279-.915" transform="translate(-571.318 -966.611)" fill="#fff"/>
        <path id="Path_80318" data-name="Path 80318" d="M559.972,919.588a.467.467,0,0,0,.069-.005.477.477,0,1,0-.069.005" transform="translate(-554.424 -891.98)" fill="#fff"/>
        <path id="Path_80319" data-name="Path 80319" d="M555.8,879.81h.032a.474.474,0,1,0-.032,0" transform="translate(-550.431 -853.894)" fill="#fff"/>
        <path id="Path_80320" data-name="Path 80320" d="M546.661,1018.233a.476.476,0,0,0-.273.212.319.319,0,1,0-.277.477.307.307,0,0,0,.073-.009.318.318,0,0,0,.155-.087v0a.478.478,0,0,0,.458.342.487.487,0,0,0,.136-.02.479.479,0,0,0-.272-.918" transform="translate(-541.305 -987.327)" fill="#fff"/>
        <path id="Path_80321" data-name="Path 80321" d="M520.766,1029.926a.478.478,0,1,0-.459.615.5.5,0,0,0,.137-.019.479.479,0,0,0,.322-.6" transform="translate(-516.446 -998.214)" fill="#fff"/>
        <path id="Path_80322" data-name="Path 80322" d="M479.911,991.8a.479.479,0,0,0,.387-.555h0a.478.478,0,1,0-.471.563.492.492,0,0,0,.085-.008" transform="translate(-477.688 -961.126)" fill="#fff"/>
        <path id="Path_80323" data-name="Path 80323" d="M488.655,1030.315a.478.478,0,1,0-.464.594.472.472,0,0,0,.116-.015.478.478,0,0,0,.348-.58" transform="translate(-485.696 -998.567)" fill="#fff"/>
        <path id="Path_80324" data-name="Path 80324" d="M554.681,839.834h0a.478.478,0,1,0-.478-.484h0a.478.478,0,0,0,.474.483" transform="translate(-549.363 -815.619)" fill="#fff"/>
        <path id="Path_80325" data-name="Path 80325" d="M518.6,967.832a.641.641,0,0,0,.516-.264h.023a.3.3,0,0,0,.044,0,.689.689,0,1,0-.583.266" transform="translate(-514.661 -937.644)" fill="#fff"/>
        <path id="Path_80326" data-name="Path 80326" d="M599,935.9a.638.638,0,1,0,.8.421.638.638,0,0,0-.8-.421" transform="translate(-591.823 -908.49)" fill="#fff"/>
        <path id="Path_80327" data-name="Path 80327" d="M567.645,954.974a.633.633,0,0,0-.215.112.478.478,0,1,0-.1.946l.039,0a.638.638,0,1,0,.277-1.055" transform="translate(-561.468 -926.752)" fill="#fff"/>
        <path id="Path_80328" data-name="Path 80328" d="M509.374,733.914a.638.638,0,0,0-.229,1.256.66.66,0,0,0,.115.01.638.638,0,0,0,.114-1.266" transform="translate(-505.715 -715.11)" fill="#fff"/>
        <path id="Path_80329" data-name="Path 80329" d="M503.84,894.518a.579.579,0,0,0,.072,0,.638.638,0,0,0,.543-.463.318.318,0,0,0,.274.157h0a.319.319,0,1,0-.275-.486.638.638,0,1,0-.618.8" transform="translate(-500.527 -867.671)" fill="#fff"/>
        <path id="Path_80330" data-name="Path 80330" d="M577.08,778.716a.638.638,0,0,0,.616.659h.022a.638.638,0,1,0-.638-.66" transform="translate(-571.262 -757.426)" fill="#fff"/>
        <path id="Path_80331" data-name="Path 80331" d="M581.718,859.187a.665.665,0,0,0,.086-.005.64.64,0,1,0-.086.005" transform="translate(-575.094 -833.843)" fill="#fff"/>
        <path id="Path_80332" data-name="Path 80332" d="M509.786,934.064a.667.667,0,0,0,.118-.011.637.637,0,0,0,.443-.322.317.317,0,0,0,.155.04h.026a.319.319,0,1,0-.052-.636.314.314,0,0,0-.108.029.638.638,0,1,0-.581.9" transform="translate(-506.22 -905.535)" fill="#fff"/>
        <path id="Path_80333" data-name="Path 80333" d="M588.848,898.526a.624.624,0,0,0,.142-.016.637.637,0,1,0-.142.016" transform="translate(-581.919 -871.509)" fill="#fff"/>
        <path id="Path_80334" data-name="Path 80334" d="M578.045,819.365h.033a.638.638,0,1,0-.669-.6h0a.638.638,0,0,0,.637.606" transform="translate(-571.577 -795.715)" fill="#fff"/>
        <path id="Path_80335" data-name="Path 80335" d="M502.895,774.052a.638.638,0,0,0,.566.7.626.626,0,0,0,.069,0,.638.638,0,1,0-.635-.706" transform="translate(-500.229 -753.005)" fill="#fff"/>
        <path id="Path_80336" data-name="Path 80336" d="M580.834,738.226a.638.638,0,0,0-.709.558h0a.638.638,0,0,0,.557.709.661.661,0,0,0,.077,0,.638.638,0,0,0,.075-1.272" transform="translate(-574.173 -719.244)" fill="#fff"/>
        <path id="Path_80337" data-name="Path 80337" d="M500.686,814.654h.022a.641.641,0,1,0-.022,0" transform="translate(-497.528 -791.204)" fill="#fff"/>
        <path id="Path_80338" data-name="Path 80338" d="M500.813,854.643h.025a.638.638,0,1,0-.025,0" transform="translate(-497.629 -829.492)" fill="#fff"/>
      </g>
    </g>
  </g>
</svg>
