<svg xmlns="http://www.w3.org/2000/svg" xmlns:xlink="http://www.w3.org/1999/xlink" width="80" height="80" viewBox="0 0 80 80">
  <defs>
    <clipPath id="clip-path">
      <rect id="Rectangle_7050" data-name="Rectangle 7050" width="45.091" height="45.043" fill="#ff453a" stroke="rgba(0,0,0,0)" stroke-width="1"/>
    </clipPath>
  </defs>
  <g id="Group_28230" data-name="Group 28230" transform="translate(-412 -2188)">
    <rect id="Rectangle_7045" data-name="Rectangle 7045" width="80" height="80" rx="17" transform="translate(412 2188)" fill="rgba(255,69,58,0.1)"/>
    <g id="Group_28221" data-name="Group 28221" transform="translate(425 2201)">
      <rect id="Rectangle_7044" data-name="Rectangle 7044" width="55" height="55" transform="translate(0 0)" fill="none"/>
      <g id="Group_28237" data-name="Group 28237" transform="translate(4.954 4.979)">
        <g id="Group_28237-2" data-name="Group 28237" clip-path="url(#clip-path)">
          <path id="Path_68555" data-name="Path 68555" d="M0,20.216A9.686,9.686,0,0,1,1.376,16.5a8.9,8.9,0,0,1,7.537-4.211c.43-.01.562-.163.665-.549,1.7-6.331,5.8-10.156,12.2-11.554C22.145.1,22.523.061,22.9,0h2.994A2.084,2.084,0,0,0,26.5.087,15.158,15.158,0,0,1,38.577,9.443a1.148,1.148,0,0,0,.581.608A10.719,10.719,0,0,1,44.2,15.3a12.8,12.8,0,0,1,.893,3.156V20.92a11.806,11.806,0,0,1-1.236,3.824,10.694,10.694,0,0,1-7.244,5.465.926.926,0,0,1-1.163-.667.879.879,0,0,1,.689-1.1,9.917,9.917,0,0,0,3.325-1.458,8.915,8.915,0,0,0-1.5-15.443,1.759,1.759,0,0,1-.972-1.06,13.008,13.008,0,0,0-9.117-8.2A12.938,12.938,0,0,0,16.412,4.5a13.076,13.076,0,0,0-5.011,7.53c-.111.439-.169.891-.273,1.332a.893.893,0,0,1-1.033.8,9.379,9.379,0,0,0-2.879.188,7.277,7.277,0,0,0-5.368,6.509,7.194,7.194,0,0,0,5.85,7.6c.724.125,1.1.557,1.012,1.092a.942.942,0,0,1-1.182.766A9.052,9.052,0,0,1,.682,24.9,11.477,11.477,0,0,1,0,22.5Z" fill="#ff453a" stroke="rgba(0,0,0,0)" stroke-width="1"/>
          <path id="Path_68556" data-name="Path 68556" d="M267.722,377.79a1.177,1.177,0,0,1-1.109.565q-7.658-.016-15.315-.007c-.719,0-1.114-.317-1.126-.887a.888.888,0,0,1,.775-.917,2.867,2.867,0,0,1,.4-.014q7.614,0,15.227-.007a1.2,1.2,0,0,1,1.153.565Z" transform="translate(-222.631 -335.072)" fill="#ff453a" stroke="rgba(0,0,0,0)" stroke-width="1"/>
          <path id="Path_68557" data-name="Path 68557" d="M0,377.09a1.178,1.178,0,0,1,1.11-.565q7.613.016,15.227.007a2.28,2.28,0,0,1,.395.02.905.905,0,0,1,0,1.777,2.586,2.586,0,0,1-.439.021q-7.57,0-15.139.008A1.2,1.2,0,0,1,0,377.793Z" transform="translate(0 -335.075)" fill="#ff453a" stroke="rgba(0,0,0,0)" stroke-width="1"/>
          <path id="Path_68558" data-name="Path 68558" d="M111.98,132.251c2.348,0,4.7,0,7.043,0a4.469,4.469,0,0,1,4.09,2.761A4.42,4.42,0,0,1,122,139.927c-.253.23-.2.327.012.531a4.41,4.41,0,0,1-.034,6.523c-.2.188-.211.275-.009.471a4.373,4.373,0,0,1,.229,6.332,4.05,4.05,0,0,1-3,1.371c-1.951.032-3.9.019-5.855,0-.374,0-.535.088-.509.489a13.231,13.231,0,0,1,0,1.449.6.6,0,0,0,.365.615,2.667,2.667,0,0,1-.489,4.9,2.672,2.672,0,0,1-3.21-1.417,2.618,2.618,0,0,1,1.041-3.4.842.842,0,0,0,.481-.9,10.153,10.153,0,0,1,0-1.273c.02-.351-.114-.453-.457-.45-1.863.013-3.727.009-5.591,0a4.448,4.448,0,0,1-4.19-2.743,4.378,4.378,0,0,1,1.111-4.945c.222-.211.2-.31-.008-.51a4.391,4.391,0,0,1,0-6.517c.212-.2.223-.3.005-.511a4.236,4.236,0,0,1-1.255-4.485,4.347,4.347,0,0,1,3.547-3.157,3.9,3.9,0,0,1,.789-.043q3.5,0,7,0m-.047,1.819q-3.213,0-6.426,0a6.735,6.735,0,0,0-.964.064,2.568,2.568,0,0,0-.987,4.744,3.294,3.294,0,0,0,1.777.4q6.492,0,12.985,0a6.952,6.952,0,0,0,1.052-.069,2.568,2.568,0,0,0,1.606-4.175,2.765,2.765,0,0,0-2.308-.966q-3.367-.005-6.735,0m0,12.242q3.213,0,6.427,0a6.8,6.8,0,0,0,.964-.062,2.571,2.571,0,0,0,1.477-4.374,2.833,2.833,0,0,0-2.173-.773q-6.558-.005-13.117,0a6.408,6.408,0,0,0-1.008.07,2.41,2.41,0,0,0-1.977,1.552,2.5,2.5,0,0,0,.342,2.573,2.781,2.781,0,0,0,2.374,1.016q3.345.005,6.691,0m.006,7.032q3.191,0,6.382,0a7.122,7.122,0,0,0,1.008-.064,2.569,2.569,0,0,0,1.5-4.346,2.836,2.836,0,0,0-2.206-.8q-6.58,0-13.161,0a5.928,5.928,0,0,0-.92.065,2.409,2.409,0,0,0-2.087,1.769,2.477,2.477,0,0,0,.719,2.686,2.891,2.891,0,0,0,2.077.689c2.23.008,4.46,0,6.69,0m0,7.5a.789.789,0,1,0-.8-.8.743.743,0,0,0,.8.8" transform="translate(-89.388 -117.691)" fill="#ff453a" stroke="rgba(0,0,0,0)" stroke-width="1"/>
          <path id="Path_68559" data-name="Path 68559" d="M141.994,164.634c-1.1,0-2.2.005-3.3,0a.988.988,0,0,1-.972-.554.863.863,0,0,1,.094-.912.972.972,0,0,1,.842-.4c2.212-.011,4.424-.018,6.636,0a.918.918,0,0,1,.988.954.943.943,0,0,1-1.039.9c-1.084.018-2.168,0-3.252.005" transform="translate(-122.484 -144.839)" fill="#ff453a" stroke="rgba(0,0,0,0)" stroke-width="1"/>
          <path id="Path_68560" data-name="Path 68560" d="M229.369,162.982a.917.917,0,1,1-.048,1.833.917.917,0,0,1,.048-1.833" transform="translate(-203.295 -145.039)" fill="#ff453a" stroke="rgba(0,0,0,0)" stroke-width="1"/>
          <path id="Path_68561" data-name="Path 68561" d="M256.4,163.954a.894.894,0,0,1,.9-.931.937.937,0,0,1,.915.894.96.96,0,0,1-.92.938.917.917,0,0,1-.9-.9" transform="translate(-228.173 -145.076)" fill="#ff453a" stroke="rgba(0,0,0,0)" stroke-width="1"/>
          <path id="Path_68562" data-name="Path 68562" d="M141.962,228.508c-1.011,0-2.022,0-3.032,0a1.781,1.781,0,0,1-.649-.088.862.862,0,0,1-.6-.839.847.847,0,0,1,.622-.862,1.9,1.9,0,0,1,.561-.087q3.142-.009,6.285,0c.059,0,.117,0,.176,0a.955.955,0,0,1,1,.949.94.94,0,0,1-1.027.918c-.893.022-1.787.007-2.681.008h-.659" transform="translate(-122.526 -201.679)" fill="#ff453a" stroke="rgba(0,0,0,0)" stroke-width="1"/>
          <path id="Path_68563" data-name="Path 68563" d="M256.392,227.792a.894.894,0,0,1,.89-.9.941.941,0,0,1,.931.923.96.96,0,0,1-.951.908.913.913,0,0,1-.869-.929" transform="translate(-228.166 -201.912)" fill="#ff453a" stroke="rgba(0,0,0,0)" stroke-width="1"/>
          <path id="Path_68564" data-name="Path 68564" d="M229.34,226.852a.916.916,0,1,1,0,1.832.916.916,0,0,1,0-1.832" transform="translate(-203.292 -201.878)" fill="#ff453a" stroke="rgba(0,0,0,0)" stroke-width="1"/>
          <path id="Path_68565" data-name="Path 68565" d="M141.919,292.363c-1.1,0-2.2.014-3.3-.005a.957.957,0,0,1-1.03-.924.986.986,0,0,1,.98-.937,3.6,3.6,0,0,1,.4-.01H144.9c.088,0,.176,0,.264,0,.68.031,1.089.394,1.083.959-.005.537-.416.9-1.077.913-1.084.014-2.168,0-3.252,0Z" transform="translate(-122.446 -258.507)" fill="#ff453a" stroke="rgba(0,0,0,0)" stroke-width="1"/>
          <path id="Path_68566" data-name="Path 68566" d="M257.3,290.71a.953.953,0,0,1,.912.934.963.963,0,0,1-.9.9.918.918,0,0,1-.009-1.837" transform="translate(-228.168 -258.707)" fill="#ff453a" stroke="rgba(0,0,0,0)" stroke-width="1"/>
          <path id="Path_68567" data-name="Path 68567" d="M228.437,291.645a.912.912,0,0,1,.909-.933.917.917,0,0,1-.014,1.834.906.906,0,0,1-.895-.9" transform="translate(-203.289 -258.709)" fill="#ff453a" stroke="rgba(0,0,0,0)" stroke-width="1"/>
        </g>
      </g>
    </g>
  </g>
</svg>
