<svg xmlns="http://www.w3.org/2000/svg" xmlns:xlink="http://www.w3.org/1999/xlink" width="80" height="80" viewBox="0 0 80 80">
  <defs>
    <clipPath id="clip-path">
      <rect id="Rectangle_7048" data-name="Rectangle 7048" width="50.123" height="43.29" fill="#ff9f0a" stroke="rgba(0,0,0,0)" stroke-width="1"/>
    </clipPath>
  </defs>
  <g id="Group_28230" data-name="Group 28230" transform="translate(-412 -2188)">
    <rect id="Rectangle_7045" data-name="Rectangle 7045" width="80" height="80" rx="17" transform="translate(412 2188)" fill="rgba(255,159,10,0.1)"/>
    <g id="Group_28221" data-name="Group 28221" transform="translate(425 2201)">
      <rect id="Rectangle_7044" data-name="Rectangle 7044" width="55" height="55" transform="translate(0 0)" fill="none"/>
      <g id="Group_28233" data-name="Group 28233" transform="translate(2.439 5.854)">
        <g id="Group_28232" data-name="Group 28232" clip-path="url(#clip-path)">
          <path id="Path_68546" data-name="Path 68546" d="M25.067,0H47.361a2.476,2.476,0,0,1,2.761,2.754q0,15.483,0,30.966a2.479,2.479,0,0,1-2.763,2.756H32.941c-.7,0-.688,0-.7.7-.028,1.417.078,2.836-.06,4.252-.036.373.235.288.425.289,1.064.008,2.128,0,3.192.005a2.242,2.242,0,0,1,.529.029.774.774,0,0,1,0,1.5,2.393,2.393,0,0,1-.582.031H14.41c-.071,0-.142,0-.213,0-.64-.012-.979-.292-.969-.8.01-.49.334-.759.95-.763,1.082-.007,2.164-.015,3.245,0,.415.007.551-.046.52-.551-.079-1.29-.035-2.588-.039-3.882,0-.819,0-.82-.8-.82-4.771,0-9.542-.04-14.312.022A2.694,2.694,0,0,1,0,33.679C.045,23.375.022,13.07.023,2.766A2.476,2.476,0,0,1,2.774,0H25.067m-.035,28.951H47.863c.693,0,.694,0,.694-.708q0-12.613,0-25.225c0-1.163-.287-1.453-1.44-1.453H3.053c-1.189,0-1.465.279-1.465,1.48q0,12.586,0,25.172c0,.733,0,.734.721.734H25.033m.039,1.565H2.455c-.16,0-.32.007-.479,0-.264-.011-.391.1-.389.375.007,1.011-.017,2.023.016,3.033a.942.942,0,0,0,.986.979c.211.019.425.009.638.009H34.412q6.413,0,12.825,0c.983,0,1.314-.332,1.319-1.306,0-.781,0-1.561,0-2.342,0-.746,0-.747-.762-.747H25.072m0,11.207c1.472,0,2.943.008,4.415,0,.819-.006,1.175-.358,1.184-1.168.013-1.188-.009-2.376.011-3.563.007-.4-.131-.524-.523-.522s-.484.158-.478.512c.016.939.011,1.879,0,2.819-.007.665-.273.933-.942.934q-3.67.009-7.34,0c-.669,0-.933-.27-.94-.936-.009-.94-.014-1.88,0-2.819.006-.356-.1-.507-.481-.509s-.528.13-.521.524c.02,1.152,0,2.3.009,3.457,0,.938.343,1.272,1.295,1.275,1.436,0,2.872,0,4.308,0m0-2.554c.851,0,1.7-.012,2.554.006.358.007.519-.1.5-.483-.023-.585-.019-1.171,0-1.756.011-.348-.126-.466-.469-.464q-2.581.016-5.162,0c-.334,0-.488.1-.477.456.018.585.021,1.171,0,1.756-.014.374.13.5.5.491.851-.018,1.7-.006,2.554-.006" transform="translate(0 0)" fill="#ff9f0a" stroke="rgba(0,0,0,0)" stroke-width="1"/>
          <path id="Path_68547" data-name="Path 68547" d="M192.679,93.036q-4.387,0-8.775,0c-.88,0-1.1-.222-1.105-1.095q0-6.514,0-13.029c0-.833.235-1.063,1.083-1.064q8.854,0,17.709,0c.844,0,1.078.232,1.079,1.068q0,6.515,0,13.029c0,.868-.227,1.09-1.11,1.091q-4.441,0-8.881,0m.055-1.565c2.608,0,5.215-.007,7.823.007.41,0,.558-.112.556-.542q-.022-5.482,0-10.963c0-.45-.151-.57-.583-.569q-7.8.018-15.593,0c-.432,0-.585.119-.583.569q.023,5.455,0,10.91c0,.476.152.6.611.6,2.59-.019,5.18-.009,7.77-.009" transform="translate(-156.805 -66.777)" fill="#ff9f0a" stroke="rgba(0,0,0,0)" stroke-width="1"/>
          <path id="Path_68548" data-name="Path 68548" d="M40.037,42.576q-4.414,0-8.827,0c-.886,0-1.112-.221-1.113-1.087q0-5.238,0-10.476c0-.838.233-1.07,1.076-1.07q8.854,0,17.708,0c.866,0,1.086.227,1.087,1.113q0,5.211,0,10.423c0,.874-.224,1.1-1.1,1.1q-4.414,0-8.827,0m0-11.069c-2.608,0-5.215.007-7.823-.007-.409,0-.56.11-.557.541q.025,4.2,0,8.408c0,.449.149.571.582.57q7.8-.018,15.593,0c.431,0,.587-.117.584-.568q-.026-4.177,0-8.355c0-.475-.15-.6-.61-.6-2.59.019-5.18.009-7.77.009" transform="translate(-25.816 -25.684)" fill="#ff9f0a" stroke="rgba(0,0,0,0)" stroke-width="1"/>
          <path id="Path_68549" data-name="Path 68549" d="M34.652,131.737c1.151,0,2.3,0,3.454,0,.736,0,.993.257,1,.988q.008,2.763,0,5.526c0,.746-.251,1.006-.976,1.007q-3.534.008-7.067,0c-.7,0-.966-.262-.968-.961q-.009-2.79,0-5.579c0-.728.26-.978,1-.981,1.187-.005,2.373,0,3.56,0m-.006,1.565c-.851,0-1.7.008-2.554,0-.316,0-.445.11-.443.434.011,1.171.013,2.342,0,3.512,0,.354.14.459.475.457q2.475-.016,4.949,0c.341,0,.475-.113.471-.462-.014-1.153-.016-2.306,0-3.459.006-.38-.144-.493-.5-.484-.8.018-1.6.006-2.395.006" transform="translate(-25.808 -113.004)" fill="#ff9f0a" stroke="rgba(0,0,0,0)" stroke-width="1"/>
          <path id="Path_68550" data-name="Path 68550" d="M110.9,139.26c-1.151,0-2.3,0-3.454,0-.748,0-1.007-.25-1.01-.973q-.009-2.789,0-5.579c0-.7.262-.967.96-.969q3.56-.008,7.12,0c.663,0,.928.273.93.945q.01,2.816,0,5.632c0,.669-.269.937-.934.942-1.2.009-2.409,0-3.613,0m.1-5.959c-.852,0-1.7.008-2.554,0-.314,0-.448.105-.445.432.011,1.188.009,2.377,0,3.566,0,.3.128.4.417.4q2.528-.01,5.056,0c.29,0,.419-.1.417-.4-.008-1.188-.01-2.377,0-3.565,0-.327-.132-.436-.445-.431-.816.012-1.632,0-2.448,0" transform="translate(-91.302 -113.002)" fill="#ff9f0a" stroke="rgba(0,0,0,0)" stroke-width="1"/>
          <path id="Path_68551" data-name="Path 68551" d="M192.812,31.5h-8.718a3.526,3.526,0,0,1-.531-.014.774.774,0,0,1,.022-1.538,3.517,3.517,0,0,1,.478-.012h17.489a3.636,3.636,0,0,1,.478.011.721.721,0,0,1,.7.782.7.7,0,0,1-.725.758c-.583.03-1.169.013-1.754.014h-7.442" transform="translate(-156.881 -25.673)" fill="#ff9f0a" stroke="rgba(0,0,0,0)" stroke-width="1"/>
          <path id="Path_68552" data-name="Path 68552" d="M188.26,53.892c1.434,0,2.868,0,4.3,0,.656,0,.988.266.995.769s-.332.791-.972.792q-4.381.006-8.763,0c-.638,0-.977-.29-.968-.8s.34-.763,1-.765c1.469,0,2.939,0,4.408,0" transform="translate(-156.853 -46.228)" fill="#ff9f0a" stroke="rgba(0,0,0,0)" stroke-width="1"/>
        </g>
      </g>
    </g>
  </g>
</svg>
